<svg xmlns="http://www.w3.org/2000/svg" width="34" height="29" viewBox="0 0 34 29">
    <path fill="#888" fill-rule="evenodd" d="M29.25 26v1.5a1.5 1.5 0 0 1-1.5 1.5h-21a1.5 1.5 0 0 1-1.5-1.5v-6h24V26zm0-6.75h-3V11h-6a1.5 1.5 0 0 1-1.5-1.5v-6H8.25v15.75h-3V2.044c0-.827.672-1.497 1.5-1.497H18V.5h3.75v.177l.167-.167 6.959 6.959-.532.531h.906v11.25zm-16.875 0h9.75-9.75zM25.334 8L21.75 4.416V8h3.584zM25.152.5a46.33 46.33 0 0 1 1.799 0h-1.8zm5.598 12.75h1.5a1.5 1.5 0 0 1 1.5 1.5v9a1.5 1.5 0 0 1-1.5 1.5h-1.5v-12zm-27 0v12h-1.5a1.5 1.5 0 0 1-1.5-1.5v-9a1.5 1.5 0 0 1 1.5-1.5h1.5zm8.625.75h9.75a1.125 1.125 0 1 1 0 2.25h-9.75a1.125 1.125 0 0 1 0-2.25zm0-5.25h2.25a1.125 1.125 0 1 1 0 2.25h-2.25a1.125 1.125 0 0 1 0-2.25zM8.25 24.5V26h18v-1.5h-18z"/>
</svg>
