<?xml version="1.0" encoding="UTF-8"?>
<svg width="19px" height="19px" viewBox="0 0 19 19" version="1.1" xmlns="http://www.w3.org/2000/svg" xmlns:xlink="http://www.w3.org/1999/xlink">
    <!-- Generator: Sketch 49.1 (51147) - http://www.bohemiancoding.com/sketch -->
    <title>icon</title>
    <desc>Created with Sketch.</desc>
    <defs></defs>
    <g id="099-outsourcing-010418" stroke="none" stroke-width="1" fill="none" fill-rule="evenodd">
        <g id="03.01-trip_history" transform="translate(-112.000000, -31.000000)" fill="#AAAAAA">
            <g id="search-bar" transform="translate(80.000000, 0.000000)">
                <path d="M37.8875296,45.3310564 L33.4377828,49.8016803 L32.0481402,48.4054099 L36.4978303,43.9348597 C35.5147375,42.6515781 34.930154,41.044186 34.930154,39.2996249 C34.930154,35.0987478 38.3197982,31.6932309 42.5010367,31.6932309 C46.6823323,31.6932309 50.0719194,35.0987478 50.0719194,39.2996249 C50.0719194,43.500502 46.6823323,46.9060188 42.5010367,46.9060188 C40.7646658,46.9060188 39.1648091,46.3187213 37.8875296,45.3310564 Z M42.5010367,33.8664975 C39.5144106,33.8664975 37.093334,36.2989984 37.093334,39.2996249 C37.093334,42.3002514 39.5144106,44.7327718 42.5010367,44.7327718 C45.4877389,44.7327718 47.9088155,42.3002514 47.9088155,39.2996249 C47.9088155,36.2989984 45.4877389,33.8664975 42.5010367,33.8664975 Z" id="icon"></path>
            </g>
        </g>
    </g>
</svg>