<?xml version="1.0" encoding="UTF-8"?>
<svg width="28px" height="25px" viewBox="0 0 28 25" version="1.1" xmlns="http://www.w3.org/2000/svg" xmlns:xlink="http://www.w3.org/1999/xlink">
    <!-- Generator: Sketch 49.1 (51147) - http://www.bohemiancoding.com/sketch -->
    <title>download</title>
    <desc>Created with Sketch.</desc>
    <defs></defs>
    <g id="099-outsourcing-010418" stroke="none" stroke-width="1" fill="none" fill-rule="evenodd">
        <g id="03.01-trip_history" transform="translate(-2350.000000, -34.000000)" fill="#888888">
            <path d="M2365.25001,48.6018594 L2370.565,45.45109 C2371.2637,45.0368388 2372.1572,45.2825125 2372.56061,46.0000038 C2372.964,46.7174162 2372.72462,47.634775 2372.02592,48.0491575 L2364.81792,52.3219311 C2364.53517,52.6065965 2364.15315,52.7578216 2363.7653,52.7499313 C2363.76021,52.749982 2363.75511,52.7500075 2363.75002,52.7500075 C2363.7449,52.7500075 2363.73979,52.7499819 2363.73469,52.7499309 C2363.34692,52.7578257 2362.96497,52.6066451 2362.68224,52.3220543 L2355.47414,48.0491575 C2354.77544,47.634775 2354.53594,46.7174162 2354.93945,46.0000038 C2355.34283,45.2825125 2356.23622,45.0368388 2356.93494,45.45109 L2362.25002,48.6018629 L2362.25002,36.250045 C2362.25002,35.421595 2362.92163,34.7499887 2363.75002,34.7499887 C2364.57843,34.7499887 2365.25001,35.421595 2365.25001,36.250045 L2365.25001,48.6018594 Z M2351.75003,55.750015 L2375.75003,55.750015 C2376.57842,55.750015 2377.25003,56.4215687 2377.25003,57.2499925 C2377.25003,58.0784425 2376.57842,58.7500488 2375.75003,58.7500488 L2351.75003,58.7500488 C2350.92161,58.7500488 2350.25003,58.0784425 2350.25003,57.2499925 C2350.25003,56.4215687 2350.92161,55.750015 2351.75003,55.750015 Z" id="download"></path>
        </g>
    </g>
</svg>