<?xml version="1.0" encoding="UTF-8"?>
<svg width="34px" height="29px" viewBox="0 0 34 29" version="1.1" xmlns="http://www.w3.org/2000/svg" xmlns:xlink="http://www.w3.org/1999/xlink">
    <!-- Generator: Sketch 49.1 (51147) - http://www.bohemiancoding.com/sketch -->
    <title>print</title>
    <desc>Created with Sketch.</desc>
    <defs></defs>
    <g id="099-outsourcing-010418" stroke="none" stroke-width="1" fill="none" fill-rule="evenodd">
        <g id="03.01-trip_history" transform="translate(-2258.000000, -32.000000)" fill="#888888">
            <path d="M2287.25003,57.9999678 L2287.25003,59.5000292 C2287.25003,60.3284477 2286.57844,61.0000172 2285.75003,61.0000172 L2264.75002,61.0000172 C2263.92161,61.0000172 2263.25003,60.3284477 2263.25003,59.5000292 L2263.25003,57.9999678 L2263.25003,53.499967 L2287.25003,53.499967 L2287.25003,57.9999678 Z M2287.25003,51.249985 L2284.25001,51.249985 L2284.25001,43.0000142 L2278.25003,43.0000142 C2277.42162,43.0000142 2276.75004,42.3284448 2276.75004,41.5000262 L2276.75004,35.499964 L2266.25002,35.499964 L2266.25002,51.249985 L2263.25003,51.249985 L2263.25003,34.0444802 C2263.25003,33.217348 2263.92161,32.5467708 2264.75002,32.5467708 L2276.00002,32.5467708 L2276.00002,32.5000248 L2279.75003,32.5000248 L2279.75003,32.6772471 L2279.91711,32.5101678 L2286.87571,39.4687068 L2286.34443,39.9999648 L2287.25003,39.9999648 L2287.25003,43.0000142 L2287.25003,51.249985 Z M2270.37497,51.249985 L2280.12498,51.249985 L2270.37497,51.249985 Z M2283.33395,39.9999648 L2279.75003,36.4160652 L2279.75003,39.9999648 L2283.33395,39.9999648 Z M2283.15185,32.5000247 C2283.86474,32.4903398 2284.45795,32.4866275 2284.95052,32.5000248 L2283.15185,32.5000248 Z M2288.75002,45.2499963 L2290.25001,45.2499963 C2291.07842,45.2499963 2291.75001,45.921529 2291.75001,46.7499842 L2291.75001,55.7499858 C2291.75001,56.5784043 2291.07842,57.2500105 2290.25001,57.2500105 L2288.75002,57.2500105 L2288.75002,45.2499963 Z M2261.75004,45.2499963 L2261.75004,57.2500105 L2260.25004,57.2500105 C2259.42163,57.2500105 2258.75001,56.5784043 2258.75001,55.7499858 L2258.75001,46.7499842 C2258.75001,45.921529 2259.42163,45.2499963 2260.25004,45.2499963 L2261.75004,45.2499963 Z M2270.37497,46.000027 L2280.12498,46.000027 C2280.74637,46.000027 2281.25002,46.5036858 2281.25002,47.125018 C2281.25002,47.7463135 2280.74637,48.250009 2280.12498,48.250009 L2270.37497,48.250009 C2269.75369,48.250009 2269.25004,47.7463135 2269.25004,47.125018 C2269.25004,46.5036858 2269.75369,46.000027 2270.37497,46.000027 Z M2270.37497,40.7499955 L2272.62498,40.7499955 C2273.24637,40.7499955 2273.75002,41.2536542 2273.75002,41.8749865 C2273.75002,42.4963555 2273.24637,43.0000142 2272.62498,43.0000142 L2270.37497,43.0000142 C2269.75369,43.0000142 2269.25004,42.4963555 2269.25004,41.8749865 C2269.25004,41.2536542 2269.75369,40.7499955 2270.37497,40.7499955 Z M2266.25002,56.5000165 L2266.25002,57.9999678 L2284.25001,57.9999678 L2284.25001,56.5000165 L2266.25002,56.5000165 Z" id="print"></path>
        </g>
    </g>
</svg>