<?xml version="1.0" encoding="UTF-8"?>
<svg width="52px" height="52px" viewBox="0 0 52 52" version="1.1" xmlns="http://www.w3.org/2000/svg" xmlns:xlink="http://www.w3.org/1999/xlink">
    <!-- Generator: Sketch 49.1 (51147) - http://www.bohemiancoding.com/sketch -->
    <title>Group 15</title>
    <desc>Created with Sketch.</desc>
    <defs>
        <linearGradient x1="50%" y1="100%" x2="50%" y2="0%" id="linearGradient-1">
            <stop stop-color="#FF2A68" offset="0%"></stop>
            <stop stop-color="#FF5E3A" offset="100%"></stop>
        </linearGradient>
    </defs>
    <g id="099-outsourcing-010418" stroke="none" stroke-width="1" fill="none" fill-rule="evenodd">
        <g id="03.01-trip_history" transform="translate(-440.000000, -179.000000)" fill="url(#linearGradient-1)">
            <g id="notes-list-" transform="translate(427.000000, 82.000000)">
                <g id="list" transform="translate(1.000000, 96.500000)">
                    <g id="1" transform="translate(11.500000, 0.000000)">
                        <g id="Group-4">
                            <g id="Group-15">
                                <path d="M26.2499475,0.7508025 C40.3328625,0.7508025 51.7491975,12.16719 51.7491975,26.25 C51.7491975,40.332915 40.3328625,51.74925 26.2499475,51.74925 C12.1671375,51.74925 0.7506975,40.332915 0.7506975,26.25 C0.7506975,12.16719 12.1671375,0.7508025 26.2499475,0.7508025 Z M26.2499475,3.7500225 C13.8236175,3.7500225 3.74997,13.823565 3.74997,26.25 C3.74997,38.676435 13.8236175,48.7499775 26.2499475,48.7499775 C38.676435,48.7499775 48.749925,38.676435 48.749925,26.25 C48.749925,13.823565 38.676435,3.7500225 26.2499475,3.7500225 Z" id="Combined-shape-20271"></path>
                                <path d="M38.2499437,36.4516367 C37.3720812,37.4832467 36.3635494,38.4002295 35.24994,39.1769915 L35.24994,25.4999842 L29.2499662,25.4999842 C28.4215387,25.4999842 27.7499475,24.8284515 27.7499475,23.9999963 L27.7499475,18.0000075 L17.2499513,18.0000075 L17.2499513,39.1769346 C16.1363444,38.4001673 15.1278119,37.4831804 14.2499475,36.4515674 L14.2499475,16.544487 C14.2499475,16.2950108 14.3110436,16.0597801 14.4191116,15.8528969 C14.5922676,15.6560182 14.7702603,15.4634969 14.952904,15.2755189 C15.1838275,15.1306185 15.4570962,15.0468143 15.7499662,15.0468143 L26.999955,15.0468143 L26.999955,14.9999948 L30.7499512,14.9999948 L30.7499512,15.1773653 L30.9171487,15.0101745 L37.8756225,21.9687135 L37.3443522,22.5000082 L38.2499437,22.5000083 L38.2499437,25.4999842 L38.2499437,36.4516367 Z M34.3340166,22.5000083 L30.7499513,18.9159236 L30.7499512,22.5000083 L34.3340166,22.5000083 Z M34.1564854,14.9999947 C34.8664278,14.9903645 35.4575524,14.9866896 35.9486914,14.9999948 L34.1564854,14.9999948 Z M21.3750113,33.7500285 L31.125015,33.7500285 C31.746285,33.7500285 32.24997,34.2536872 32.24997,34.8750195 C32.24997,35.496315 31.746285,36.0000105 31.125015,36.0000105 L21.3750113,36.0000105 C20.7536062,36.0000105 20.249955,35.496315 20.249955,34.8750195 C20.249955,34.2536872 20.7536062,33.7500285 21.3750113,33.7500285 Z M21.3750113,28.499997 L31.125015,28.499997 C31.746285,28.499997 32.24997,29.0036558 32.24997,29.624988 C32.24997,30.246357 31.746285,30.7500157 31.125015,30.7500157 L21.3750113,30.7500157 C20.7536062,30.7500157 20.249955,30.246357 20.249955,29.624988 C20.249955,29.0036558 20.7536062,28.499997 21.3750113,28.499997 Z M21.3750113,23.2499655 L23.6250225,23.2499655 C24.2462925,23.2499655 24.7499437,23.7536978 24.7499437,24.3749933 C24.7499437,24.9963255 24.2462925,25.4999842 23.6250225,25.4999842 L21.3750113,25.4999842 C20.7536062,25.4999842 20.249955,24.9963255 20.249955,24.3749933 C20.249955,23.7536978 20.7536062,23.2499655 21.3750113,23.2499655 Z" id="Combined-shape-20272"></path>
                            </g>
                        </g>
                    </g>
                </g>
            </g>
        </g>
    </g>
</svg>