<?xml version="1.0" encoding="utf-8"?>
<!-- Generator: Adobe Illustrator 17.0.0, SVG Export Plug-In . SVG Version: 6.00 Build 0)  -->
<!DOCTYPE svg PUBLIC "-//W3C//DTD SVG 1.1//EN" "http://www.w3.org/Graphics/SVG/1.1/DTD/svg11.dtd">
<svg version="1.1" id="Layer_1" xmlns="http://www.w3.org/2000/svg" xmlns:xlink="http://www.w3.org/1999/xlink" x="0px" y="0px"
	 width="48px" height="48px" viewBox="0 0 48 48" enable-background="new 0 0 48 48" xml:space="preserve">
<g>
	<path d="M23.464,16.773c-0.8,0-1.333,0.533-1.333,1.333v9.598c0,0.8,0.533,1.333,1.333,1.333c0.8,0,1.333-0.533,1.333-1.333v-9.598
		C24.797,17.306,24.264,16.773,23.464,16.773L23.464,16.773z M23.464,16.773"/>
	<g>
		<path d="M24.264,33.569c-0.533-0.533-1.333-0.533-1.866,0c-0.266,0.266-0.266,0.8-0.266,1.067c0,0.533,0,0.8,0.266,1.066
			c0.267,0.266,0.8,0.266,1.067,0.266c0.266,0,0.8,0,0.534-0.266c0.266-0.266,0.533-0.8,0.533-1.066
			C24.531,34.102,24.531,33.835,24.264,33.569L24.264,33.569z M24.264,33.569"/>
		<path d="M45.058,33.835l-2.896-5.055h-3.049l3.812,6.655c0.8,1.333,0.8,2.932,0,4.266c-0.533,1.333-1.866,2.133-3.466,2.133H7.735
			c-1.333,0-2.666-0.8-3.466-2.133c-0.8-1.333-0.8-2.933,0-4.266L19.998,7.976c0.533-1.333,1.866-2.133,3.466-2.133
			c1.475,0,2.718,0.686,3.531,1.838h3.082l-0.747-1.305c-1.066-2.133-3.465-3.466-5.865-3.466c-2.399,0-4.532,1.333-5.865,3.466
			L1.87,33.835c-1.332,2.134-1.332,4.799,0,6.932c1.067,2.133,3.466,3.466,5.866,3.466h31.458c2.666,0,4.799-1.333,5.866-3.466
			C46.391,38.634,46.391,35.969,45.058,33.835z"/>
		<path d="M42.926,39.701"/>
	</g>
</g>
<g>
	<path d="M44.517,9.703H29.391c-0.177,0-0.321,0.144-0.321,0.321V25.15c0,0.177,0.144,0.321,0.321,0.321h12.857
		c0.177,0,0.321-0.144,0.321-0.321c0-0.177-0.144-0.321-0.321-0.321H29.712V10.345h14.484V25.15c0,0.177,0.144,0.321,0.321,0.321
		c0.177,0,0.321-0.144,0.321-0.321V10.024C44.838,9.847,44.694,9.703,44.517,9.703L44.517,9.703z M44.517,9.703"/>
	<path d="M32.59,13.041c-0.678,0-1.23,0.552-1.23,1.23c0,0.678,0.551,1.23,1.23,1.23c0.678,0,1.23-0.552,1.23-1.23
		C33.82,13.593,33.268,13.041,32.59,13.041L32.59,13.041z M32.59,14.86c-0.324,0-0.588-0.264-0.588-0.588
		c0-0.324,0.264-0.588,0.588-0.588c0.324,0,0.588,0.264,0.588,0.588C33.178,14.596,32.914,14.86,32.59,14.86L32.59,14.86z
		 M32.59,14.86"/>
	<path d="M42.269,13.95h-7.487c-0.177,0-0.321,0.144-0.321,0.321c0,0.177,0.144,0.321,0.321,0.321h7.487
		c0.177,0,0.321-0.144,0.321-0.321C42.59,14.094,42.446,13.95,42.269,13.95L42.269,13.95z M42.269,13.95"/>
	<path d="M32.59,16.357c-0.177,0-0.321,0.144-0.321,0.321c0,0.177,0.144,0.321,0.321,0.321c0.324,0,0.588,0.264,0.588,0.588
		c0,0.324-0.264,0.588-0.588,0.588c-0.324,0-0.588-0.264-0.588-0.588c0-0.177-0.144-0.321-0.321-0.321
		c-0.177,0-0.321,0.144-0.321,0.321c0,0.678,0.551,1.23,1.23,1.23c0.678,0,1.23-0.552,1.23-1.23
		C33.82,16.908,33.268,16.357,32.59,16.357L32.59,16.357z M32.59,16.357"/>
	<path d="M42.269,17.266h-7.487c-0.177,0-0.321,0.144-0.321,0.321c0,0.177,0.144,0.321,0.321,0.321h7.487
		c0.177,0,0.321-0.144,0.321-0.321C42.59,17.41,42.446,17.266,42.269,17.266L42.269,17.266z M42.269,17.266"/>
	<path d="M32.59,19.672c-0.678,0-1.23,0.552-1.23,1.23c0,0.678,0.551,1.23,1.23,1.23c0.678,0,1.23-0.552,1.23-1.23
		C33.82,20.224,33.268,19.672,32.59,19.672L32.59,19.672z M32.59,21.491c-0.324,0-0.588-0.264-0.588-0.588
		c0-0.324,0.264-0.588,0.588-0.588c0.324,0,0.588,0.264,0.588,0.588C33.178,21.227,32.914,21.491,32.59,21.491L32.59,21.491z
		 M32.59,21.491"/>
	<path d="M42.269,20.582h-7.487c-0.177,0-0.321,0.144-0.321,0.321c0,0.177,0.144,0.321,0.321,0.321h7.487
		c0.177,0,0.321-0.144,0.321-0.321C42.59,20.725,42.446,20.582,42.269,20.582L42.269,20.582z M42.269,20.582"/>
</g>
</svg>
