<?xml version="1.0" encoding="utf-8"?>
<!-- Generator: Adobe Illustrator 17.0.0, SVG Export Plug-In . SVG Version: 6.00 Build 0)  -->
<!DOCTYPE svg PUBLIC "-//W3C//DTD SVG 1.1//EN" "http://www.w3.org/Graphics/SVG/1.1/DTD/svg11.dtd">
<svg version="1.1" id="Layer_1" xmlns="http://www.w3.org/2000/svg" xmlns:xlink="http://www.w3.org/1999/xlink" x="0px" y="0px"
	 width="48px" height="48px" viewBox="0 0 48 48" enable-background="new 0 0 48 48" xml:space="preserve">
<g>
	<path d="M23.597,16.792c-0.797,0-1.329,0.532-1.329,1.329v9.571c0,0.797,0.532,1.329,1.329,1.329c0.797,0,1.329-0.532,1.329-1.329
		v-9.571C24.927,17.324,24.395,16.792,23.597,16.792L23.597,16.792z M23.597,16.792"/>
	<g>
		<path d="M24.395,33.541c-0.532-0.532-1.329-0.532-1.861,0c-0.265,0.266-0.265,0.797-0.265,1.064c0,0.531,0,0.797,0.265,1.063
			c0.266,0.266,0.797,0.266,1.064,0.266c0.266,0,0.797,0,0.532-0.266c0.265-0.266,0.531-0.797,0.531-1.063
			C24.661,34.073,24.661,33.806,24.395,33.541L24.395,33.541z M24.395,33.541"/>
		<path d="M45.131,33.806l-2.888-5.041h-3.041l3.802,6.637c0.797,1.329,0.797,2.924,0,4.254c-0.532,1.329-1.861,2.127-3.456,2.127
			H7.912c-1.329,0-2.659-0.797-3.456-2.127c-0.797-1.329-0.797-2.924,0-4.254L20.141,8.02c0.532-1.329,1.861-2.127,3.456-2.127
			c1.471,0,2.711,0.684,3.521,1.833h3.073l-0.745-1.301c-1.063-2.127-3.455-3.456-5.848-3.456c-2.392,0-4.519,1.329-5.848,3.456
			L2.063,33.806c-1.329,2.128-1.329,4.785,0,6.912c1.064,2.127,3.456,3.456,5.849,3.456h31.37c2.659,0,4.786-1.329,5.849-3.456
			C46.461,38.592,46.461,35.934,45.131,33.806z"/>
		<path d="M43.004,39.656"/>
	</g>
</g>
<g>
	<path d="M45.533,23.256H30.026c-0.326,0-0.581,0.269-0.581,0.581c0,0.312,0.27,0.581,0.581,0.581h15.522
		c0.326,0,0.581-0.269,0.581-0.581C46.128,23.525,45.859,23.256,45.533,23.256L45.533,23.256z M45.533,23.256"/>
	<path d="M29.445,18.11l-0.014,2.764c0,0.156,0.057,0.311,0.17,0.425c0.114,0.114,0.255,0.17,0.411,0.17l2.75-0.014
		c0.156,0,0.297-0.057,0.411-0.17l9.497-9.497c0.227-0.226,0.227-0.595,0-0.836l-2.722-2.75c-0.227-0.227-0.595-0.227-0.836,0
		l-1.899,1.914l-7.598,7.583C29.516,17.812,29.445,17.954,29.445,18.11L29.445,18.11z M39.537,9.449l1.914,1.914l-1.077,1.077
		l-1.914-1.914L39.537,9.449z M30.621,18.365l7.002-7.002l1.914,1.914l-7.002,6.988l-1.928,0.015L30.621,18.365z M30.621,18.365"/>
</g>
</svg>
