<?xml version="1.0" encoding="utf-8"?>
<!-- Generator: Adobe Illustrator 17.0.0, SVG Export Plug-In . SVG Version: 6.00 Build 0)  -->
<!DOCTYPE svg PUBLIC "-//W3C//DTD SVG 1.1//EN" "http://www.w3.org/Graphics/SVG/1.1/DTD/svg11.dtd">
<svg version="1.1" id="Layer_1" xmlns="http://www.w3.org/2000/svg" xmlns:xlink="http://www.w3.org/1999/xlink" x="0px" y="0px"
	 width="48px" height="48px" viewBox="0 0 48 48" enable-background="new 0 0 48 48" xml:space="preserve">
<g>
	<path d="M25.512,30.468c0.388,0,0.702-0.314,0.702-0.702c0-0.388-0.315-0.702-0.702-0.702H3.29c-0.056,0-0.104-0.049-0.104-0.104
		V3.29c0-0.055,0.049-0.104,0.104-0.104h33.866c0.055,0,0.104,0.049,0.104,0.104v12.357c0,0.388,0.315,0.702,0.702,0.702
		c0.388,0,0.702-0.314,0.702-0.702V3.29c0-0.832-0.676-1.508-1.508-1.508H3.29c-0.832,0-1.508,0.676-1.508,1.508v25.67
		c0,0.831,0.676,1.508,1.508,1.508h12.655v4.24h-5.398c-0.388,0-0.702,0.314-0.702,0.702c0,0.388,0.314,0.702,0.702,0.702h14.965
		c0.388,0,0.702-0.315,0.702-0.702c0-0.388-0.315-0.702-0.702-0.702h-1.012v-4.24H25.512z M23.097,34.708H17.35v-4.24h5.747V34.708z
		 M23.097,34.708"/>
	<path d="M25.512,24.306H5.292c-0.388,0-0.702,0.314-0.702,0.702c0,0.388,0.315,0.702,0.702,0.702h20.22
		c0.388,0,0.702-0.314,0.702-0.702C26.214,24.62,25.9,24.306,25.512,24.306L25.512,24.306z M25.512,24.306"/>
	<path d="M44.27,17.753H29.127c-0.832,0-1.508,0.677-1.508,1.508v25.009c0,0.832,0.676,1.508,1.508,1.508H44.27
		c0.832,0,1.508-0.676,1.508-1.508V19.262C45.779,18.43,45.102,17.753,44.27,17.753L44.27,17.753z M29.023,21.966h15.352v16.792
		H29.023V21.966z M29.127,19.157H44.27c0.055,0,0.104,0.048,0.104,0.104v1.3H29.023v-1.3C29.023,19.206,29.072,19.157,29.127,19.157
		L29.127,19.157z M44.27,44.375H29.127c-0.056,0-0.104-0.049-0.104-0.104v-4.108h15.352v4.108
		C44.375,44.326,44.326,44.375,44.27,44.375L44.27,44.375z M44.27,44.375"/>
	<path d="M38.103,41.566h-2.808c-0.388,0-0.702,0.315-0.702,0.702c0,0.388,0.315,0.702,0.702,0.702h2.808
		c0.388,0,0.702-0.314,0.702-0.702C38.805,41.881,38.491,41.566,38.103,41.566L38.103,41.566z M38.103,41.566"/>
</g>
</svg>
