<?xml version="1.0" encoding="utf-8"?>
<!-- Generator: Adobe Illustrator 17.0.0, SVG Export Plug-In . SVG Version: 6.00 Build 0)  -->
<!DOCTYPE svg PUBLIC "-//W3C//DTD SVG 1.1//EN" "http://www.w3.org/Graphics/SVG/1.1/DTD/svg11.dtd">
<svg version="1.1" id="Layer_1" xmlns="http://www.w3.org/2000/svg" xmlns:xlink="http://www.w3.org/1999/xlink" x="0px" y="0px"
	 width="48px" height="48px" viewBox="0 0 48 48" enable-background="new 0 0 48 48" xml:space="preserve">
<g>
	<path d="M27.988,19.199h1.602c0.441,0,0.801-0.355,0.801-0.801c0-0.441-0.36-0.796-0.801-0.796h-1.602
		c-0.441,0-0.8,0.355-0.8,0.796C27.188,18.844,27.547,19.199,27.988,19.199L27.988,19.199z M27.988,19.199"/>
	<path d="M25.191,24.801c-0.347,0-0.683-0.063-1.003-0.184c-0.411-0.156-0.876,0.047-1.032,0.461
		c-0.156,0.414,0.051,0.875,0.461,1.031c0.504,0.192,1.028,0.289,1.571,0.289h0.285c0.445,0,0.8-0.355,0.8-0.796
		c0-0.446-0.355-0.801-0.8-0.801H25.191z M25.191,24.801"/>
	<path d="M23.293,19.742c0.145,0,0.289-0.039,0.422-0.121c0.351-0.223,0.746-0.355,1.16-0.402c0.441-0.051,0.758-0.446,0.711-0.883
		c-0.051-0.441-0.441-0.754-0.883-0.711c-0.66,0.074-1.277,0.285-1.836,0.637c-0.375,0.234-0.488,0.726-0.258,1.101
		C22.762,19.605,23.023,19.742,23.293,19.742L23.293,19.742z M23.293,19.742"/>
	<path d="M28.391,32c-0.071,0-0.137,0-0.207,0.004c-0.442,0.019-0.786,0.391-0.766,0.832c0.016,0.43,0.371,0.769,0.797,0.769
		c0.012,0,0.023,0,0.035-0.003h1.566c0.442,0,0.801-0.36,0.801-0.801c0-0.442-0.359-0.801-0.801-0.801H28.391z M28.391,32"/>
	<path d="M34.391,19.199c0.441,0,0.797-0.355,0.797-0.801c0-0.441-0.356-0.796-0.797-0.796h-1.602c-0.441,0-0.801,0.355-0.801,0.796
		c0,0.446,0.36,0.801,0.801,0.801H34.391z M34.391,19.199"/>
	<path d="M37.816,32c-0.441,0-0.8,0.359-0.8,0.801c0,0.441,0.359,0.801,0.8,0.801h1.602c0.441,0,0.801-0.36,0.801-0.801
		c0-0.442-0.36-0.801-0.801-0.801H37.816z M37.816,32"/>
	<path d="M40.676,25.602c0-0.446-0.36-0.801-0.801-0.801h-1.602c-0.441,0-0.796,0.355-0.796,0.801c0,0.441,0.355,0.796,0.796,0.796
		h1.602C40.316,26.398,40.676,26.043,40.676,25.602L40.676,25.602z M40.676,25.602"/>
	<path d="M33.016,33.602h1.601c0.442,0,0.801-0.36,0.801-0.801c0-0.442-0.359-0.801-0.801-0.801h-1.601
		c-0.442,0-0.797,0.359-0.797,0.801C32.219,33.242,32.574,33.602,33.016,33.602L33.016,33.602z M33.016,33.602"/>
	<path d="M35.875,25.602c0-0.446-0.355-0.801-0.801-0.801h-1.597c-0.446,0-0.801,0.355-0.801,0.801c0,0.441,0.355,0.796,0.801,0.796
		h1.597C35.516,26.398,35.875,26.043,35.875,25.602L35.875,25.602z M35.875,25.602"/>
	<path d="M28.676,24.801c-0.442,0-0.801,0.355-0.801,0.801c0,0.441,0.359,0.796,0.801,0.796h1.597c0.446,0,0.801-0.355,0.801-0.796
		c0-0.446-0.355-0.801-0.801-0.801H28.676z M28.676,24.801"/>
	<path d="M18.844,46.398h-1.598c-0.441,0-0.801,0.36-0.801,0.801c0,0.442,0.36,0.801,0.801,0.801h1.598
		c0.445,0,0.801-0.359,0.801-0.801C19.645,46.758,19.289,46.398,18.844,46.398L18.844,46.398z M18.844,46.398"/>
	<path d="M14.047,46.398h-1.602c-0.441,0-0.8,0.36-0.8,0.801c0,0.442,0.359,0.801,0.8,0.801h1.602c0.441,0,0.797-0.359,0.797-0.801
		C14.844,46.758,14.488,46.398,14.047,46.398L14.047,46.398z M14.047,46.398"/>
	<path d="M41.676,43.613c-0.43-0.097-0.856,0.176-0.953,0.606c-0.094,0.406-0.27,0.781-0.532,1.113
		c-0.273,0.348-0.214,0.852,0.133,1.125c0.149,0.113,0.321,0.168,0.496,0.168c0.239,0,0.473-0.102,0.629-0.305
		c0.403-0.511,0.692-1.117,0.832-1.75C42.379,44.137,42.109,43.711,41.676,43.613L41.676,43.613z M41.676,43.613"/>
	<path d="M40.82,42.176c0.172,0,0.348-0.055,0.492-0.172c0.348-0.274,0.407-0.777,0.133-1.125c-0.402-0.508-0.918-0.934-1.5-1.219
		c-0.398-0.199-0.879-0.035-1.074,0.36c-0.195,0.394-0.035,0.875,0.359,1.07c0.372,0.183,0.704,0.453,0.958,0.781
		C40.348,42.07,40.582,42.176,40.82,42.176L40.82,42.176z M40.82,42.176"/>
	<path d="M37.246,40c0-0.441-0.355-0.801-0.801-0.801h-1.597c-0.446,0-0.801,0.36-0.801,0.801c0,0.441,0.355,0.801,0.801,0.801
		h1.597C36.887,40.801,37.246,40.441,37.246,40L37.246,40z M37.246,40"/>
	<path d="M37.988,46.398h-1.543c-0.441,0-0.8,0.36-0.8,0.801c0,0.442,0.359,0.801,0.8,0.801h1.578l0.02-0.801V48
		c0.445,0,0.773-0.359,0.773-0.801C38.816,46.758,38.43,46.398,37.988,46.398L37.988,46.398z M37.988,46.398"/>
	<path d="M47.137,28.504c-0.071-0.434-0.485-0.734-0.918-0.66c-0.438,0.066-0.735,0.48-0.664,0.914
		c0.023,0.144,0.035,0.289,0.035,0.441c0,0.27-0.039,0.535-0.113,0.793c-0.125,0.422,0.117,0.867,0.543,0.992
		c0.074,0.02,0.148,0.032,0.222,0.032c0.348,0,0.668-0.227,0.77-0.575c0.117-0.402,0.176-0.82,0.176-1.234
		C47.191,28.977,47.172,28.738,47.137,28.504L47.137,28.504z M47.137,28.504"/>
	<path d="M22.02,23.883c0.418-0.137,0.644-0.59,0.507-1.008c-0.089-0.281-0.136-0.574-0.136-0.871c0-0.121,0.007-0.242,0.019-0.359
		c0.055-0.438-0.254-0.84-0.691-0.895c-0.453-0.051-0.84,0.258-0.895,0.695c-0.023,0.18-0.035,0.364-0.035,0.555
		c0,0.469,0.074,0.934,0.219,1.375c0.109,0.336,0.422,0.551,0.758,0.551C21.852,23.926,21.934,23.91,22.02,23.883L22.02,23.883z
		 M22.02,23.883"/>
	<path d="M44.992,25.391c-0.57-0.332-1.195-0.528-1.855-0.579c-0.438-0.031-0.825,0.293-0.86,0.735
		c-0.035,0.441,0.293,0.828,0.735,0.859c0.418,0.035,0.816,0.156,1.176,0.367c0.128,0.075,0.265,0.11,0.402,0.11
		c0.277,0,0.543-0.145,0.691-0.399C45.504,26.102,45.375,25.613,44.992,25.391L44.992,25.391z M44.992,25.391"/>
	<path d="M43.871,31.781C43.527,31.926,43.164,32,42.789,32h-0.172c-0.441,0-0.801,0.359-0.801,0.801
		c0,0.441,0.36,0.801,0.801,0.801h0.172c0.59,0,1.16-0.118,1.699-0.344c0.41-0.172,0.602-0.641,0.43-1.047
		C44.746,31.805,44.273,31.613,43.871,31.781L43.871,31.781z M43.871,31.781"/>
	<path d="M25.637,35.871c0.082-0.41,0.246-0.793,0.496-1.129c0.262-0.355,0.187-0.855-0.168-1.121
		c-0.36-0.258-0.86-0.183-1.121,0.172c-0.391,0.531-0.653,1.129-0.778,1.777c-0.082,0.434,0.2,0.852,0.637,0.938
		c0.051,0.008,0.102,0.015,0.149,0.015C25.23,36.52,25.562,36.254,25.637,35.871L25.637,35.871z M25.637,35.871"/>
	<path d="M26.891,40.477c0.304,0,0.593-0.176,0.73-0.469c0.184-0.403,0.008-0.875-0.394-1.059c-0.375-0.172-0.715-0.429-0.985-0.75
		c-0.285-0.34-0.789-0.383-1.125-0.097c-0.34,0.285-0.383,0.789-0.097,1.128c0.418,0.497,0.949,0.903,1.539,1.172
		C26.668,40.453,26.781,40.477,26.891,40.477L26.891,40.477z M26.891,40.477"/>
	<path d="M23.645,46.398h-1.598c-0.445,0-0.801,0.36-0.801,0.801c0,0.442,0.356,0.801,0.801,0.801h1.598
		c0.445,0,0.8-0.359,0.8-0.801C24.445,46.758,24.086,46.398,23.645,46.398L23.645,46.398z M23.645,46.398"/>
	<path d="M28.445,46.398h-1.601c-0.442,0-0.797,0.36-0.797,0.801c0,0.442,0.355,0.801,0.797,0.801h1.601
		c0.442,0,0.801-0.359,0.801-0.801C29.246,46.758,28.887,46.398,28.445,46.398L28.445,46.398z M28.445,46.398"/>
	<path d="M32.445,40c0-0.441-0.355-0.801-0.8-0.801h-1.598c-0.442,0-0.801,0.36-0.801,0.801c0,0.441,0.359,0.801,0.801,0.801h1.598
		C32.09,40.801,32.445,40.441,32.445,40L32.445,40z M32.445,40"/>
	<g>
		<defs>
			<rect id="SVGID_1_" width="48" height="48"/>
		</defs>
		<clipPath id="SVGID_2_">
			<use xlink:href="#SVGID_1_"  overflow="visible"/>
		</clipPath>
		<path clip-path="url(#SVGID_2_)" d="M33.246,46.398h-1.601c-0.442,0-0.801,0.36-0.801,0.801c0,0.442,0.359,0.801,0.801,0.801
			h1.601c0.442,0,0.801-0.359,0.801-0.801C34.047,46.758,33.688,46.398,33.246,46.398L33.246,46.398z M33.246,46.398"/>
		<path clip-path="url(#SVGID_2_)" d="M16.41,23.18C14.594,21.129,12.172,20,9.59,20c-2.586,0-5.008,1.129-6.824,3.18
			c-3.688,4.172-3.688,10.953,0,15.121l6.824,7.707l6.82-7.707C20.102,34.133,20.102,27.352,16.41,23.18L16.41,23.18z M9.59,34.398
			c-2.649,0-4.801-2.152-4.801-4.796c0-2.649,2.152-4.801,4.801-4.801c2.644,0,4.801,2.152,4.801,4.801
			C14.391,32.246,12.234,34.398,9.59,34.398L9.59,34.398z M9.59,34.398"/>
	</g>
	<path d="M38.594,19.605l5.168-5.828c2.785-3.136,2.785-8.238,0-11.375C42.387,0.855,40.551,0,38.59,0
		c-1.957,0-3.793,0.855-5.168,2.402c-2.785,3.137-2.785,8.239,0,11.375L38.594,19.605z M38.789,3.199
		c2.426,0,4.399,1.977,4.399,4.403c0,2.425-1.973,4.398-4.399,4.398c-2.426,0-4.398-1.973-4.398-4.398
		C34.391,5.176,36.363,3.199,38.789,3.199L38.789,3.199z M38.789,3.199"/>
</g>
</svg>
