<?xml version="1.0" encoding="utf-8"?>
<!-- Generator: Adobe Illustrator 17.0.0, SVG Export Plug-In . SVG Version: 6.00 Build 0)  -->
<!DOCTYPE svg PUBLIC "-//W3C//DTD SVG 1.1//EN" "http://www.w3.org/Graphics/SVG/1.1/DTD/svg11.dtd">
<svg version="1.1" id="Layer_1" xmlns="http://www.w3.org/2000/svg" xmlns:xlink="http://www.w3.org/1999/xlink" x="0px" y="0px"
	 width="48px" height="48px" viewBox="0 0 48 48" enable-background="new 0 0 48 48" xml:space="preserve">
<circle cx="17.966" cy="11.932" r="1.006"/>
<circle cx="13.943" cy="11.932" r="1.006"/>
<circle cx="21.989" cy="11.932" r="1.006"/>
<path d="M17.161,24.402c-0.302,0.503-3.218,4.928-3.218,7.442c0,2.313,1.81,4.224,4.023,4.224
	s4.023-1.911,4.023-4.224c0-2.514-2.816-6.939-3.218-7.442C18.469,23.899,17.463,23.899,17.161,24.402z M19.977,31.844
	c0,1.207-0.905,2.212-2.011,2.212s-2.011-1.006-2.011-2.212c0-1.106,1.006-3.218,2.011-4.928
	C18.972,28.626,19.977,30.738,19.977,31.844z"/>
<path d="M45.823,14.245l-5.028-5.028c-0.402-0.402-1.006-0.402-1.408,0s-0.402,1.006,0,1.408l2.514,2.514
	c-1.006,0.503-1.81,1.609-1.81,2.816c0,1.71,1.307,3.017,3.017,3.017c0.402,0,0.704-0.101,1.006-0.201v18.303
	c0,1.71-1.307,3.017-3.017,3.017c-1.71,0-3.017-1.307-3.017-3.017V20.983c0-2.816-2.213-5.028-5.028-5.028H31.04V6.903
	c0-2.816-2.213-5.028-5.028-5.028H9.92c-2.816,0-5.028,2.213-5.028,5.028v33.188c-1.71,0-3.017,1.307-3.017,3.017
	c0,1.71,1.307,3.017,3.017,3.017H31.04c1.71,0,3.017-1.307,3.017-3.017c0-1.71-1.307-3.017-3.017-3.017H9.92
	c-0.603,0-1.006,0.402-1.006,1.006c0,0.603,0.402,1.006,1.006,1.006H31.04c0.603,0,1.006,0.402,1.006,1.006
	c0,0.603-0.402,1.006-1.006,1.006H4.892c-0.603,0-1.006-0.402-1.006-1.006c0-0.603,0.402-1.006,1.006-1.006h1.006
	c0.603,0,1.006-0.402,1.006-1.006V6.903c0-1.71,1.307-3.017,3.017-3.017h16.091c1.71,0,3.017,1.307,3.017,3.017v30.17
	c0,0.603,0.402,1.006,1.006,1.006c0.603,0,1.006-0.402,1.006-1.006V17.966h2.011c1.71,0,3.017,1.307,3.017,3.017v16.091
	c0,2.816,2.213,5.028,5.028,5.028c2.816,0,5.028-2.213,5.028-5.028V14.949C46.125,14.647,46.024,14.446,45.823,14.245z
	 M43.108,16.96c-0.603,0-1.006-0.402-1.006-1.006s0.402-1.006,1.006-1.006c0.603,0,1.006,0.402,1.006,1.006
	S43.711,16.96,43.108,16.96z"/>
<path d="M27.017,16.96V6.903c0-0.603-0.402-1.006-1.006-1.006H9.92c-0.603,0-1.006,0.402-1.006,1.006V16.96
	c0,0.603,0.402,1.006,1.006,1.006h16.091C26.615,17.966,27.017,17.564,27.017,16.96z M25.006,15.955h-14.08V7.909h14.08V15.955z"/>
</svg>
