<?xml version="1.0" encoding="utf-8"?>
<!-- Generator: Adobe Illustrator 17.0.0, SVG Export Plug-In . SVG Version: 6.00 Build 0)  -->
<!DOCTYPE svg PUBLIC "-//W3C//DTD SVG 1.1//EN" "http://www.w3.org/Graphics/SVG/1.1/DTD/svg11.dtd">
<svg version="1.1" id="Layer_1" xmlns="http://www.w3.org/2000/svg" xmlns:xlink="http://www.w3.org/1999/xlink" x="0px" y="0px"
	 width="48px" height="48px" viewBox="0 0 48 48" enable-background="new 0 0 48 48" xml:space="preserve">
<path d="M31.383,5.123c-1.397,0-2.529,1.132-2.529,2.529s1.132,2.529,2.529,2.529c1.397,0,2.529-1.132,2.529-2.529
	S32.779,5.123,31.383,5.123z M31.383,8.648c-0.55,0-0.995-0.446-0.995-0.995s0.446-0.995,0.995-0.995s0.995,0.446,0.995,0.995
	S31.932,8.648,31.383,8.648z"/>
<path d="M31.383,14.411c-1.397,0-2.529,1.132-2.529,2.529c0,1.397,1.132,2.529,2.529,2.529
	c1.397,0,2.529-1.132,2.529-2.529C33.912,15.544,32.779,14.411,31.383,14.411z M31.383,17.936c-0.55,0-0.995-0.446-0.995-0.995
	c0-0.55,0.446-0.995,0.995-0.995s0.995,0.446,0.995,0.995C32.378,17.49,31.932,17.936,31.383,17.936z"/>
<circle cx="26.027" cy="7.639" r="0.857"/>
<circle cx="22.557" cy="7.639" r="0.857"/>
<path d="M7.838,7.639c0,0.473,0.384,0.857,0.857,0.857h10.339c0.473,0,0.857-0.384,0.857-0.857l0,0
	c0-0.473-0.384-0.857-0.857-0.857H8.694C8.221,6.782,7.838,7.165,7.838,7.639L7.838,7.639z"/>
<circle cx="26.027" cy="16.94" r="0.857"/>
<circle cx="22.557" cy="16.94" r="0.857"/>
<path d="M7.838,16.94c0,0.473,0.384,0.857,0.857,0.857h10.339c0.473,0,0.857-0.384,0.857-0.857l0,0
	c0-0.473-0.384-0.857-0.857-0.857H8.694C8.221,16.084,7.838,16.467,7.838,16.94L7.838,16.94z"/>
<circle cx="26.027" cy="26.284" r="0.857"/>
<circle cx="22.557" cy="26.284" r="0.857"/>
<path d="M7.838,26.284c0,0.473,0.384,0.857,0.857,0.857h10.339c0.473,0,0.857-0.384,0.857-0.857l0,0
	c0-0.473-0.384-0.857-0.857-0.857H8.694C8.221,25.427,7.838,25.811,7.838,26.284L7.838,26.284z"/>
<path d="M3.608,41.678c0,0.473,0.384,0.857,0.857,0.857h10.339c0.473,0,0.857-0.384,0.857-0.857l0,0
	c0-0.473-0.384-0.857-0.857-0.857H4.465C3.992,40.821,3.608,41.204,3.608,41.678L3.608,41.678z"/>
<path d="M35.579,12.34c0.286-0.188,2.598-1.787,2.5-4.335c-0.104-2.716-1.348-4.727-4.685-5.598
	c-12.253,0-25.273,0-25.273,0S3.4,3.112,3.415,7.639c0.013,3.859,2.488,4.72,2.488,4.72S6.06,12.38,6.32,12.415
	c-1.626,0.55-2.92,2.04-2.905,4.484c0.021,3.504,2.156,4.623,2.156,4.623l0.477,0.249l2.218,0.809c0,0,22.598,0,24.091,0
	c1.493,0,1.679,0.166,2.177,0.518c0.498,0.352,1.285,0.974,1.866,0.29c0.581-0.684-0.809-1.742-0.809-1.742s2.529-0.85,2.488-4.582
	C38.049,14.347,36.448,12.917,35.579,12.34z M5.004,7.838c0-3.392,2.875-3.779,4.285-3.807c1.41-0.028,23.939,0,23.939,0
	s3.188,0.368,3.207,3.981c0,1.106-1.272,3.594-3.925,3.621s-24.105,0-24.105,0S5.004,11.231,5.004,7.838z M33.041,20.921
	c-14.243,0-25.024,0-25.024,0S4.97,20.175,4.97,17.127s2.716-3.835,3.939-3.815c1.907,0,24.485,0.021,24.485,0.021
	s3.048,0.622,3.027,3.918C36.4,20.548,33.041,20.921,33.041,20.921z"/>
<path d="M25.322,31.868c0,0,0.622-0.028,0.622-0.802c0-1.05-0.788-0.912-1.838-0.857c-1.05,0.055-14.264,0-14.264,0
	H8.211c0,0-3.234-0.691-3.234-3.704s2.875-4.285,4.174-3.925c1.769-0.166,2.377-0.304,1.769-0.47
	c-0.608-0.166-3.207-0.442-3.207-0.442l-1.665,0.104c0,0-2.73,1.168-2.674,4.54c0.055,3.372,2.322,5.501,5.805,5.556
	C12.799,31.868,25.322,31.868,25.322,31.868z"/>
<path d="M35.964,29.877c-2.84,0-5.142,2.302-5.142,5.142c0,2.84,2.302,5.142,5.142,5.142s5.142-2.302,5.142-5.142
	C41.106,32.179,38.804,29.877,35.964,29.877z M35.964,38.64c-2,0-3.621-1.621-3.621-3.621s1.621-3.621,3.621-3.621
	s3.621,1.621,3.621,3.621S37.964,38.64,35.964,38.64z"/>
<path d="M20.695,38.523c-1.746,0-3.162,1.416-3.162,3.162c0,1.746,1.416,3.162,3.162,3.162
	c1.746,0,3.162-1.416,3.162-3.162C23.857,39.938,22.441,38.523,20.695,38.523z M20.695,43.353c-0.922,0-1.669-0.747-1.669-1.669
	s0.747-1.669,1.669-1.669c0.922,0,1.669,0.747,1.669,1.669S21.617,43.353,20.695,43.353z"/>
<path d="M21.514,38.875c0,0.469-0.381,0.85-0.85,0.85l0,0c-0.469,0-0.85-0.381-0.85-0.85v-4.416
	c0-0.469,0.381-0.85,0.85-0.85l0,0c0.469,0,0.85,0.381,0.85,0.85V38.875z"/>
<path d="M23.421,42.534c-0.469,0-0.85-0.381-0.85-0.85l0,0c0-0.469,0.381-0.85,0.85-0.85h1.783
	c0.469,0,0.85,0.381,0.85,0.85l0,0c0,0.469-0.381,0.85-0.85,0.85H23.421z"/>
<path d="M44.703,32.832c-0.715-0.062-0.736-0.155-0.954-0.56c-0.218-0.404-0.466-1.088-0.466-1.088
	s0.435-0.809,0.612-1.099s0.135-0.715-0.487-1.337c-0.622-0.622-1.317-1.337-1.607-1.586c-0.29-0.249-0.612-0.28-0.954-0.021
	c-0.342,0.259-0.923,0.726-1.472,0.415c-0.549-0.311-1.026-0.29-1.088-0.798c-0.062-0.508-0.218-1.41-0.985-1.451
	c-0.767-0.041-2.726,0-2.726,0s-0.777,0.062-0.809,1.088c-0.021,0.549-0.28,0.757-0.819,0.985s-0.902,0.415-1.358,0.062
	c-0.456-0.352-0.881-0.788-1.472-0.29c-0.591,0.498-1.545,1.503-1.856,1.752c-0.311,0.249-0.587,0.871-0.128,1.368
	c0.46,0.498,0.615,0.736,0.491,1.12s-0.28,1.182-0.85,1.285c-0.57,0.104-1.524,0.332-1.576,1.037c-0.052,0.705,0,2.799,0,2.799
	s0.404,0.736,1.088,0.788c0.684,0.052,0.726,0.062,0.943,0.529c0.218,0.466,0.466,1.068,0.29,1.306
	c-0.176,0.238-1.068,1.151-0.218,2.052c0.85,0.902,1.845,1.742,1.845,1.742s0.446,0.394,1.109-0.073s0.746-0.674,1.41-0.321
	s1.026,0.394,1.026,0.86s0.124,1.389,0.974,1.41s2.654,0,2.654,0s0.726-0.083,0.798-0.695s-0.031-1.068,0.663-1.389
	c0.695-0.321,0.881-0.549,1.254-0.301c0.373,0.249,1.317,0.957,1.762,0.536c0.446-0.422,1.607-1.52,1.897-1.862
	s0.529-0.891,0.073-1.462c-0.456-0.57-0.705-0.788-0.404-1.182c0.301-0.394,0.466-0.902,0.612-1.047
	c0.145-0.145,1.555,0.052,1.773-0.954v-2.882C45.75,33.568,45.418,32.894,44.703,32.832z M44.091,35.786
	c-0.428-0.021-0.995,0.159-1.396,0.477c-0.401,0.318-0.705,1.451-0.981,2.363c-0.276,0.912,0.581,1.534,0.581,1.534l-1.092,1.147
	c0,0-0.346-0.124-0.788-0.473c-0.442-0.349-0.954-0.066-0.954-0.066s-1.507,0.65-2.059,0.912c-0.553,0.263-0.567,1.451-0.567,1.451
	h-1.686c0,0,0,0-0.014-0.529c-0.014-0.529-0.553-0.978-0.622-1.016c-0.069-0.038-1.617-0.695-2.267-0.929
	c-0.65-0.235-1.479,0.663-1.479,0.663s-0.815-0.774-0.94-0.981c-0.124-0.207-0.097-0.401,0.304-0.829
	c0.401-0.428,0.097-0.988,0.097-0.988s-0.912-2.011-1.037-2.315c-0.124-0.304-1.327-0.422-1.327-0.422V34.19c0,0,0,0,0.387-0.041
	c0.387-0.041,0.871-0.111,1.161-0.677c0.29-0.567,0.774-1.562,0.871-2.225c0.097-0.663-0.65-1.507-0.65-1.507s0,0,1.189-1.023
	c0.636,0.581,1.244,0.608,1.244,0.608c0.663,0,1.783-0.677,2.433-0.981c0.65-0.304,0.65-1.451,0.65-1.451s0,0,1.631,0
	c-0.041,0.995,0.387,1.341,0.387,1.341s1.686,0.829,2.363,1.05c0.677,0.221,1.631-0.539,1.631-0.539l1.078,1.037
	c0,0-0.111,0.276-0.373,0.594c-0.263,0.318-0.152,1.161-0.152,1.161s0.822,1.949,1.113,2.343c0.29,0.394,1.265,0.29,1.265,0.29
	V35.786z"/>
</svg>
