<?xml version="1.0" encoding="utf-8"?>
<!-- Generator: Adobe Illustrator 17.0.0, SVG Export Plug-In . SVG Version: 6.00 Build 0)  -->
<!DOCTYPE svg PUBLIC "-//W3C//DTD SVG 1.1//EN" "http://www.w3.org/Graphics/SVG/1.1/DTD/svg11.dtd">
<svg version="1.1" id="Layer_1" xmlns="http://www.w3.org/2000/svg" xmlns:xlink="http://www.w3.org/1999/xlink" x="0px" y="0px"
	 width="48px" height="48px" viewBox="0 0 48 48" enable-background="new 0 0 48 48" xml:space="preserve">
<path d="M10.921,37.617c3.567,3.681,8.558,5.982,14.085,5.982c10.802,0,19.599-8.797,19.599-19.599c0-10.803-8.797-19.6-19.599-19.6
	c-10.803,0-19.6,8.797-19.6,19.6c0,5.151,2.005,9.845,5.265,13.344C10.739,37.457,10.83,37.538,10.921,37.617L10.921,37.617z
	 M25.006,41.343c-4.262,0-8.182-1.55-11.202-4.113c5.082-1.686,6.962-3.738,7.657-5.105c0.969,0.422,2.051,0.649,3.248,0.661h0.262
	c1.299-0.023,2.473-0.285,3.487-0.775c0.649,1.368,2.495,3.487,7.726,5.219C33.176,39.794,29.267,41.343,25.006,41.343
	L25.006,41.343z M18.67,20.376v-0.068c0.273-5.937,4.649-6.404,5.994-6.404h0.365c1.333,0,5.72,0.467,5.994,6.404v0.068
	c0.012,0.057,0.57,5.55-1.994,8.432c-1.014,1.14-2.37,1.709-4.136,1.721h-0.069c-1.778-0.023-3.123-0.581-4.136-1.721
	C18.111,25.949,18.658,20.433,18.67,20.376L18.67,20.376z M25.006,6.657c9.56,0,17.343,7.783,17.343,17.344
	c0,4.375-1.641,8.387-4.319,11.441c-7.361-2.143-7.646-4.741-7.646-4.775v0.057h-0.079c0.137-0.137,0.273-0.274,0.41-0.422
	c3.134-3.521,2.609-9.549,2.553-10.141c-0.308-6.29-4.627-8.524-8.239-8.524h-0.365c-3.612,0-7.942,2.233-8.239,8.524
	c-0.057,0.581-0.57,6.609,2.553,10.141c0.182,0.205,0.376,0.399,0.57,0.581c-0.239,0.66-1.447,2.757-7.566,4.546
	C9.292,32.375,7.662,28.376,7.662,24C7.662,14.44,15.445,6.657,25.006,6.657L25.006,6.657z M25.006,6.657"/>
</svg>
