<?xml version="1.0" encoding="utf-8"?>
<!-- Generator: Adobe Illustrator 17.0.0, SVG Export Plug-In . SVG Version: 6.00 Build 0)  -->
<!DOCTYPE svg PUBLIC "-//W3C//DTD SVG 1.1//EN" "http://www.w3.org/Graphics/SVG/1.1/DTD/svg11.dtd">
<svg version="1.1" id="Layer_1" xmlns="http://www.w3.org/2000/svg" xmlns:xlink="http://www.w3.org/1999/xlink" x="0px" y="0px"
	 width="48px" height="48px" viewBox="0 0 48 48" enable-background="new 0 0 48 48" xml:space="preserve">
<circle cx="37.391" cy="32.901" r="1.619"/>
<path d="M46.885,24c0,0.449-0.364,0.813-0.813,0.813h-4.625c-0.449,0-0.813-0.364-0.813-0.813l0,0
	c0-0.449,0.364-0.813,0.813-0.813h4.625C46.521,23.188,46.885,23.551,46.885,24L46.885,24z"/>
<g>
	<g>
		<path d="M13.833,32.094c0.151,0.425,0.291,0.807,0.291,0.807l0.438,0.833h17.375l0.188-0.703
			c0,0,0.212-0.46,0.434-0.938h-8.856H13.833z"/>
		<path d="M2.718,31.625v-5.917h16.615v-1.696l-18.178,0.05c0,0,0,0,0,8.031c0.094,1.25,1.56,1.641,1.56,1.641h1.19
			c0,0,0.125-0.609,0.156-0.833c0.016-0.114,0.08-0.442,0.156-0.807H3.578C2.625,32.078,2.718,31.625,2.718,31.625z"/>
		<path d="M47.239,20.417c-0.063-1.667-0.354-1.896-0.354-1.896s-5.917-6.563-7.167-7.896s-2.354-1.104-2.354-1.104
			s-0.083,0-7.542,0c-1.291,0.115-1.747,0.926-1.91,1.537v14.65h1.493c0,0,0-13.125,0-13.833s0.688-0.75,0.688-0.75h1.667
			c0,0,0.005,6.422,0.036,8.021c0.031,1.599,1.375,1.729,1.375,1.729H45.5v3.938c0,0,0.016,6.516,0,6.891s-0.203,0.391-0.203,0.391
			h-3.188c0.168,0.657,0.359,1.469,0.359,1.469l0.609,0.172c0,0,0-0.078,2.429-0.078c1.616-0.156,1.733-1.781,1.733-1.781
			S47.302,22.083,47.239,20.417z M33.427,19.146v-8.021c0,0,3,0.021,3.833,0s1.333,0.708,1.333,0.708l6.604,7.313H33.427z"/>
	</g>
</g>
<path d="M37.391,27.276c-3.107,0-5.625,2.518-5.625,5.625c0,3.107,2.518,5.625,5.625,5.625s5.625-2.518,5.625-5.625
	C43.016,29.794,40.498,27.276,37.391,27.276z M37.391,37.068c-2.301,0-4.167-1.865-4.167-4.167c0-2.301,1.865-4.167,4.167-4.167
	s4.167,1.865,4.167,4.167C41.558,35.202,39.693,37.068,37.391,37.068z"/>
<path d="M9.394,27.276c-3.107,0-5.625,2.518-5.625,5.625c0,3.107,2.518,5.625,5.625,5.625s5.625-2.518,5.625-5.625
	C15.019,29.794,12.5,27.276,9.394,27.276z M9.394,37.068c-2.301,0-4.167-1.865-4.167-4.167c0-2.301,1.865-4.167,4.167-4.167
	s4.167,1.865,4.167,4.167C13.56,35.202,11.695,37.068,9.394,37.068z"/>
<g>
	<path d="M14.827,13.86c-0.253,0-0.421,0.169-0.421,0.421v3.034c0,0.253,0.169,0.421,0.421,0.421c0.253,0,0.421-0.169,0.421-0.421
		v-3.034C15.248,14.028,15.08,13.86,14.827,13.86L14.827,13.86z M14.827,13.86"/>
	<g>
		<path d="M15.08,19.168c-0.169-0.169-0.421-0.169-0.59,0c-0.084,0.084-0.084,0.253-0.084,0.337c0,0.168,0,0.253,0.084,0.337
			c0.084,0.084,0.253,0.084,0.337,0.084c0.084,0,0.253,0,0.169-0.084c0.084-0.084,0.168-0.253,0.168-0.337
			C15.164,19.337,15.164,19.253,15.08,19.168L15.08,19.168z M15.08,19.168"/>
		<path d="M21.653,19.253l-4.972-8.679c-0.337-0.674-1.095-1.095-1.854-1.095c-0.758,0-1.432,0.421-1.854,1.095l-4.972,8.679
			c-0.421,0.674-0.421,1.517,0,2.191c0.337,0.674,1.095,1.095,1.854,1.095h9.943c0.843,0,1.517-0.421,1.854-1.095
			C22.074,20.769,22.074,19.927,21.653,19.253L21.653,19.253z M20.978,21.107c-0.169,0.421-0.59,0.674-1.095,0.674H9.856
			c-0.421,0-0.843-0.253-1.095-0.674c-0.253-0.421-0.253-0.927,0-1.348l4.971-8.679c0.169-0.421,0.59-0.674,1.095-0.674
			c0.506,0,0.927,0.253,1.18,0.674l4.972,8.679C21.231,20.18,21.231,20.685,20.978,21.107L20.978,21.107z M20.978,21.107"/>
	</g>
</g>
<path d="M8.391,32.947c0,0.453,0.369,0.822,0.822,0.822c0.453,0,0.822-0.369,0.822-0.822s-0.369-0.822-0.822-0.822
	C8.76,32.124,8.391,32.493,8.391,32.947z M9.213,32.39c0.307,0,0.557,0.25,0.557,0.557s-0.25,0.557-0.557,0.557
	c-0.307,0-0.557-0.25-0.557-0.557S8.906,32.39,9.213,32.39z"/>
<path d="M7.383,32.947v0.005c0,0.073,0.059,0.133,0.133,0.133s0.133-0.059,0.133-0.133v-0.005
	c0-0.073-0.059-0.133-0.133-0.133S7.383,32.873,7.383,32.947z"/>
<path d="M7.494,32.318c-0.025,0.069,0.01,0.145,0.079,0.17c0.015,0.005,0.03,0.008,0.046,0.008
	c0.054,0,0.105-0.033,0.125-0.087c0.171-0.468,0.559-0.829,1.037-0.966c0.07-0.02,0.111-0.094,0.091-0.164
	c-0.02-0.07-0.094-0.111-0.164-0.091c-0.08,0.023-0.158,0.052-0.234,0.085c0.003-0.011,0.005-0.022,0.005-0.034l0-0.012
	c0.001-0.073-0.057-0.134-0.13-0.135c-0.001,0-0.002,0-0.003,0c-0.072,0-0.131,0.058-0.133,0.13l0,0.014
	c-0.001,0.058,0.035,0.107,0.087,0.126C7.932,31.574,7.643,31.911,7.494,32.318z"/>
<path d="M12.781,32.622c-0.056-0.62-0.275-1.218-0.632-1.728c-0.042-0.06-0.125-0.074-0.185-0.032
	c-0.06,0.042-0.074,0.125-0.032,0.185c0.331,0.472,0.534,1.025,0.585,1.599c0.004,0.044-0.01,0.086-0.04,0.118
	c-0.029,0.032-0.069,0.05-0.113,0.05h-1.4c-0.075,0-0.139-0.054-0.151-0.127c-0.112-0.689-0.651-1.227-1.34-1.338
	c-0.074-0.012-0.128-0.075-0.128-0.151v-1.4c0-0.043,0.018-0.083,0.05-0.113c0.032-0.03,0.074-0.044,0.118-0.04
	c0.599,0.054,1.173,0.271,1.659,0.627c0.059,0.043,0.142,0.031,0.185-0.029s0.031-0.142-0.029-0.185
	c-0.525-0.385-1.145-0.619-1.792-0.677c-0.117-0.01-0.234,0.029-0.321,0.108c-0.072,0.066-0.119,0.155-0.132,0.251
	c-0.809,0.032-1.565,0.361-2.141,0.937c-0.606,0.606-0.94,1.412-0.94,2.269s0.334,1.663,0.94,2.269
	c0.606,0.606,1.412,0.94,2.269,0.94c1.463,0,2.74-0.988,3.107-2.402c0.018-0.071-0.024-0.143-0.095-0.162
	c-0.071-0.018-0.143,0.024-0.162,0.095c-0.036,0.138-0.081,0.271-0.135,0.4c-0.023-0.048-0.074-0.079-0.13-0.075
	c-0.073,0.006-0.128,0.07-0.122,0.143l0.001,0.012c0.005,0.07,0.063,0.123,0.132,0.123c0.003,0,0.006,0,0.009,0
	c0.005,0,0.011-0.001,0.016-0.002c-0.495,0.968-1.499,1.602-2.622,1.602c-0.954,0-1.804-0.457-2.342-1.163c0.002,0,0.004,0,0.007,0
	c0.05,0,0.097-0.028,0.12-0.076c0.031-0.066,0.003-0.145-0.063-0.177l-0.011-0.005c-0.066-0.032-0.145-0.005-0.177,0.061
	c-0.002,0.004-0.004,0.008-0.005,0.012c-0.298-0.46-0.472-1.009-0.472-1.597c0-1.579,1.249-2.871,2.811-2.941v1.192
	c0,0.206,0.147,0.38,0.351,0.413c0.576,0.093,1.027,0.543,1.121,1.119c0.022,0.136,0.108,0.247,0.224,0.305
	c-0.046,0.822-0.729,1.477-1.562,1.477c-0.644,0-1.215-0.387-1.454-0.985c-0.027-0.068-0.104-0.101-0.172-0.074
	c-0.068,0.027-0.101,0.104-0.074,0.172c0.134,0.336,0.363,0.623,0.662,0.829c0.306,0.211,0.665,0.323,1.038,0.323
	c0.964,0,1.757-0.75,1.825-1.697h0.235c-0.015,0.008-0.029,0.018-0.041,0.032c-0.048,0.055-0.042,0.139,0.013,0.187
	c0.003,0.003,0.006,0.005,0.009,0.008c0.025,0.022,0.057,0.034,0.088,0.034c0.037,0,0.073-0.015,0.099-0.044
	c0.049-0.055,0.044-0.139-0.011-0.187c-0.004-0.003-0.007-0.007-0.011-0.01c-0.009-0.008-0.018-0.014-0.028-0.018h0.973
	c0.117,0,0.23-0.05,0.309-0.136C12.753,32.856,12.792,32.74,12.781,32.622z"/>
<path d="M11.61,30.655c0.026,0.027,0.061,0.041,0.096,0.041c0.033,0,0.066-0.012,0.092-0.037
	c0.053-0.051,0.055-0.135,0.004-0.187l-0.004-0.004c-0.051-0.053-0.135-0.054-0.188-0.003c-0.053,0.051-0.054,0.135-0.003,0.188
	L11.61,30.655z"/>
<path d="M9.934,30.11c-0.151,0.062-0.268,0.18-0.33,0.33c-0.062,0.151-0.062,0.316,0,0.467
	c0.062,0.151,0.18,0.268,0.33,0.33c0.075,0.031,0.154,0.047,0.233,0.047c0.079,0,0.158-0.016,0.233-0.047
	c0.151-0.062,0.268-0.18,0.33-0.33c0.129-0.311-0.019-0.668-0.33-0.797C10.25,30.047,10.084,30.047,9.934,30.11z M10.486,30.805
	c-0.035,0.085-0.101,0.151-0.187,0.187c-0.085,0.035-0.179,0.035-0.264,0c-0.085-0.035-0.151-0.101-0.187-0.187
	c-0.035-0.085-0.035-0.179,0-0.264c0.035-0.085,0.101-0.151,0.187-0.187c0.043-0.018,0.087-0.026,0.132-0.026
	c0.045,0,0.089,0.009,0.132,0.026C10.475,30.428,10.558,30.63,10.486,30.805z"/>
<path d="M10.926,32.255c0.097,0.235,0.325,0.376,0.564,0.376c0.078,0,0.157-0.015,0.233-0.046
	c0.15-0.062,0.268-0.18,0.33-0.33c0.062-0.151,0.062-0.316,0-0.467c-0.062-0.151-0.18-0.268-0.33-0.33
	c-0.15-0.062-0.316-0.062-0.467,0C10.945,31.587,10.797,31.944,10.926,32.255z M11.489,31.677c0.045,0,0.089,0.009,0.132,0.026
	c0.085,0.035,0.151,0.101,0.187,0.187c0.035,0.085,0.035,0.179,0,0.264c-0.035,0.085-0.101,0.151-0.187,0.187v0
	c-0.176,0.073-0.378-0.011-0.45-0.187c-0.073-0.176,0.011-0.378,0.187-0.45C11.4,31.686,11.445,31.677,11.489,31.677z"/>
<path d="M10.422,33.078c0.034,0,0.068-0.013,0.094-0.039l0.002-0.002c0.052-0.052,0.052-0.136,0-0.188
	c-0.052-0.052-0.136-0.052-0.188,0l-0.002,0.002c-0.052,0.052-0.052,0.136,0,0.188C10.354,33.065,10.388,33.078,10.422,33.078z"/>
<path d="M9.121,34.059c-0.052,0.052-0.052,0.136,0,0.188l0.002,0.002c0.026,0.026,0.06,0.039,0.094,0.039
	c0.034,0,0.068-0.013,0.094-0.039c0.052-0.052,0.052-0.136,0-0.188l-0.002-0.002C9.257,34.007,9.173,34.007,9.121,34.059z"/>
<path d="M7.914,32.852l-0.002,0.002c-0.052,0.052-0.052,0.136-0.001,0.188c0.026,0.026,0.06,0.039,0.094,0.039
	c0.034,0,0.068-0.013,0.093-0.038l0.002-0.002c0.052-0.052,0.052-0.136,0.001-0.188C8.05,32.8,7.966,32.8,7.914,32.852z"/>
<path d="M9.215,31.871c0.034,0,0.067-0.013,0.093-0.038c0.052-0.051,0.053-0.135,0.001-0.188l-0.002-0.002
	c-0.051-0.052-0.135-0.053-0.188-0.001c-0.052,0.051-0.053,0.135-0.001,0.188l0.002,0.002C9.146,31.858,9.181,31.871,9.215,31.871z"
	/>
<path d="M10.071,33.667l-0.002,0c-0.073-0.001-0.133,0.059-0.133,0.132s0.059,0.133,0.132,0.133l0.002,0
	c0,0,0,0,0.001,0c0.073,0,0.132-0.059,0.133-0.132C10.204,33.727,10.145,33.667,10.071,33.667z"/>
<path d="M8.361,33.934c0.073,0,0.133-0.059,0.133-0.133v-0.002c0-0.073-0.059-0.133-0.133-0.133
	c-0.073,0-0.133,0.059-0.133,0.133v0.002C8.229,33.875,8.288,33.934,8.361,33.934z"/>
<path d="M8.358,32.225l0.002,0c0,0,0,0,0.001,0c0.073,0,0.132-0.059,0.133-0.132c0-0.073-0.059-0.133-0.132-0.133
	l-0.002,0c0,0,0,0-0.001,0c-0.073,0-0.132,0.059-0.133,0.132C8.226,32.165,8.285,32.225,8.358,32.225z"/>
<path d="M10.068,31.957c-0.073,0-0.133,0.059-0.133,0.133v0.002c0,0.073,0.059,0.133,0.133,0.133
	c0.073,0,0.133-0.059,0.133-0.133V32.09C10.201,32.017,10.142,31.957,10.068,31.957z"/>
<path d="M11.604,33.506c-0.065,0.033-0.092,0.113-0.059,0.178l0.006,0.011c0.023,0.047,0.07,0.074,0.119,0.074
	c0.02,0,0.04-0.004,0.059-0.014c0.066-0.032,0.093-0.112,0.06-0.178l-0.006-0.013C11.749,33.5,11.67,33.473,11.604,33.506z"/>
<path d="M8.852,30.355l0.009-0.009c0.052-0.051,0.053-0.135,0.002-0.188c-0.051-0.052-0.135-0.053-0.188-0.002
	l-0.01,0.01c-0.052,0.052-0.052,0.136-0.001,0.188c0.026,0.026,0.06,0.039,0.094,0.039C8.793,30.393,8.827,30.38,8.852,30.355z"/>
<path d="M8.405,30.83c0.017,0.007,0.034,0.011,0.052,0.011c0.052,0,0.101-0.03,0.122-0.081l0.005-0.011
	c0.029-0.067-0.002-0.145-0.069-0.174c-0.067-0.029-0.145,0.002-0.174,0.069c-0.002,0.004-0.004,0.009-0.006,0.013
	C8.306,30.724,8.337,30.802,8.405,30.83z"/>
<path d="M7.893,34.531l-0.011,0.004c-0.069,0.023-0.107,0.098-0.084,0.168c0.019,0.056,0.07,0.091,0.126,0.091
	c0.014,0,0.028-0.002,0.042-0.007l0.014-0.005c0.069-0.024,0.106-0.099,0.082-0.169C8.038,34.544,7.963,34.507,7.893,34.531z"/>
<path d="M7.256,34.72c-0.005,0.073,0.05,0.136,0.123,0.141c0.005,0,0.01,0.001,0.015,0.001c0.003,0,0.005,0,0.008,0
	c0.07,0,0.128-0.055,0.132-0.125c0.004-0.073-0.052-0.136-0.125-0.14c-0.004,0-0.008,0-0.012-0.001
	C7.324,34.592,7.261,34.647,7.256,34.72z"/>
<path d="M20.172,26.894c-0.204,0-0.37,0.166-0.37,0.37c0,0.204,0.166,0.37,0.37,0.37c0.204,0,0.37-0.166,0.37-0.37
	C20.543,27.06,20.377,26.894,20.172,26.894z M20.172,27.417c-0.084,0-0.152-0.068-0.152-0.152c0-0.084,0.068-0.152,0.152-0.152
	c0.084,0,0.152,0.068,0.152,0.152C20.325,27.348,20.257,27.417,20.172,27.417z"/>
<path d="M17.494,29.398c-0.3,0-0.544,0.244-0.544,0.544s0.244,0.544,0.544,0.544s0.544-0.244,0.544-0.544
	S17.794,29.398,17.494,29.398z M17.494,30.269c-0.18,0-0.327-0.147-0.327-0.327c0-0.18,0.147-0.327,0.327-0.327
	c0.18,0,0.327,0.147,0.327,0.327C17.821,30.123,17.674,30.269,17.494,30.269z"/>
<path d="M17.494,29.235c0.18,0,0.327-0.147,0.327-0.327c0-0.18-0.147-0.327-0.327-0.327
	c-0.18,0-0.327,0.147-0.327,0.327C17.167,29.088,17.314,29.235,17.494,29.235z M17.494,28.799c0.06,0,0.109,0.049,0.109,0.109
	c0,0.06-0.049,0.109-0.109,0.109c-0.06,0-0.109-0.049-0.109-0.109C17.385,28.848,17.434,28.799,17.494,28.799z"/>
<path d="M17.494,30.65c-0.18,0-0.327,0.147-0.327,0.327c0,0.18,0.147,0.327,0.327,0.327
	c0.18,0,0.327-0.147,0.327-0.327C17.821,30.797,17.674,30.65,17.494,30.65z M17.494,31.086c-0.06,0-0.109-0.049-0.109-0.109
	c0-0.06,0.049-0.109,0.109-0.109c0.06,0,0.109,0.049,0.109,0.109C17.603,31.037,17.554,31.086,17.494,31.086z"/>
<path d="M18.528,29.616c-0.18,0-0.327,0.147-0.327,0.327c0,0.18,0.147,0.327,0.327,0.327
	c0.18,0,0.327-0.147,0.327-0.327C18.855,29.762,18.709,29.616,18.528,29.616z M18.528,30.051c-0.06,0-0.109-0.049-0.109-0.109
	c0-0.06,0.049-0.109,0.109-0.109c0.06,0,0.109,0.049,0.109,0.109C18.637,30.003,18.588,30.051,18.528,30.051z"/>
<path d="M16.46,29.616c-0.18,0-0.327,0.147-0.327,0.327c0,0.18,0.147,0.327,0.327,0.327
	c0.18,0,0.327-0.147,0.327-0.327C16.786,29.762,16.64,29.616,16.46,29.616z M16.46,30.051c-0.06,0-0.109-0.049-0.109-0.109
	c0-0.06,0.049-0.109,0.109-0.109c0.06,0,0.109,0.049,0.109,0.109C16.568,30.003,16.52,30.051,16.46,30.051z"/>
<path d="M18.178,29.367C18.178,29.367,18.178,29.367,18.178,29.367c0.06,0,0.109-0.049,0.109-0.109v-0.002
	c0-0.06-0.048-0.109-0.109-0.109c0,0,0,0,0,0c-0.06,0-0.109,0.049-0.109,0.109v0.002C18.069,29.318,18.117,29.367,18.178,29.367z"/>
<path d="M18.18,30.518h-0.002c0,0,0,0,0,0c-0.06,0-0.109,0.049-0.109,0.109c0,0.06,0.048,0.109,0.109,0.109h0.002
	c0,0,0,0,0,0c0.06,0,0.109-0.049,0.109-0.109C18.289,30.567,18.24,30.518,18.18,30.518z"/>
<path d="M16.81,30.518C16.81,30.518,16.81,30.518,16.81,30.518c-0.06,0-0.109,0.049-0.109,0.109v0.002
	c0,0.06,0.048,0.109,0.109,0.109c0,0,0,0,0,0c0.06,0,0.109-0.049,0.109-0.109v-0.002C16.919,30.567,16.87,30.518,16.81,30.518z"/>
<path d="M16.81,29.15h-0.002c0,0,0,0,0,0c-0.06,0-0.109,0.049-0.109,0.109c0,0.06,0.048,0.109,0.109,0.109h0.002
	c0,0,0,0,0,0c0.06,0,0.109-0.049,0.109-0.109C16.919,29.199,16.87,29.15,16.81,29.15z"/>
<path d="M18.236,27.495c0.02,0,0.041-0.006,0.059-0.017l0.004-0.003c0.051-0.033,0.065-0.1,0.033-0.15
	c-0.033-0.051-0.1-0.065-0.15-0.033l-0.004,0.003c-0.051,0.033-0.065,0.1-0.033,0.15C18.166,27.477,18.201,27.495,18.236,27.495z"/>
<path d="M19.874,29.475c-0.051-0.032-0.118-0.018-0.15,0.033l-0.381,0.593c-0.005-0.024-0.018-0.045-0.037-0.061
	l-0.088-0.074c0-0.008,0-0.016,0-0.023c0-0.008,0-0.015,0-0.023l0.088-0.074c0.028-0.023,0.042-0.059,0.039-0.095
	c-0.007-0.066-0.017-0.132-0.031-0.198c-0.008-0.036-0.032-0.065-0.066-0.078l-0.106-0.043c-0.005-0.015-0.009-0.03-0.014-0.045
	l0.061-0.097c0.019-0.031,0.022-0.069,0.007-0.102c-0.027-0.061-0.058-0.121-0.091-0.178c-0.018-0.031-0.051-0.052-0.087-0.054
	l-0.115-0.008c-0.009-0.013-0.018-0.025-0.027-0.038l0.028-0.111c0.009-0.035,0-0.072-0.025-0.099
	c-0.045-0.05-0.092-0.097-0.142-0.142c-0.027-0.024-0.064-0.033-0.099-0.025l-0.111,0.028c-0.012-0.009-0.025-0.018-0.038-0.027
	l-0.008-0.115c-0.002-0.036-0.023-0.069-0.054-0.087c-0.057-0.033-0.117-0.064-0.178-0.091c-0.033-0.015-0.071-0.012-0.102,0.007
	l-0.097,0.061c-0.015-0.005-0.03-0.01-0.045-0.014l-0.043-0.106c-0.013-0.034-0.043-0.058-0.078-0.066
	c-0.066-0.014-0.132-0.024-0.198-0.031c-0.036-0.004-0.072,0.011-0.095,0.039l-0.074,0.088c-0.016,0-0.031,0-0.046,0l-0.074-0.088
	c-0.016-0.019-0.038-0.032-0.061-0.037l0.592-0.38c0.051-0.032,0.065-0.1,0.033-0.15c-0.033-0.051-0.1-0.065-0.15-0.033
	l-1.253,0.805c0,0,0,0,0,0c-0.029,0.019-0.048,0.05-0.05,0.084L16.5,28.535c-0.013,0.009-0.025,0.018-0.038,0.027l-0.111-0.028
	c-0.035-0.009-0.072,0-0.099,0.025c-0.05,0.045-0.097,0.092-0.142,0.142c-0.024,0.027-0.033,0.064-0.025,0.099l0.028,0.111
	c-0.009,0.012-0.018,0.025-0.027,0.038l-0.115,0.008c-0.036,0.002-0.069,0.023-0.087,0.054c-0.033,0.057-0.064,0.117-0.091,0.178
	c-0.015,0.033-0.012,0.071,0.007,0.102l0.061,0.097c-0.005,0.015-0.01,0.03-0.014,0.045l-0.106,0.043
	c-0.034,0.013-0.058,0.043-0.066,0.078c-0.014,0.066-0.024,0.132-0.031,0.198c-0.004,0.036,0.011,0.072,0.039,0.095l0.088,0.074
	c0,0.008,0,0.016,0,0.023c0,0.008,0,0.015,0,0.023l-0.088,0.074c-0.028,0.023-0.042,0.059-0.039,0.095
	c0.007,0.066,0.017,0.132,0.031,0.198c0.008,0.036,0.032,0.065,0.066,0.078l0.106,0.043c0.005,0.015,0.009,0.03,0.014,0.045
	l-0.061,0.097c-0.019,0.031-0.022,0.069-0.007,0.102c0.027,0.061,0.058,0.121,0.091,0.178c0.018,0.031,0.051,0.052,0.087,0.054
	l0.115,0.008c0.009,0.013,0.018,0.025,0.027,0.038l-0.028,0.111c-0.009,0.035,0,0.072,0.025,0.099
	c0.045,0.05,0.092,0.097,0.142,0.142c0.027,0.024,0.064,0.033,0.099,0.025l0.111-0.028c0.012,0.009,0.025,0.018,0.038,0.027
	l0.008,0.115c0.002,0.036,0.023,0.069,0.054,0.087c0.057,0.033,0.117,0.064,0.178,0.091c0.033,0.015,0.071,0.012,0.102-0.007
	l0.097-0.061c0.015,0.005,0.03,0.01,0.045,0.014l0.043,0.106c0.013,0.034,0.043,0.058,0.078,0.066
	c0.066,0.014,0.132,0.024,0.198,0.031c0.036,0.004,0.072-0.011,0.095-0.039l0.074-0.088c0.016,0,0.031,0,0.046,0l0.074,0.088
	c0.021,0.025,0.052,0.039,0.084,0.039c0.004,0,0.007,0,0.011-0.001c0.066-0.007,0.132-0.017,0.198-0.031
	c0.036-0.008,0.065-0.032,0.078-0.066l0.043-0.106c0.015-0.005,0.03-0.009,0.045-0.014l0.097,0.061
	c0.031,0.019,0.069,0.022,0.102,0.007c0.061-0.027,0.121-0.058,0.178-0.091c0.031-0.018,0.052-0.051,0.054-0.087l0.008-0.115
	c0.013-0.009,0.025-0.018,0.038-0.027l0.111,0.028c0.035,0.009,0.072,0,0.099-0.025c0.05-0.045,0.097-0.092,0.142-0.142
	c0.024-0.027,0.033-0.064,0.025-0.099l-0.028-0.111c0.009-0.012,0.018-0.025,0.027-0.038l0.115-0.008
	c0.035-0.002,0.066-0.021,0.084-0.05c0,0,0,0,0,0l0.805-1.254C19.939,29.575,19.924,29.507,19.874,29.475z M18.835,30.723
	c-0.034,0.002-0.065,0.02-0.084,0.049c-0.025,0.038-0.052,0.075-0.08,0.11c-0.021,0.027-0.029,0.062-0.02,0.095l0.027,0.105
	c-0.014,0.015-0.029,0.03-0.044,0.044l-0.105-0.027c-0.033-0.008-0.068-0.001-0.095,0.02c-0.035,0.028-0.072,0.055-0.11,0.08
	c-0.028,0.019-0.046,0.05-0.049,0.084l-0.007,0.108c-0.018,0.01-0.037,0.019-0.055,0.028l-0.092-0.058
	c-0.029-0.018-0.064-0.022-0.096-0.01c-0.042,0.016-0.086,0.03-0.13,0.042c-0.033,0.009-0.06,0.033-0.072,0.065l-0.04,0.101
	c-0.02,0.004-0.041,0.007-0.061,0.01l-0.07-0.084c-0.021-0.025-0.051-0.039-0.084-0.039c-0.002,0-0.003,0-0.005,0
	c-0.049,0.002-0.088,0.002-0.136,0c-0.034-0.001-0.067,0.013-0.088,0.039l-0.07,0.084c-0.02-0.003-0.041-0.006-0.061-0.01
	l-0.04-0.101c-0.013-0.032-0.039-0.056-0.072-0.065c-0.044-0.012-0.087-0.026-0.13-0.042c-0.032-0.012-0.068-0.008-0.096,0.01
	l-0.092,0.058c-0.019-0.009-0.037-0.018-0.055-0.028l-0.007-0.108c-0.002-0.034-0.02-0.065-0.049-0.084
	c-0.038-0.025-0.075-0.052-0.11-0.08c-0.027-0.021-0.062-0.029-0.095-0.02l-0.105,0.027c-0.015-0.014-0.03-0.029-0.044-0.044
	l0.027-0.105c0.008-0.033,0.001-0.068-0.02-0.095c-0.028-0.035-0.055-0.072-0.08-0.11c-0.019-0.028-0.05-0.046-0.084-0.049
	l-0.108-0.007c-0.01-0.018-0.019-0.037-0.028-0.055l0.058-0.092c0.018-0.029,0.022-0.064,0.01-0.096
	c-0.016-0.042-0.03-0.086-0.042-0.13c-0.009-0.033-0.033-0.06-0.065-0.072l-0.101-0.04c-0.004-0.02-0.007-0.041-0.01-0.061
	l0.084-0.07c0.026-0.022,0.041-0.054,0.039-0.088c-0.001-0.024-0.002-0.047-0.002-0.068c0-0.021,0.001-0.044,0.002-0.068
	c0.002-0.034-0.013-0.067-0.039-0.088l-0.084-0.07c0.003-0.02,0.006-0.041,0.01-0.061l0.101-0.04
	c0.032-0.013,0.056-0.039,0.065-0.072c0.012-0.044,0.026-0.087,0.042-0.13c0.012-0.032,0.008-0.068-0.01-0.096l-0.058-0.092
	c0.009-0.019,0.018-0.037,0.028-0.055l0.108-0.007c0.034-0.002,0.065-0.02,0.084-0.049c0.025-0.038,0.052-0.075,0.08-0.11
	c0.021-0.027,0.029-0.062,0.02-0.095l-0.027-0.105c0.014-0.015,0.029-0.03,0.044-0.044l0.105,0.027
	c0.033,0.008,0.068,0.001,0.095-0.02c0.035-0.028,0.072-0.055,0.11-0.08c0.028-0.019,0.046-0.05,0.049-0.084l0.007-0.108
	c0.018-0.01,0.037-0.019,0.055-0.028l0.092,0.058c0.029,0.018,0.064,0.022,0.096,0.01c0.042-0.016,0.086-0.03,0.13-0.042
	c0.033-0.009,0.06-0.033,0.072-0.065l0.04-0.101c0.02-0.004,0.041-0.007,0.061-0.01l0.07,0.084c0.022,0.026,0.054,0.04,0.088,0.039
	c0.049-0.002,0.088-0.002,0.136,0c0.034,0.001,0.067-0.013,0.088-0.039l0.07-0.084c0.02,0.003,0.041,0.006,0.061,0.01l0.04,0.101
	c0.013,0.032,0.039,0.056,0.072,0.065c0.044,0.012,0.087,0.026,0.13,0.042c0.032,0.012,0.068,0.008,0.096-0.01l0.092-0.058
	c0.019,0.009,0.037,0.018,0.055,0.028l0.007,0.108c0.002,0.034,0.02,0.065,0.049,0.084c0.038,0.025,0.075,0.052,0.11,0.08
	c0.027,0.021,0.062,0.029,0.095,0.02l0.105-0.027c0.015,0.014,0.03,0.029,0.044,0.044l-0.027,0.105
	c-0.008,0.033-0.001,0.068,0.02,0.095c0.028,0.035,0.055,0.072,0.08,0.11c0.019,0.028,0.05,0.046,0.084,0.049l0.108,0.007
	c0.01,0.018,0.019,0.037,0.028,0.055l-0.058,0.092c-0.018,0.029-0.022,0.064-0.01,0.096c0.016,0.042,0.03,0.086,0.042,0.13
	c0.009,0.033,0.033,0.06,0.065,0.072l0.101,0.04c0.004,0.02,0.007,0.041,0.01,0.061l-0.084,0.07
	c-0.026,0.022-0.041,0.054-0.039,0.088C18.999,29.899,19,29.921,19,29.943c0,0.021-0.001,0.044-0.002,0.068
	c-0.002,0.034,0.013,0.067,0.039,0.088l0.084,0.07c-0.003,0.02-0.006,0.041-0.01,0.061l-0.101,0.04
	c-0.032,0.013-0.056,0.039-0.065,0.072c-0.012,0.044-0.026,0.087-0.042,0.13c-0.012,0.032-0.008,0.068,0.01,0.096l0.058,0.092
	c-0.009,0.019-0.018,0.037-0.028,0.055L18.835,30.723z"/>
<path d="M20.122,29.089c-0.051-0.032-0.118-0.018-0.15,0.033l-0.001,0.002c-0.032,0.051-0.018,0.118,0.033,0.15
	c0.018,0.012,0.039,0.017,0.059,0.017c0.036,0,0.071-0.018,0.092-0.05l0.001-0.002C20.187,29.189,20.172,29.121,20.122,29.089z"/>
<path d="M21.135,27.31c0.001-0.015,0.001-0.031,0.001-0.046s0-0.031-0.001-0.046l0.052-0.055
	c0.024-0.025,0.035-0.061,0.028-0.095c-0.01-0.053-0.024-0.105-0.042-0.156c-0.012-0.033-0.038-0.058-0.072-0.068l-0.073-0.022
	c-0.014-0.027-0.029-0.054-0.046-0.079l0.018-0.074c0.008-0.034,0-0.07-0.023-0.096c-0.035-0.041-0.073-0.079-0.114-0.114
	c-0.027-0.023-0.062-0.031-0.096-0.023l-0.074,0.018c-0.026-0.017-0.052-0.032-0.079-0.046l-0.022-0.073
	c-0.01-0.034-0.035-0.06-0.068-0.072c-0.05-0.018-0.103-0.032-0.156-0.042c-0.034-0.006-0.07,0.004-0.095,0.028l-0.055,0.052
	c-0.031-0.001-0.061-0.001-0.092,0l-0.055-0.052c-0.025-0.024-0.061-0.035-0.095-0.028c-0.053,0.01-0.105,0.024-0.156,0.042
	c-0.033,0.012-0.058,0.038-0.068,0.072l-0.022,0.073c-0.027,0.014-0.054,0.029-0.079,0.046l-0.074-0.018
	c-0.029-0.007-0.059-0.002-0.084,0.014c0,0,0,0,0,0l-0.965,0.62c-0.051,0.033-0.065,0.1-0.033,0.15
	c0.021,0.032,0.056,0.05,0.092,0.05c0.02,0,0.041-0.006,0.059-0.017l0.524-0.336c-0.017,0.049-0.031,0.1-0.04,0.152
	c-0.006,0.034,0.004,0.07,0.028,0.095l0.052,0.055c-0.001,0.015-0.001,0.031-0.001,0.046s0,0.031,0.001,0.046l-0.052,0.055
	c-0.024,0.025-0.035,0.061-0.028,0.095c0.01,0.053,0.024,0.105,0.042,0.156c0.012,0.033,0.038,0.058,0.072,0.068l0.073,0.022
	c0.014,0.027,0.029,0.054,0.046,0.079l-0.018,0.074c-0.008,0.034,0,0.07,0.023,0.096c0.035,0.041,0.073,0.079,0.114,0.114
	c0.027,0.023,0.062,0.031,0.096,0.023l0.074-0.018c0.026,0.017,0.052,0.032,0.079,0.046l0.022,0.073
	c0.01,0.034,0.035,0.06,0.068,0.072c0.05,0.018,0.103,0.032,0.156,0.042c0.034,0.006,0.07-0.004,0.095-0.028l0.055-0.052
	c0.031,0.001,0.061,0.001,0.092,0l0.055,0.052c0.02,0.019,0.047,0.03,0.075,0.03c0.007,0,0.013-0.001,0.02-0.002
	c0.052-0.01,0.102-0.023,0.152-0.04l-0.317,0.494c-0.032,0.051-0.018,0.118,0.033,0.15c0.018,0.012,0.039,0.017,0.059,0.017
	c0.036,0,0.071-0.018,0.092-0.05l0.601-0.936c0,0,0,0,0,0c0.016-0.025,0.021-0.055,0.014-0.084l-0.018-0.074
	c0.017-0.026,0.032-0.052,0.046-0.079l0.073-0.022c0.034-0.01,0.06-0.035,0.072-0.068c0.018-0.05,0.032-0.103,0.042-0.156
	c0.006-0.034-0.004-0.07-0.028-0.095L21.135,27.31z M20.915,27.189c0.002,0.025,0.004,0.05,0.004,0.075s-0.001,0.05-0.004,0.075
	c-0.003,0.032,0.008,0.063,0.029,0.086l0.046,0.048c-0.002,0.006-0.003,0.012-0.005,0.019l-0.064,0.019
	c-0.03,0.009-0.055,0.031-0.068,0.06c-0.021,0.046-0.046,0.089-0.075,0.13c-0.019,0.026-0.025,0.058-0.018,0.089l0.016,0.065
	c-0.005,0.005-0.009,0.009-0.014,0.014l-0.065-0.016c-0.031-0.007-0.063-0.001-0.089,0.018c-0.041,0.029-0.084,0.054-0.13,0.075
	c-0.029,0.013-0.051,0.038-0.06,0.068L20.4,28.077c-0.006,0.002-0.012,0.003-0.019,0.005l-0.048-0.046
	c-0.02-0.019-0.047-0.03-0.075-0.03c-0.004,0-0.007,0-0.011,0.001c-0.05,0.005-0.1,0.005-0.15,0
	c-0.032-0.003-0.063,0.008-0.086,0.029l-0.048,0.046c-0.006-0.002-0.012-0.003-0.019-0.005l-0.019-0.064
	c-0.009-0.03-0.031-0.055-0.06-0.068c-0.046-0.021-0.089-0.046-0.13-0.075c-0.026-0.019-0.058-0.025-0.089-0.018l-0.065,0.016
	c-0.005-0.005-0.009-0.009-0.014-0.014l0.016-0.065c0.007-0.031,0.001-0.063-0.018-0.089c-0.029-0.041-0.054-0.084-0.075-0.13
	c-0.013-0.029-0.038-0.051-0.068-0.06l-0.064-0.019c-0.002-0.006-0.003-0.012-0.005-0.019l0.046-0.048
	c0.022-0.023,0.033-0.054,0.029-0.086c-0.002-0.025-0.004-0.05-0.004-0.075s0.001-0.05,0.004-0.075
	c0.003-0.032-0.008-0.063-0.029-0.086l-0.046-0.048c0.002-0.006,0.003-0.012,0.005-0.019l0.064-0.019
	c0.03-0.009,0.055-0.031,0.068-0.06c0.021-0.046,0.046-0.089,0.075-0.13c0.019-0.026,0.025-0.058,0.018-0.089l-0.016-0.065
	c0.005-0.005,0.009-0.009,0.014-0.014l0.065,0.016c0.031,0.007,0.063,0.001,0.089-0.018c0.041-0.029,0.084-0.054,0.13-0.075
	c0.029-0.013,0.051-0.038,0.06-0.068l0.019-0.064c0.006-0.002,0.012-0.003,0.019-0.005l0.048,0.046
	c0.023,0.022,0.054,0.033,0.086,0.029c0.05-0.005,0.1-0.005,0.15,0c0.032,0.003,0.063-0.008,0.086-0.029l0.048-0.046
	c0.006,0.002,0.012,0.003,0.019,0.005l0.019,0.064c0.009,0.03,0.031,0.055,0.06,0.068c0.046,0.021,0.089,0.046,0.13,0.075
	c0.026,0.019,0.058,0.025,0.089,0.018l0.065-0.016c0.005,0.005,0.009,0.009,0.014,0.014l-0.016,0.065
	c-0.007,0.031-0.001,0.063,0.018,0.089c0.029,0.041,0.054,0.084,0.075,0.13c0.013,0.029,0.038,0.051,0.068,0.06l0.064,0.019
	c0.002,0.006,0.003,0.012,0.005,0.019l-0.046,0.048C20.923,27.126,20.912,27.157,20.915,27.189z"/>
<path d="M27.599,24.107c0-0.136-0.053-0.264-0.149-0.36l-0.676-0.676c-0.096-0.096-0.224-0.149-0.36-0.149
	s-0.264,0.053-0.36,0.149l-0.347,0.347l-0.093-0.094V23.09c0-0.21-0.154-0.385-0.355-0.418v-0.421c0-0.177-0.144-0.322-0.322-0.322
	h-0.941c-0.177,0-0.322,0.144-0.322,0.322v0.422c-0.199,0.035-0.35,0.208-0.35,0.417v0.235l-0.095,0.095l-0.348-0.348
	c-0.096-0.096-0.224-0.149-0.36-0.149s-0.264,0.053-0.36,0.149l-0.676,0.676c-0.199,0.199-0.199,0.522,0,0.72l0.348,0.348
	l-0.085,0.085c-0.042,0.042-0.052,0.107-0.025,0.16l0.153,0.295l-0.371,0.655c-0.022,0.038-0.024,0.085-0.005,0.125l0.737,1.586
	c0.022,0.048,0.071,0.079,0.124,0.079h0.516v0.246c0,0.075,0.061,0.137,0.137,0.137h0.209v0.232c0,0.279,0.227,0.505,0.505,0.505
	h1.475c0.279,0,0.505-0.227,0.505-0.505v-0.232h0.209c0.075,0,0.137-0.061,0.137-0.137v-0.246h0.516
	c0.053,0,0.101-0.031,0.124-0.079l0.737-1.586c0.019-0.04,0.017-0.086-0.005-0.125l-0.371-0.655l0.153-0.295
	c0.027-0.053,0.018-0.117-0.024-0.159l-0.084-0.084l0.349-0.349C27.546,24.371,27.599,24.244,27.599,24.107z M23.996,22.202h0.941
	c0.027,0,0.048,0.022,0.048,0.048v0.416h-1.038v-0.416C23.947,22.224,23.969,22.202,23.996,22.202z M23.747,22.94h1.443
	c0.083,0,0.15,0.067,0.15,0.15v0.155h-1.743V23.09C23.597,23.007,23.665,22.94,23.747,22.94z M21.678,24.275
	c-0.092-0.092-0.092-0.242,0-0.334l0.676-0.676c0.045-0.045,0.104-0.069,0.167-0.069c0.063,0,0.122,0.025,0.167,0.069l0.348,0.348
	l-1.01,1.01L21.678,24.275z M22.449,27.528l-0.671-1.444l0.249-0.44l0.851,1.637v0.247H22.449z M25.436,28.415
	c0,0.128-0.104,0.232-0.232,0.232h-1.475c-0.128,0-0.232-0.104-0.232-0.232v-0.232h1.939V28.415z M25.782,27.91h-0.209h-0.39
	c0.225-0.203,0.348-0.49,0.351-0.783c0-0.002,0-0.005,0-0.007v-1.022c0-0.075-0.061-0.137-0.137-0.137
	c-0.075,0-0.137,0.061-0.137,0.137v0.311c-0.2-0.222-0.489-0.353-0.793-0.353c0,0-0.001,0-0.001,0c-0.075,0-0.136,0.061-0.136,0.137
	c0,0.075,0.061,0.136,0.137,0.136c0,0,0.001,0,0.001,0c0.279,0,0.541,0.149,0.683,0.389c0.222,0.376,0.097,0.863-0.279,1.085
	c-0.112,0.066-0.235,0.102-0.357,0.108h-0.094c-0.254-0.016-0.496-0.153-0.635-0.387c-0.131-0.222-0.146-0.494-0.04-0.729
	c0.031-0.069,0-0.15-0.068-0.181c-0.069-0.031-0.15,0-0.181,0.068c-0.008,0.018-0.015,0.036-0.022,0.054l-0.385-1.006
	c0.034,0.006,0.069,0.01,0.105,0.01c0.316,0,0.574-0.257,0.574-0.574c0-0.182-0.085-0.344-0.218-0.449l1.053-0.384
	c-0.001,0.01-0.001,0.019-0.001,0.029c0,0.256,0.209,0.465,0.465,0.465c0.068,0,0.133-0.015,0.192-0.042v0.253
	c0,0.075,0.061,0.137,0.137,0.137c0.075,0,0.137-0.061,0.137-0.137v-0.677c0-0.256-0.209-0.465-0.465-0.465
	c-0.081,0-0.157,0.021-0.224,0.057l-1.837,0.67c-0.001,0-0.002,0.001-0.002,0.001c-0.223,0.079-0.383,0.291-0.383,0.541
	c0,0.081,0.017,0.159,0.048,0.229l0.784,2.051c0,0.001,0.001,0.001,0.001,0.002c0.024,0.074,0.056,0.146,0.096,0.214
	c0.056,0.095,0.125,0.178,0.203,0.249H23.36h-0.209v-0.662c0-0.022-0.005-0.044-0.015-0.063l-1.124-2.161l1.506-1.506h1.903
	l1.501,1.505l-1.124,2.162c-0.01,0.019-0.015,0.041-0.015,0.063L25.782,27.91L25.782,27.91z M23.196,24.865
	c0.166,0,0.3,0.135,0.3,0.3s-0.135,0.3-0.3,0.3c-0.166,0-0.3-0.135-0.3-0.3S23.03,24.865,23.196,24.865z M25.068,24.169
	c0.106,0,0.192,0.086,0.192,0.192s-0.086,0.192-0.192,0.192s-0.192-0.086-0.192-0.192S24.963,24.169,25.068,24.169z M27.154,26.084
	l-0.671,1.444h-0.428v-0.247l0.851-1.637L27.154,26.084z M27.257,24.275l-0.349,0.349l-1.008-1.011l0.347-0.347
	c0.045-0.045,0.104-0.069,0.167-0.069c0.063,0,0.122,0.025,0.167,0.069l0.676,0.676c0.045,0.045,0.069,0.104,0.069,0.167
	S27.301,24.23,27.257,24.275z"/>
<path d="M22.98,27.966c0,0,0.002-0.001,0.002-0.001c0.08-0.047,0.107-0.15,0.06-0.23
	c-0.047-0.08-0.15-0.107-0.23-0.06l-0.002,0.001c-0.08,0.047-0.107,0.15-0.06,0.23c0.031,0.054,0.088,0.083,0.145,0.083
	C22.924,27.989,22.954,27.981,22.98,27.966z"/>
<path d="M24.623,26.733c-0.044,0-0.088,0.018-0.119,0.049c-0.031,0.031-0.049,0.075-0.049,0.119
	s0.018,0.088,0.049,0.119c0.031,0.031,0.075,0.049,0.119,0.049c0.044,0,0.088-0.018,0.119-0.049s0.049-0.075,0.049-0.119
	s-0.018-0.088-0.049-0.119C24.71,26.751,24.667,26.733,24.623,26.733z"/>
<path d="M26.534,24.909c-0.066-0.066-0.172-0.066-0.238,0c-0.066,0.066-0.066,0.172,0,0.238l0.012,0.012
	c0.033,0.033,0.076,0.049,0.119,0.049c0.043,0,0.086-0.016,0.119-0.049c0.066-0.066,0.066-0.172,0-0.238L26.534,24.909z"/>
<path d="M26.047,24.42c-0.066-0.066-0.172-0.066-0.238,0c-0.066,0.066-0.066,0.172,0,0.238l0.012,0.012
	c0.033,0.033,0.076,0.049,0.119,0.049c0.043,0,0.086-0.016,0.119-0.049c0.066-0.066,0.066-0.172,0-0.238L26.047,24.42z"/>
<path d="M20.328,25.231l-0.011,0.011c-0.058,0.059-0.058,0.154,0,0.212c0.029,0.029,0.068,0.044,0.106,0.044
	c0.038,0,0.077-0.015,0.106-0.044l0.011-0.011c0.058-0.059,0.058-0.154,0-0.212C20.481,25.172,20.386,25.173,20.328,25.231z"/>
<path d="M19.894,25.666l-0.011,0.011c-0.058,0.059-0.058,0.154,0,0.212c0.029,0.029,0.068,0.044,0.106,0.044
	c0.038,0,0.077-0.015,0.106-0.044l0.011-0.011c0.058-0.059,0.058-0.154,0-0.212C20.047,25.608,19.952,25.608,19.894,25.666z"/>
</svg>
