<?xml version="1.0" encoding="utf-8"?>
<!-- Generator: Adobe Illustrator 17.0.0, SVG Export Plug-In . SVG Version: 6.00 Build 0)  -->
<!DOCTYPE svg PUBLIC "-//W3C//DTD SVG 1.1//EN" "http://www.w3.org/Graphics/SVG/1.1/DTD/svg11.dtd">
<svg version="1.1" id="Layer_1" xmlns="http://www.w3.org/2000/svg" xmlns:xlink="http://www.w3.org/1999/xlink" x="0px" y="0px"
	 width="48px" height="48px" viewBox="0 0 48 48" enable-background="new 0 0 48 48" xml:space="preserve">
<circle cx="9.212" cy="32.901" r="1.619"/>
<circle cx="37.391" cy="32.901" r="1.619"/>
<path d="M46.885,24c0,0.449-0.364,0.813-0.813,0.813h-4.625c-0.449,0-0.813-0.364-0.813-0.813l0,0
	c0-0.449,0.364-0.813,0.813-0.813h4.625C46.521,23.188,46.885,23.551,46.885,24L46.885,24z"/>
<g>
	<g>
		<path d="M13.833,32.094c0.151,0.425,0.291,0.807,0.291,0.807l0.438,0.833h17.375l0.188-0.703
			c0,0,0.212-0.46,0.434-0.938h-8.856H13.833z"/>
		<path d="M47.239,20.417c-0.063-1.667-0.354-1.896-0.354-1.896s-5.917-6.563-7.167-7.896s-2.354-1.104-2.354-1.104
			s-0.083,0-7.542,0c-2.104,0.188-2,2.229-2,2.229V24L1.156,24.063c0,0,0,0,0,8.031c0.094,1.25,1.56,1.641,1.56,1.641h0.721h0.469
			c0,0,0.125-0.609,0.156-0.833c0.016-0.114,0.08-0.442,0.156-0.807H3.578c-0.953-0.016-0.859-0.469-0.859-0.469v-5.917h26.688
			c0,0,0-13.125,0-13.833s0.688-0.75,0.688-0.75h1.667c0,0,0.005,6.422,0.036,8.021c0.031,1.599,1.375,1.729,1.375,1.729H45.5v3.938
			c0,0,0.016,6.516,0,6.891s-0.203,0.391-0.203,0.391h-3.188c0.168,0.657,0.359,1.469,0.359,1.469l0.609,0.172
			c0,0,0-0.078,2.429-0.078c1.616-0.156,1.733-1.781,1.733-1.781S47.302,22.083,47.239,20.417z M33.427,19.146v-8.021
			c0,0,3,0.021,3.833,0s1.333,0.708,1.333,0.708l6.604,7.313H33.427z"/>
	</g>
</g>
<path d="M37.391,27.276c-3.107,0-5.625,2.518-5.625,5.625c0,3.107,2.518,5.625,5.625,5.625s5.625-2.518,5.625-5.625
	C43.016,29.794,40.498,27.276,37.391,27.276z M37.391,37.068c-2.301,0-4.167-1.865-4.167-4.167c0-2.301,1.865-4.167,4.167-4.167
	s4.167,1.865,4.167,4.167C41.558,35.202,39.693,37.068,37.391,37.068z"/>
<path d="M9.394,27.276c-3.107,0-5.625,2.518-5.625,5.625c0,3.107,2.518,5.625,5.625,5.625s5.625-2.518,5.625-5.625
	C15.019,29.794,12.5,27.276,9.394,27.276z M9.394,37.068c-2.301,0-4.167-1.865-4.167-4.167c0-2.301,1.865-4.167,4.167-4.167
	s4.167,1.865,4.167,4.167C13.56,35.202,11.695,37.068,9.394,37.068z"/>
<g>
	<path d="M25.619,21.739H14.939c-0.225,0-0.4,0.185-0.4,0.4c0,0.215,0.186,0.4,0.4,0.4h10.69
		c0.225,0,0.4-0.185,0.4-0.4C26.028,21.924,25.843,21.739,25.619,21.739L25.619,21.739z"/>
	<path d="M14.539,18.195l-0.01,1.904c0,0.107,0.039,0.214,0.117,0.293c0.079,0.079,0.176,0.117,0.283,0.117
		l1.894-0.01c0.107,0,0.205-0.039,0.283-0.117l6.54-6.54c0.156-0.156,0.156-0.41,0-0.576l-1.875-1.894
		c-0.156-0.156-0.41-0.156-0.576,0l-1.308,1.318l-5.233,5.222C14.588,17.99,14.539,18.087,14.539,18.195L14.539,18.195z
		 M21.489,12.23l1.318,1.318l-0.742,0.742l-1.318-1.318L21.489,12.23z M15.349,18.37l4.822-4.822l1.318,1.318l-4.822,4.813
		l-1.328,0.01L15.349,18.37z"/>
</g>
<g>
	<path d="M12.894,11.68H2.477c-0.122,0-0.221,0.099-0.221,0.221v10.417c0,0.122,0.099,0.221,0.221,0.221h8.854
		c0.122,0,0.221-0.099,0.221-0.221s-0.099-0.221-0.221-0.221H2.698v-9.975h9.975v10.196c0,0.122,0.099,0.221,0.221,0.221
		c0.122,0,0.221-0.099,0.221-0.221V11.901C13.115,11.779,13.016,11.68,12.894,11.68L12.894,11.68z"/>
	<path d="M4.68,13.979c-0.467,0-0.847,0.38-0.847,0.847c0,0.467,0.379,0.847,0.847,0.847
		c0.467,0,0.847-0.38,0.847-0.847C5.528,14.359,5.147,13.979,4.68,13.979L4.68,13.979z M4.68,15.231
		c-0.223,0-0.405-0.182-0.405-0.405c0-0.223,0.182-0.405,0.405-0.405s0.405,0.182,0.405,0.405C5.085,15.05,4.904,15.231,4.68,15.231
		L4.68,15.231z"/>
	<path d="M11.346,14.605H6.19c-0.122,0-0.221,0.099-0.221,0.221s0.099,0.221,0.221,0.221h5.156
		c0.122,0,0.221-0.099,0.221-0.221S11.468,14.605,11.346,14.605L11.346,14.605z"/>
	<path d="M4.68,16.262c-0.122,0-0.221,0.099-0.221,0.221s0.099,0.221,0.221,0.221c0.223,0,0.405,0.182,0.405,0.405
		c0,0.223-0.182,0.405-0.405,0.405s-0.405-0.182-0.405-0.405c0-0.122-0.099-0.221-0.221-0.221c-0.122,0-0.221,0.099-0.221,0.221
		c0,0.467,0.379,0.847,0.847,0.847c0.467,0,0.847-0.38,0.847-0.847C5.528,16.642,5.147,16.262,4.68,16.262L4.68,16.262z"/>
	<path d="M11.346,16.888H6.19c-0.122,0-0.221,0.099-0.221,0.221S6.068,17.33,6.19,17.33h5.156
		c0.122,0,0.221-0.099,0.221-0.221S11.468,16.888,11.346,16.888L11.346,16.888z"/>
	<path d="M4.68,18.545c-0.467,0-0.847,0.38-0.847,0.847s0.379,0.847,0.847,0.847c0.467,0,0.847-0.38,0.847-0.847
		S5.147,18.545,4.68,18.545L4.68,18.545z M4.68,19.798c-0.223,0-0.405-0.182-0.405-0.405s0.182-0.405,0.405-0.405
		s0.405,0.182,0.405,0.405S4.904,19.798,4.68,19.798L4.68,19.798z"/>
	<path d="M11.346,19.172H6.19c-0.122,0-0.221,0.099-0.221,0.221s0.099,0.221,0.221,0.221h5.156
		c0.122,0,0.221-0.099,0.221-0.221C11.567,19.271,11.468,19.172,11.346,19.172L11.346,19.172z"/>
</g>
</svg>
