<?xml version="1.0" encoding="utf-8"?>
<!-- Generator: Adobe Illustrator 17.0.0, SVG Export Plug-In . SVG Version: 6.00 Build 0)  -->
<!DOCTYPE svg PUBLIC "-//W3C//DTD SVG 1.1//EN" "http://www.w3.org/Graphics/SVG/1.1/DTD/svg11.dtd">
<svg version="1.1" id="Layer_1" xmlns="http://www.w3.org/2000/svg" xmlns:xlink="http://www.w3.org/1999/xlink" x="0px" y="0px"
	 width="48px" height="48px" viewBox="0 0 48 48" enable-background="new 0 0 48 48" xml:space="preserve">
<circle cx="9.212" cy="32.901" r="1.619"/>
<circle cx="37.391" cy="32.901" r="1.619"/>
<path d="M46.885,24c0,0.449-0.364,0.813-0.813,0.813h-4.625c-0.449,0-0.813-0.364-0.813-0.813l0,0
	c0-0.449,0.364-0.813,0.813-0.813h4.625C46.521,23.188,46.885,23.551,46.885,24L46.885,24z"/>
<g>
	<g>
		<path d="M13.833,32.094c0.151,0.425,0.291,0.807,0.291,0.807l0.438,0.833h17.375l0.188-0.703
			c0,0,0.212-0.46,0.434-0.938h-8.856H13.833z"/>
		<path d="M47.239,20.417c-0.063-1.667-0.354-1.896-0.354-1.896s-5.917-6.563-7.167-7.896s-2.354-1.104-2.354-1.104
			s-0.083,0-7.542,0c-2.104,0.188-2,2.229-2,2.229V24L1.156,24.063c0,0,0,0,0,8.031c0.094,1.25,1.56,1.641,1.56,1.641h0.721h0.469
			c0,0,0.125-0.609,0.156-0.833c0.016-0.114,0.08-0.442,0.156-0.807H3.578c-0.953-0.016-0.859-0.469-0.859-0.469v-5.917h26.688
			c0,0,0-13.125,0-13.833s0.688-0.75,0.688-0.75h1.667c0,0,0.005,6.422,0.036,8.021c0.031,1.599,1.375,1.729,1.375,1.729H45.5v3.938
			c0,0,0.016,6.516,0,6.891s-0.203,0.391-0.203,0.391h-3.188c0.168,0.657,0.359,1.469,0.359,1.469l0.609,0.172
			c0,0,0-0.078,2.429-0.078c1.616-0.156,1.733-1.781,1.733-1.781S47.302,22.083,47.239,20.417z M33.427,19.146v-8.021
			c0,0,3,0.021,3.833,0s1.333,0.708,1.333,0.708l6.604,7.313H33.427z"/>
	</g>
</g>
<path d="M37.391,27.276c-3.107,0-5.625,2.518-5.625,5.625c0,3.107,2.518,5.625,5.625,5.625s5.625-2.518,5.625-5.625
	C43.016,29.794,40.498,27.276,37.391,27.276z M37.391,37.068c-2.301,0-4.167-1.865-4.167-4.167c0-2.301,1.865-4.167,4.167-4.167
	s4.167,1.865,4.167,4.167C41.558,35.202,39.693,37.068,37.391,37.068z"/>
<path d="M9.394,27.276c-3.107,0-5.625,2.518-5.625,5.625c0,3.107,2.518,5.625,5.625,5.625s5.625-2.518,5.625-5.625
	C15.019,29.794,12.5,27.276,9.394,27.276z M9.394,37.068c-2.301,0-4.167-1.865-4.167-4.167c0-2.301,1.865-4.167,4.167-4.167
	s4.167,1.865,4.167,4.167C13.56,35.202,11.695,37.068,9.394,37.068z"/>
</svg>
