<?xml version="1.0" encoding="utf-8"?>
<!-- Generator: Adobe Illustrator 17.0.0, SVG Export Plug-In . SVG Version: 6.00 Build 0)  -->
<!DOCTYPE svg PUBLIC "-//W3C//DTD SVG 1.1//EN" "http://www.w3.org/Graphics/SVG/1.1/DTD/svg11.dtd">
<svg version="1.1" id="Layer_1" xmlns="http://www.w3.org/2000/svg" xmlns:xlink="http://www.w3.org/1999/xlink" x="0px" y="0px"
	 width="48px" height="48px" viewBox="0 0 48 48" enable-background="new 0 0 48 48" xml:space="preserve">
<ellipse cx="23.686" cy="16.528" rx="4.74" ry="4.74"/>
<path d="M23.686,22.094c-3.079,0-5.653-2.496-5.653-5.574s2.574-5.566,5.653-5.566s5.574,2.496,5.574,5.574
	S26.765,22.094,23.686,22.094z M23.686,12.614c-2.165,0-3.992,1.748-3.992,3.905s1.748,3.913,3.992,3.913
	c2.165,0,3.905-1.748,3.905-3.905S25.852,12.614,23.686,12.614z"/>
<path d="M33.496,37.478H13.876v-3.496c0-5.409,4.409-9.731,9.81-9.731s9.81,4.409,9.81,9.731V37.478z M15.537,35.817h16.297v-1.826
	c0-4.487-3.661-8.07-8.149-8.07s-8.149,3.661-8.149,8.07V35.817L15.537,35.817z"/>
<ellipse cx="9.048" cy="18.681" rx="3.434" ry="3.434"/>
<path d="M9.048,22.713c-2.23,0-4.095-1.808-4.095-4.038s1.865-4.032,4.095-4.032s4.038,1.808,4.038,4.038
	S11.278,22.713,9.048,22.713z M9.048,15.846c-1.569,0-2.892,1.266-2.892,2.829c0,1.562,1.266,2.835,2.892,2.835
	c1.569,0,2.829-1.266,2.829-2.829C11.877,17.119,10.617,15.846,9.048,15.846z"/>
<path d="M10.69,33.193c0-0.18,0.006-0.36,0.016-0.538H3.145v-1.323c0-3.194,2.652-5.847,5.903-5.847
	c1.514,0,2.897,0.563,3.944,1.493c0.256-0.303,0.53-0.591,0.821-0.862c-1.262-1.139-2.934-1.841-4.764-1.841
	c-3.912,0-7.107,3.131-7.107,7.05v2.533h8.775C10.701,33.638,10.69,33.417,10.69,33.193z"/>
<ellipse cx="38.227" cy="18.681" rx="3.434" ry="3.434"/>
<path d="M38.227,22.713c2.23,0,4.095-1.808,4.095-4.038s-1.865-4.032-4.095-4.032s-4.038,1.808-4.038,4.038
	S35.996,22.713,38.227,22.713z M38.227,15.846c1.569,0,2.892,1.266,2.892,2.829c0,1.562-1.266,2.835-2.892,2.835
	c-1.569,0-2.829-1.266-2.829-2.829C35.398,17.119,36.658,15.846,38.227,15.846z"/>
<path d="M36.584,33.193c0-0.18-0.006-0.36-0.016-0.538h7.562v-1.323c0-3.194-2.652-5.847-5.903-5.847
	c-1.514,0-2.897,0.563-3.944,1.493c-0.256-0.303-0.53-0.591-0.821-0.862c1.262-1.139,2.934-1.841,4.764-1.841
	c3.912,0,7.107,3.131,7.107,7.05v2.533h-8.775C36.573,33.638,36.584,33.417,36.584,33.193z"/>
</svg>
