<svg xmlns="http://www.w3.org/2000/svg" viewBox="0 0 500 500">
  <g>
    <path d="M250,7a243.07,243.07,0,0,1,94.58,466.91A243.06,243.06,0,0,1,155.42,26.09,241.47,241.47,0,0,1,250,7m0-7C111.93,0,0,111.93,0,250S111.93,500,250,500,500,388.07,500,250,388.07,0,250,0Z"/>
  </g>
  <path d="M281.43,72v37.34a6.09,6.09,0,0,1-6.07,6.07H224.64a6.09,6.09,0,0,1-6.07-6.07V71.63C134.16,86.1,69.91,159.58,69.91,248.11s64.25,162,148.65,176.48V390.73a6.09,6.09,0,0,1,6.07-6.07h50.72a6.09,6.09,0,0,1,6.07,6.07v33.51C364.87,409,428.14,336,428.14,248.11S364.87,87.24,281.43,72Zm0,248.55a6.09,6.09,0,0,1-6.07,6.07H224.64a6.09,6.09,0,0,1-6.07-6.07V178.33a6.09,6.09,0,0,1,6.07-6.07h50.72a6.09,6.09,0,0,1,6.07,6.07Z"/>
</svg>