<?xml version="1.0" encoding="utf-8"?>
<!-- Generator: Adobe Illustrator 17.0.0, SVG Export Plug-In . SVG Version: 6.00 Build 0)  -->
<!DOCTYPE svg PUBLIC "-//W3C//DTD SVG 1.1//EN" "http://www.w3.org/Graphics/SVG/1.1/DTD/svg11.dtd">
<svg version="1.1" id="Layer_1" xmlns="http://www.w3.org/2000/svg" xmlns:xlink="http://www.w3.org/1999/xlink" x="0px" y="0px"
	 width="48px" height="48px" viewBox="0 0 48 48" enable-background="new 0 0 48 48" xml:space="preserve">
<path d="M42.186,8.156V5.883c0-1.256-1.018-2.273-2.273-2.273h-6.82c-1.256,0-2.273,1.018-2.273,2.273v2.273H17.18
	V5.883c0-1.256-1.018-2.273-2.273-2.273h-6.82c-1.256,0-2.273,1.018-2.273,2.273v2.273c-2.507,0-4.547,2.039-4.547,4.547v25.006
	c0,2.507,2.04,4.547,4.547,4.547h36.372c2.507,0,4.547-2.04,4.547-4.547V12.703C46.733,10.195,44.693,8.156,42.186,8.156z
	 M33.093,5.883h6.82v2.273h-6.82V5.883z M8.087,5.883h6.82v2.273h-6.82V5.883z M44.459,37.709c0,1.256-1.018,2.273-2.273,2.273
	H5.814c-1.256,0-2.273-1.018-2.273-2.273V14.976h40.919V37.709z M3.541,12.703c0-1.256,1.018-2.273,2.273-2.273h36.372
	c1.256,0,2.273,1.018,2.273,2.273H3.541z"/>
<polygon points="35.366,32.025 37.64,32.025 37.64,28.616 41.049,28.616 41.049,26.342 37.64,26.342 37.64,22.932 
	35.366,22.932 35.366,26.342 31.956,26.342 31.956,28.616 35.366,28.616 "/>
<rect x="6.951" y="26.342" width="9.093" height="2.273"/>
</svg>
