<?xml version="1.0" encoding="utf-8"?>
<!-- Generator: Adobe Illustrator 17.0.0, SVG Export Plug-In . SVG Version: 6.00 Build 0)  -->
<!DOCTYPE svg PUBLIC "-//W3C//DTD SVG 1.1//EN" "http://www.w3.org/Graphics/SVG/1.1/DTD/svg11.dtd">
<svg version="1.1" id="Layer_1" xmlns="http://www.w3.org/2000/svg" xmlns:xlink="http://www.w3.org/1999/xlink" x="0px" y="0px"
	 width="48px" height="48px" viewBox="0 0 48 48" enable-background="new 0 0 48 48" xml:space="preserve">
<path d="M17.345,24.288c0,3.009,2.448,5.458,5.458,5.458s5.458-2.448,5.458-5.458s-2.448-5.458-5.458-5.458
	S17.345,21.279,17.345,24.288z M22.803,20.591c2.039,0,3.697,1.659,3.697,3.697s-1.659,3.697-3.697,3.697s-3.697-1.659-3.697-3.697
	S20.764,20.591,22.803,20.591z"/>
<path d="M10.655,24.288v0.032c0,0.486,0.394,0.88,0.88,0.88s0.88-0.394,0.88-0.88v-0.032
	c0-0.486-0.394-0.88-0.88-0.88S10.655,23.802,10.655,24.288z"/>
<path d="M11.391,20.114c-0.167,0.457,0.068,0.962,0.524,1.129c0.1,0.036,0.202,0.054,0.302,0.054
	c0.359,0,0.696-0.221,0.827-0.578c1.136-3.105,3.709-5.503,6.883-6.415c0.467-0.134,0.737-0.622,0.603-1.089
	c-0.134-0.467-0.622-0.737-1.089-0.603c-0.532,0.153-1.05,0.343-1.551,0.565c0.021-0.073,0.033-0.149,0.034-0.228l0.001-0.08
	c0.01-0.486-0.376-0.888-0.862-0.898c-0.006,0-0.012,0-0.018,0c-0.478,0-0.87,0.382-0.88,0.862l-0.001,0.096
	c-0.004,0.382,0.236,0.709,0.574,0.835C14.295,15.174,12.379,17.416,11.391,20.114z"/>
<path d="M46.489,22.136c-0.372-4.116-1.824-8.083-4.198-11.47c-0.279-0.398-0.828-0.495-1.226-0.215
	c-0.398,0.279-0.495,0.828-0.215,1.226c2.198,3.136,3.542,6.807,3.887,10.618c0.026,0.291-0.067,0.569-0.263,0.783
	c-0.194,0.213-0.46,0.33-0.748,0.33h-9.296c-0.5,0-0.921-0.355-1.001-0.845c-0.744-4.576-4.319-8.147-8.896-8.885
	c-0.49-0.079-0.847-0.5-0.847-1.001V3.382c0-0.288,0.117-0.554,0.33-0.748c0.215-0.196,0.494-0.29,0.783-0.264
	c3.98,0.357,7.788,1.796,11.014,4.161c0.392,0.288,0.943,0.203,1.23-0.189c0.288-0.392,0.203-0.943-0.189-1.23
	c-3.485-2.555-7.599-4.109-11.898-4.495c-0.777-0.069-1.553,0.192-2.129,0.718c-0.479,0.438-0.787,1.032-0.875,1.668
	c-5.37,0.21-10.389,2.399-14.211,6.221C3.716,13.248,1.5,18.598,1.5,24.288s2.216,11.04,6.239,15.063
	c4.024,4.024,9.373,6.239,15.063,6.239c9.709,0,18.189-6.556,20.623-15.942c0.122-0.471-0.161-0.951-0.631-1.073
	c-0.471-0.122-0.951,0.161-1.073,0.631c-0.237,0.915-0.538,1.8-0.895,2.652c-0.153-0.318-0.489-0.525-0.862-0.495
	c-0.485,0.038-0.846,0.462-0.808,0.947l0.006,0.08c0.033,0.464,0.419,0.819,0.877,0.819c0.021,0,0.042-0.001,0.063-0.002
	c0.035-0.002,0.07-0.008,0.104-0.014c-3.283,6.423-9.948,10.637-17.403,10.637c-6.335,0-11.975-3.031-15.548-7.718
	c0.014,0.001,0.029,0.002,0.043,0.002c0.329,0,0.645-0.185,0.796-0.502c0.209-0.439,0.022-0.964-0.417-1.173l-0.071-0.034
	c-0.437-0.213-0.964-0.032-1.177,0.405c-0.013,0.026-0.024,0.053-0.034,0.08c-1.981-3.056-3.133-6.697-3.133-10.602
	c0-10.481,8.294-19.06,18.663-19.522v7.91c0,1.37,0.979,2.521,2.327,2.739c3.827,0.618,6.816,3.603,7.439,7.43
	c0.147,0.903,0.714,1.639,1.484,2.027c-0.304,5.457-4.839,9.803-10.371,9.803c-4.278,0-8.066-2.567-9.652-6.539
	c-0.18-0.452-0.692-0.671-1.144-0.491c-0.452,0.18-0.672,0.692-0.491,1.144c0.89,2.231,2.41,4.134,4.394,5.504
	c2.032,1.403,4.416,2.144,6.893,2.144c6.402,0,11.663-4.979,12.116-11.268h1.557c-0.101,0.05-0.193,0.12-0.271,0.21
	c-0.319,0.367-0.279,0.923,0.088,1.242c0.019,0.017,0.039,0.034,0.058,0.051c0.168,0.149,0.377,0.223,0.585,0.223
	c0.243,0,0.484-0.1,0.658-0.295c0.323-0.363,0.291-0.92-0.072-1.243c-0.025-0.022-0.049-0.044-0.074-0.065
	c-0.057-0.05-0.12-0.09-0.185-0.123h6.462c0.777,0,1.524-0.329,2.048-0.903C46.298,23.69,46.559,22.914,46.489,22.136z"/>
<path d="M38.711,9.074c0.173,0.181,0.404,0.272,0.636,0.272c0.219,0,0.438-0.081,0.608-0.244
	c0.351-0.336,0.364-0.893,0.028-1.245L39.957,7.83c-0.338-0.35-0.895-0.359-1.245-0.021c-0.35,0.338-0.359,0.895-0.021,1.245
	L38.711,9.074z"/>
<path d="M27.586,5.456c-0.999,0.414-1.777,1.192-2.191,2.191c-0.414,0.999-0.414,2.1,0,3.099
	c0.414,0.999,1.192,1.777,2.191,2.191c0.5,0.207,1.024,0.31,1.549,0.31c0.525,0,1.05-0.104,1.549-0.31
	c0.999-0.414,1.777-1.192,2.191-2.191c0.854-2.062-0.129-4.435-2.191-5.29C29.685,5.042,28.585,5.043,27.586,5.456z M31.249,10.072
	c-0.234,0.565-0.674,1.004-1.238,1.238c-0.565,0.234-1.187,0.234-1.751,0c-0.565-0.234-1.004-0.674-1.238-1.238
	c-0.234-0.565-0.234-1.187,0-1.751c0.234-0.565,0.674-1.004,1.238-1.238c0.282-0.117,0.579-0.175,0.876-0.175
	c0.297,0,0.593,0.058,0.875,0.175C31.176,7.566,31.731,8.907,31.249,10.072z"/>
<path d="M34.171,19.698c0.645,1.557,2.156,2.499,3.746,2.499c0.515,0,1.039-0.099,1.544-0.308
	c0.999-0.414,1.777-1.192,2.191-2.191c0.414-0.999,0.414-2.099,0-3.099c-0.414-0.999-1.192-1.777-2.191-2.191
	c-0.999-0.414-2.099-0.414-3.099,0C34.299,15.263,33.316,17.636,34.171,19.698z M37.911,15.86c0.297,0,0.593,0.058,0.876,0.175
	c0.565,0.234,1.004,0.674,1.238,1.238c0.234,0.565,0.234,1.186,0,1.751c-0.234,0.565-0.674,1.004-1.238,1.238v0
	c-1.166,0.483-2.507-0.073-2.989-1.238c-0.483-1.166,0.073-2.507,1.238-2.989C37.318,15.918,37.614,15.86,37.911,15.86z"/>
<path d="M30.825,25.163c0.225,0,0.451-0.086,0.622-0.258l0.011-0.011c0.344-0.344,0.344-0.901,0-1.245
	c-0.344-0.344-0.901-0.344-1.245,0l-0.011,0.011c-0.344,0.344-0.344,0.901,0,1.245C30.374,25.077,30.6,25.163,30.825,25.163z"/>
<path d="M22.19,31.673c-0.344,0.344-0.344,0.901,0,1.245l0.011,0.011c0.172,0.172,0.397,0.258,0.622,0.258
	c0.225,0,0.451-0.086,0.622-0.258c0.344-0.344,0.344-0.901,0-1.245l-0.011-0.011C23.091,31.329,22.534,31.329,22.19,31.673z"/>
<path d="M14.18,23.658l-0.011,0.011c-0.345,0.343-0.347,0.9-0.005,1.245c0.172,0.173,0.398,0.26,0.625,0.26
	c0.224,0,0.448-0.085,0.62-0.255l0.011-0.011c0.345-0.343,0.347-0.9,0.005-1.245S14.525,23.315,14.18,23.658z"/>
<path d="M22.812,17.151c0.223,0,0.446-0.084,0.618-0.253c0.346-0.341,0.351-0.899,0.009-1.245l-0.011-0.012
	c-0.341-0.347-0.899-0.351-1.245-0.009c-0.346,0.341-0.351,0.899-0.009,1.245l0.011,0.012
	C22.358,17.063,22.585,17.151,22.812,17.151z"/>
<path d="M28.499,29.068l-0.016,0c-0.485-0.005-0.882,0.39-0.885,0.876c-0.003,0.486,0.389,0.882,0.876,0.885l0.016,0
	c0.002,0,0.003,0,0.005,0c0.484,0,0.878-0.391,0.88-0.876C29.377,29.467,28.985,29.071,28.499,29.068z"/>
<path d="M17.147,30.845c0.486,0,0.88-0.394,0.88-0.88v-0.016c0-0.486-0.394-0.88-0.88-0.88
	c-0.486,0-0.88,0.394-0.88,0.88v0.016C16.267,30.451,16.661,30.845,17.147,30.845z"/>
<path d="M17.126,19.497l0.016,0c0.002,0,0.003,0,0.005,0c0.484,0,0.878-0.391,0.88-0.876
	c0.003-0.486-0.389-0.882-0.876-0.885l-0.016,0c-0.002,0-0.003,0-0.005,0c-0.484,0-0.878,0.391-0.88,0.876
	C16.248,19.099,16.64,19.495,17.126,19.497z"/>
<path d="M28.478,17.721c-0.486,0-0.88,0.394-0.88,0.88v0.016c0,0.486,0.394,0.88,0.88,0.88
	c0.486,0,0.88-0.394,0.88-0.88v-0.016C29.358,18.115,28.964,17.721,28.478,17.721z"/>
<path d="M38.674,28.002c-0.435,0.218-0.61,0.747-0.392,1.182l0.037,0.074c0.153,0.311,0.465,0.491,0.79,0.491
	c0.131,0,0.264-0.029,0.389-0.091c0.436-0.215,0.615-0.743,0.4-1.179l-0.042-0.084C39.637,27.959,39.108,27.784,38.674,28.002z"/>
<path d="M20.407,7.082l0.057-0.057c0.348-0.339,0.355-0.897,0.015-1.245c-0.339-0.348-0.897-0.355-1.245-0.015
	l-0.068,0.067c-0.345,0.342-0.347,0.9-0.005,1.245c0.172,0.174,0.399,0.26,0.625,0.26C20.011,7.337,20.235,7.252,20.407,7.082z"/>
<path d="M17.435,10.239c0.112,0.047,0.228,0.07,0.343,0.07c0.343,0,0.669-0.202,0.811-0.537l0.032-0.073
	c0.194-0.446-0.011-0.964-0.457-1.158c-0.446-0.193-0.964,0.011-1.158,0.457c-0.013,0.029-0.025,0.059-0.038,0.088
	C16.778,9.533,16.987,10.049,17.435,10.239z"/>
<path d="M14.04,34.804l-0.076,0.026c-0.461,0.154-0.71,0.653-0.556,1.114c0.123,0.369,0.466,0.601,0.835,0.601
	c0.093,0,0.187-0.015,0.279-0.046l0.09-0.031c0.46-0.158,0.704-0.659,0.546-1.119C15,34.891,14.499,34.646,14.04,34.804z"/>
<path d="M9.807,36.06c-0.033,0.485,0.334,0.905,0.819,0.938c0.033,0.002,0.065,0.004,0.098,0.006
	c0.017,0.001,0.033,0.001,0.05,0.001c0.464,0,0.852-0.363,0.878-0.831c0.027-0.485-0.344-0.901-0.83-0.928
	c-0.026-0.001-0.052-0.003-0.078-0.005C10.259,35.208,9.839,35.575,9.807,36.06z"/>
</svg>
