<?xml version="1.0" encoding="utf-8"?>
<!-- Generator: Adobe Illustrator 17.0.0, SVG Export Plug-In . SVG Version: 6.00 Build 0)  -->
<!DOCTYPE svg PUBLIC "-//W3C//DTD SVG 1.1//EN" "http://www.w3.org/Graphics/SVG/1.1/DTD/svg11.dtd">
<svg version="1.1" id="Layer_1" xmlns="http://www.w3.org/2000/svg" xmlns:xlink="http://www.w3.org/1999/xlink" x="0px" y="0px"
	 width="48px" height="48px" viewBox="0 0 48 48" enable-background="new 0 0 48 48" xml:space="preserve">
<g>
	<path d="M45.469,19.501l-3.537-2.28l-13.65,4.853l-2.553-1.511H19.27v-0.842h2.774v-2.293h-7.842v2.293h2.774v0.842H9.765
		l-4.754-2.74l-3.623,3.782l7.701,9.976l0.074-0.062v1.284h16.659l16.037-12.895l2.367,1.525L45.469,19.501z M4.41,21.767
		l1.015-1.056l3.738,2.153v5.054L4.41,21.767z M25.013,30.505H11.455v-7.648h13.643l2.942,1.739l7.749-2.748L25.013,30.505z
		 M46.565,26.193c0,0.95-0.768,1.725-1.717,1.725c-0.95,0-1.718-0.768-1.718-1.725c0-0.95,1.718-3.964,1.718-3.964
		S46.565,25.243,46.565,26.193L46.565,26.193z M46.565,26.193"/>
</g>
</svg>
