<?xml version="1.0" encoding="utf-8"?>
<!-- Generator: Adobe Illustrator 17.0.0, SVG Export Plug-In . SVG Version: 6.00 Build 0)  -->
<!DOCTYPE svg PUBLIC "-//W3C//DTD SVG 1.1//EN" "http://www.w3.org/Graphics/SVG/1.1/DTD/svg11.dtd">
<svg version="1.1" id="Layer_1" xmlns="http://www.w3.org/2000/svg" xmlns:xlink="http://www.w3.org/1999/xlink" x="0px" y="0px"
	 width="48px" height="48px" viewBox="0 0 48 48" enable-background="new 0 0 48 48" xml:space="preserve">
<path d="M45.131,15.53c0-0.875-0.341-1.697-0.959-2.315l-4.344-4.344c-0.619-0.619-1.441-0.959-2.316-0.959
	s-1.697,0.341-2.316,0.959l-2.231,2.231l-0.6-0.602V8.988c0-1.351-0.99-2.475-2.282-2.686V3.593c0-1.14-0.927-2.067-2.067-2.067
	h-6.049c-1.14,0-2.067,0.927-2.067,2.067v2.715c-1.277,0.224-2.251,1.34-2.251,2.68v1.512l-0.609,0.609L14.802,8.87
	c-0.619-0.618-1.441-0.959-2.316-0.959c-0.875,0-1.697,0.341-2.316,0.959l-4.344,4.344c-1.277,1.277-1.277,3.354,0,4.631
	l2.238,2.238l-0.549,0.549c-0.271,0.271-0.335,0.686-0.158,1.026l0.986,1.896L5.96,27.767c-0.139,0.247-0.151,0.545-0.032,0.802
	l4.741,10.197c0.144,0.31,0.455,0.508,0.796,0.508h3.314v1.58c0,0.485,0.393,0.878,0.878,0.878h1.346v1.492
	c0,1.791,1.457,3.248,3.248,3.248h9.481c1.791,0,3.248-1.457,3.248-3.248v-1.492h1.346c0.485,0,0.878-0.393,0.878-0.878v-1.58h3.314
	c0.342,0,0.652-0.198,0.796-0.508l4.741-10.197c0.119-0.257,0.108-0.556-0.032-0.802l-2.383-4.213l0.986-1.896
	c0.176-0.339,0.113-0.754-0.157-1.025l-0.541-0.543l2.245-2.245C44.79,17.228,45.131,16.405,45.131,15.53z M21.967,3.282h6.049
	c0.172,0,0.311,0.14,0.311,0.311v2.674h-6.672V3.593C21.655,3.421,21.795,3.282,21.967,3.282z M20.37,8.022h9.274
	c0.532,0,0.966,0.433,0.966,0.966v0.997H19.404V8.988C19.404,8.455,19.838,8.022,20.37,8.022z M7.068,16.605
	c-0.592-0.592-0.592-1.556,0-2.148l4.344-4.344c0.287-0.287,0.668-0.445,1.074-0.445c0.406,0,0.787,0.158,1.074,0.445l2.238,2.238
	l-6.493,6.493L7.068,16.605z M12.024,37.519l-4.314-9.28l1.599-2.826l5.47,10.521v1.585H12.024z M31.224,43.225
	c0,0.823-0.669,1.492-1.492,1.492h-9.481c-0.823,0-1.492-0.669-1.492-1.492v-1.492h12.466V43.225z M33.448,39.977h-1.346h-2.506
	c1.444-1.304,2.238-3.148,2.254-5.034c0.001-0.016,0.002-0.031,0.002-0.047v-6.573c0-0.485-0.393-0.878-0.878-0.878
	c-0.485,0-0.878,0.393-0.878,0.878v1.997c-1.286-1.426-3.141-2.272-5.097-2.272c-0.003,0-0.006,0-0.009,0
	c-0.485,0.001-0.877,0.394-0.877,0.879c0.001,0.484,0.393,0.877,0.878,0.877c0.002,0,0.005,0,0.008,0
	c1.796,0,3.477,0.958,4.389,2.503c1.428,2.417,0.623,5.546-1.794,6.974c-0.722,0.427-1.508,0.653-2.293,0.697H24.7
	c-1.631-0.1-3.187-0.981-4.079-2.491c-0.841-1.424-0.937-3.176-0.257-4.687c0.199-0.442,0.002-0.962-0.44-1.161
	c-0.442-0.199-0.962-0.002-1.161,0.44c-0.051,0.114-0.099,0.23-0.144,0.346l-2.473-6.47c0.22,0.041,0.446,0.063,0.678,0.063
	c2.033,0,3.687-1.654,3.687-3.687c0-1.17-0.548-2.213-1.4-2.889l6.768-2.467c-0.004,0.062-0.006,0.125-0.006,0.188
	c0,1.648,1.341,2.99,2.99,2.99c0.44,0,0.857-0.096,1.234-0.268v1.628c0,0.485,0.393,0.878,0.878,0.878
	c0.485,0,0.878-0.393,0.878-0.878v-4.35c0-1.648-1.341-2.99-2.99-2.99c-0.521,0-1.01,0.134-1.437,0.369l-11.812,4.306
	c-0.005,0.002-0.01,0.004-0.015,0.006c-1.432,0.507-2.46,1.873-2.46,3.476c0,0.524,0.11,1.022,0.308,1.474l5.039,13.185
	c0.002,0.004,0.004,0.008,0.005,0.013c0.154,0.476,0.36,0.938,0.619,1.378c0.361,0.611,0.803,1.145,1.304,1.598h-2.533h-1.346
	v-4.258c0-0.141-0.034-0.28-0.099-0.405L9.212,21.419l9.679-9.678h12.233l9.648,9.678l-7.224,13.896
	c-0.065,0.125-0.099,0.264-0.099,0.405L33.448,39.977L33.448,39.977z M16.825,20.399c1.065,0,1.931,0.866,1.931,1.931
	c0,1.065-0.866,1.931-1.931,1.931c-1.065,0-1.931-0.866-1.931-1.931S15.76,20.399,16.825,20.399z M28.863,15.929
	c0.68,0,1.234,0.554,1.234,1.234c0,0.68-0.554,1.234-1.234,1.234s-1.234-0.554-1.234-1.234S28.182,15.929,28.863,15.929z
	 M42.272,28.239l-4.314,9.28h-2.754v-1.585l5.47-10.521L42.272,28.239z M42.93,16.605l-2.243,2.243l-6.483-6.502l2.233-2.233
	c0.287-0.287,0.668-0.445,1.074-0.445c0.406,0,0.787,0.158,1.074,0.445l4.344,4.344c0.287,0.287,0.445,0.668,0.445,1.074
	S43.217,16.318,42.93,16.605z"/>
<path d="M22.412,30.514c0,0,0.009-0.005,0.011-0.006c0.418-0.245,0.559-0.783,0.314-1.201
	c-0.245-0.418-0.783-0.559-1.201-0.314l-0.011,0.006c-0.418,0.245-0.559,0.783-0.314,1.201c0.163,0.279,0.457,0.435,0.758,0.435
	C22.12,30.634,22.272,30.596,22.412,30.514z"/>
<path d="M21.669,34.896c0,1.839,1.497,3.336,3.336,3.336c1.839,0,3.336-1.497,3.336-3.336
	c0-1.839-1.497-3.336-3.336-3.336C23.165,31.56,21.669,33.057,21.669,34.896z M25.005,33.316c0.871,0,1.58,0.709,1.58,1.58
	c0,0.871-0.709,1.58-1.58,1.58c-0.871,0-1.58-0.709-1.58-1.58C23.425,34.025,24.133,33.316,25.005,33.316z"/>
<path d="M16.816,23.27h0.01c0.001,0,0.003,0,0.004,0c0.483,0,0.876-0.39,0.878-0.874
	c0.002-0.485-0.389-0.88-0.874-0.882h-0.01c-0.001,0-0.003,0-0.004,0c-0.483,0-0.876,0.39-0.878,0.874
	C15.94,22.873,16.331,23.268,16.816,23.27z"/>
<path d="M30.974,24.087c-0.231,0-0.457,0.094-0.621,0.257c-0.163,0.163-0.257,0.39-0.257,0.621
	c0,0.231,0.094,0.457,0.257,0.621c0.163,0.163,0.39,0.257,0.621,0.257c0.231,0,0.457-0.094,0.621-0.257
	c0.163-0.163,0.257-0.39,0.257-0.621c0-0.231-0.094-0.457-0.257-0.621C31.431,24.181,31.205,24.087,30.974,24.087z"/>
<path d="M40.939,14.577c-0.342-0.343-0.898-0.344-1.242-0.002c-0.343,0.342-0.344,0.898-0.002,1.242l0.062,0.062
	c0.172,0.172,0.397,0.258,0.622,0.258c0.224,0,0.449-0.085,0.62-0.256c0.343-0.342,0.344-0.898,0.002-1.242L40.939,14.577z"/>
<path d="M38.398,12.028c-0.342-0.343-0.898-0.344-1.242-0.002c-0.343,0.342-0.344,0.898-0.002,1.242l0.062,0.062
	c0.172,0.172,0.397,0.258,0.622,0.258c0.224,0,0.449-0.085,0.62-0.256c0.343-0.342,0.344-0.898,0.002-1.242L38.398,12.028z"/>
<path d="M11.601,12.028l-0.062,0.062c-0.342,0.343-0.342,0.899,0.002,1.242c0.171,0.171,0.396,0.256,0.62,0.256
	c0.225,0,0.45-0.086,0.622-0.258l0.062-0.062c0.342-0.343,0.342-0.899-0.002-1.242C12.499,11.684,11.943,11.685,11.601,12.028z"/>
<path d="M9.059,14.577l-0.062,0.062c-0.342,0.343-0.342,0.899,0.002,1.242c0.171,0.171,0.396,0.256,0.62,0.256
	c0.225,0,0.45-0.086,0.622-0.258l0.062-0.062c0.342-0.343,0.342-0.899-0.002-1.242C9.958,14.233,9.402,14.234,9.059,14.577z"/>
</svg>
