<?xml version="1.0" encoding="utf-8"?>
<!-- Generator: Adobe Illustrator 17.0.0, SVG Export Plug-In . SVG Version: 6.00 Build 0)  -->
<!DOCTYPE svg PUBLIC "-//W3C//DTD SVG 1.1//EN" "http://www.w3.org/Graphics/SVG/1.1/DTD/svg11.dtd">
<svg version="1.1" id="Layer_1" xmlns="http://www.w3.org/2000/svg" xmlns:xlink="http://www.w3.org/1999/xlink" x="0px" y="0px"
	 width="48px" height="48px" viewBox="0 0 48 48" enable-background="new 0 0 48 48" xml:space="preserve">
<g transform="translate(1 1)">
	<path d="M23,39.143c-8.879,0-16.143-7.264-16.143-16.143S14.121,6.857,23,6.857S39.143,14.121,39.143,23
		S31.879,39.143,23,39.143z M23,8.324C14.928,8.324,8.324,14.928,8.324,23S14.928,37.676,23,37.676S37.676,31.072,37.676,23
		S31.072,8.324,23,8.324z"/>
	<path d="M7.958,38.776c-0.22,0-0.367-0.073-0.514-0.22c-8.585-8.585-8.585-22.527,0-31.112
		c0.294-0.294,0.734-0.294,1.027,0s0.294,0.734,0,1.027c-7.998,7.998-7.998,21.059,0,29.058c0.294,0.294,0.294,0.734,0,1.027
		C8.324,38.703,8.178,38.776,7.958,38.776z"/>
	<path d="M38.042,38.776c-0.22,0-0.367-0.073-0.514-0.22c-0.294-0.294-0.294-0.734,0-1.027
		c7.998-7.998,7.998-21.059,0-29.058c-0.294-0.294-0.294-0.734,0-1.027c0.294-0.294,0.734-0.294,1.027,0
		c8.585,8.585,8.585,22.527,0,31.112C38.409,38.703,38.263,38.776,38.042,38.776z"/>
	<path d="M23,27.403c-1.247,0-2.201-0.954-2.201-2.201V12.727c0-1.247,0.954-2.201,2.201-2.201
		c1.247,0,2.201,0.954,2.201,2.201v12.474C25.201,26.449,24.247,27.403,23,27.403z M23,11.993c-0.44,0-0.734,0.294-0.734,0.734
		v12.474c0,0.44,0.294,0.734,0.734,0.734s0.734-0.294,0.734-0.734V12.727C23.734,12.287,23.44,11.993,23,11.993z"/>
	<path d="M23,35.474c-1.614,0-2.935-1.321-2.935-2.935c0-1.614,1.321-2.935,2.935-2.935
		c1.614,0,2.935,1.321,2.935,2.935C25.935,34.153,24.614,35.474,23,35.474z M23,31.072c-0.807,0-1.468,0.66-1.468,1.468
		s0.66,1.468,1.468,1.468c0.807,0,1.468-0.66,1.468-1.468S23.807,31.072,23,31.072z"/>
</g>
</svg>
