<?xml version="1.0" encoding="utf-8"?>
<!-- Generator: Adobe Illustrator 17.0.0, SVG Export Plug-In . SVG Version: 6.00 Build 0)  -->
<!DOCTYPE svg PUBLIC "-//W3C//DTD SVG 1.1//EN" "http://www.w3.org/Graphics/SVG/1.1/DTD/svg11.dtd">
<svg version="1.1" id="Layer_1" xmlns="http://www.w3.org/2000/svg" xmlns:xlink="http://www.w3.org/1999/xlink" x="0px" y="0px"
	 width="48px" height="48px" viewBox="0 0 48 48" enable-background="new 0 0 48 48" xml:space="preserve">
<polygon points="35.366,32.025 37.64,32.025 37.64,28.616 41.049,28.616 41.049,26.342 37.64,26.342 37.64,22.932 
	35.366,22.932 35.366,26.342 31.956,26.342 31.956,28.616 35.366,28.616 "/>
<rect x="6.951" y="26.342" width="9.093" height="2.273"/>
<g>
	<path d="M41.996,15.649c-0.498,0-0.902,0.404-0.902,0.902v5.355h-1.835v-4.524c0-0.498-0.404-0.902-0.902-0.902H34.17l-0.78-2.6
		c-0.115-0.382-0.466-0.643-0.865-0.643h-6.374v-2.283h4.014c0.498,0,0.902-0.404,0.902-0.902V7.039
		c0-0.498-0.404-0.902-0.902-0.902h-12.93c-0.499,0-0.903,0.404-0.903,0.902v3.013c0,0.498,0.404,0.902,0.903,0.902h4.014v2.283
		h-9.296c-0.33,0-0.635,0.181-0.793,0.471L9.652,16.48h-3.53c-0.498,0-0.902,0.404-0.902,0.903v4.523H3.192v-6.451
		c0-0.498-0.404-0.903-0.902-0.903c-0.498,0-0.902,0.404-0.902,0.903v18.65c0,0.498,0.404,0.902,0.902,0.902
		c0.498,0,0.902-0.404,0.902-0.902v-6.451H5.22v4.777c0,0.498,0.404,0.902,0.902,0.902h7.513l3.435,4.432
		c0.171,0.221,0.434,0.35,0.713,0.35h20.573c0.498,0,0.902-0.404,0.902-0.902v-9.558h1.835v5.355c0,0.498,0.404,0.902,0.902,0.902
		c2.612,0,4.737-2.125,4.737-4.737v-8.788C46.733,17.773,44.608,15.649,41.996,15.649L41.996,15.649z M3.192,25.848V23.71H5.22
		v2.138H3.192z M18.138,7.941h11.125V9.15H18.138V7.941z M23.054,10.954h1.293v2.283h-1.293V10.954z M7.025,18.285h0.641v13.242
		H7.025V18.285z M14.791,31.877c-0.171-0.22-0.434-0.35-0.713-0.35H9.471V18.285h0.718c0.33,0,0.634-0.181,0.792-0.471l1.509-2.772
		h19.365l0.78,2.6c0.114,0.382,0.466,0.643,0.864,0.643h1.62v18.024H18.226L14.791,31.877z M37.454,36.309h-0.532V18.285h0.532
		V36.309z M39.259,25.848V23.71h1.835v2.138H39.259z M44.928,29.173c0,1.302-0.853,2.409-2.03,2.79V17.595
		c1.177,0.381,2.03,1.488,2.03,2.79V29.173z M44.928,29.173"/>
</g>
</svg>
