<?xml version="1.0" encoding="utf-8"?>
<!-- Generator: Adobe Illustrator 17.0.0, SVG Export Plug-In . SVG Version: 6.00 Build 0)  -->
<!DOCTYPE svg PUBLIC "-//W3C//DTD SVG 1.1//EN" "http://www.w3.org/Graphics/SVG/1.1/DTD/svg11.dtd">
<svg version="1.1" id="Layer_1" xmlns="http://www.w3.org/2000/svg" xmlns:xlink="http://www.w3.org/1999/xlink" x="0px" y="0px"
	 width="48px" height="48px" viewBox="0 0 48 48" enable-background="new 0 0 48 48" xml:space="preserve">
<g transform="translate(1 1)">
	<path d="M15.896,38.629H8.792c-1.208,0-2.131-0.924-2.131-2.131V21.579c0-1.208,0.924-2.131,2.131-2.131h4.405
		c0.568,0,1.137,0.213,1.492,0.639l2.7,2.7c0.426,0.426,0.639,0.924,0.639,1.492v12.219C18.027,37.706,17.104,38.629,15.896,38.629z
		 M8.792,20.869c-0.426,0-0.71,0.284-0.71,0.71v14.919c0,0.426,0.284,0.71,0.71,0.71h7.104c0.426,0,0.71-0.284,0.71-0.71V24.279
		c0-0.213-0.071-0.355-0.213-0.497l-2.7-2.7c-0.142-0.142-0.284-0.213-0.497-0.213H8.792z"/>
	<path d="M20.869,44.313H3.819c-1.208,0-2.131-0.924-2.131-2.131V15.896c0-0.924,0.568-1.705,1.421-1.989v-2.273
		c0-1.208,0.924-2.131,2.131-2.131H6.66c1.208,0,2.131,0.924,2.131,2.131v2.131h5.896c0.924,0,1.847,0.355,2.486,1.066l4.76,4.76
		C22.574,20.229,23,21.153,23,22.076v20.105C23,43.389,22.076,44.313,20.869,44.313z M5.24,10.923c-0.426,0-0.71,0.284-0.71,0.71
		v2.842c0,0.426-0.284,0.71-0.71,0.71s-0.71,0.284-0.71,0.71v26.285c0,0.426,0.284,0.71,0.71,0.71h17.05
		c0.426,0,0.71-0.284,0.71-0.71V22.076c0-0.568-0.213-1.137-0.639-1.492l0,0l-4.76-4.76c-0.426-0.426-0.924-0.639-1.492-0.639H8.081
		c-0.426,0-0.71-0.284-0.71-0.71v-2.842c0-0.426-0.284-0.71-0.71-0.71L5.24,10.923L5.24,10.923z"/>
	<path d="M30.104,25.842c-0.284,0-0.568,0-0.924-0.071c-2.06-0.426-3.481-2.344-3.339-4.476
		c0.071-0.71,0.284-1.35,0.71-1.918c0.781-0.995,1.35-2.131,1.847-3.197l0.995-2.06c0.142-0.213,0.355-0.426,0.639-0.426l0,0
		c0.284,0,0.497,0.142,0.639,0.426l1.279,2.558l0,0c0.426,0.853,0.924,1.634,1.421,2.415l0.355,0.568
		c0.355,0.568,0.568,1.208,0.568,1.847c0,1.279-0.568,2.486-1.563,3.339C32.022,25.486,31.099,25.842,30.104,25.842z M30.104,16.038
		l-0.355,0.781c-0.568,1.137-1.208,2.344-1.989,3.481c-0.284,0.355-0.426,0.71-0.426,1.137c-0.071,1.421,0.853,2.7,2.202,2.984
		c0.853,0.213,1.705,0,2.415-0.568c0.639-0.568,1.066-1.35,1.066-2.202c0-0.426-0.071-0.781-0.355-1.137l-0.426-0.639
		c-0.497-0.853-1.066-1.634-1.492-2.558L30.104,16.038z"/>
	<path d="M13.054,26.552h-2.131c-0.426,0-0.71-0.284-0.71-0.71c0-0.426,0.284-0.71,0.71-0.71h2.131
		c0.426,0,0.71,0.284,0.71,0.71C13.765,26.268,13.48,26.552,13.054,26.552z"/>
	<path d="M13.054,30.104h-2.131c-0.426,0-0.71-0.284-0.71-0.71c0-0.426,0.284-0.71,0.71-0.71h2.131
		c0.426,0,0.71,0.284,0.71,0.71C13.765,29.82,13.48,30.104,13.054,30.104z"/>
	<path d="M13.054,33.656h-2.131c-0.426,0-0.71-0.284-0.71-0.71c0-0.426,0.284-0.71,0.71-0.71h2.131
		c0.426,0,0.71,0.284,0.71,0.71C13.765,33.372,13.48,33.656,13.054,33.656z"/>
	<path d="M40.76,44.313H20.869c-0.426,0-0.71-0.284-0.71-0.71s0.284-0.71,0.71-0.71c0.426,0,0.71-0.284,0.71-0.71
		V22.076c0-0.568-0.213-1.137-0.639-1.492l-4.76-4.76l-0.071-0.071c-0.142-0.142-0.213-0.355-0.213-0.568V9.502
		c0-1.989,1.563-3.552,3.552-3.552V3.819c0-1.208,0.924-2.131,2.131-2.131h2.842c1.208,0,2.131,0.924,2.131,2.131V5.95h8.738
		c0.924,0,1.847,0.355,2.486,1.066l5.47,5.47c0.639,0.639,1.066,1.563,1.066,2.486V40.76C44.313,42.75,42.75,44.313,40.76,44.313z
		 M22.858,42.892H40.76c1.208,0,2.131-0.924,2.131-2.131V14.972c0-0.568-0.213-1.137-0.639-1.492l0,0l-5.47-5.47
		c-0.355-0.426-0.924-0.639-1.492-0.639h-9.449c-0.426,0-0.71-0.284-0.71-0.71V3.819c0-0.426-0.284-0.71-0.71-0.71h-2.842
		c-0.426,0-0.71,0.284-0.71,0.71V6.66c0,0.426-0.284,0.71-0.71,0.71h-0.71c-1.208,0-2.131,0.924-2.131,2.131v5.399l4.618,4.618
		C22.574,20.158,23,21.082,23,22.005v20.176C23,42.465,22.929,42.679,22.858,42.892z"/>
	<path d="M37.919,40.05H23.71c-1.208,0-2.131-0.924-2.131-2.131V21.437c0-0.213-0.071-0.355-0.213-0.497
		l-0.568-0.568c-0.426-0.426-0.639-0.924-0.639-1.492v-6.536c0-1.208,0.924-2.131,2.131-2.131h11.296
		c0.924,0,1.847,0.355,2.486,1.066l2.913,2.913c0.639,0.639,1.066,1.563,1.066,2.486v21.241C40.05,39.126,39.126,40.05,37.919,40.05
		z M22.29,11.633c-0.426,0-0.71,0.284-0.71,0.71v6.536c0,0.213,0.071,0.355,0.213,0.497l0.568,0.568
		C22.787,20.371,23,20.869,23,21.437v16.482c0,0.426,0.284,0.71,0.71,0.71h14.208c0.426,0,0.71-0.284,0.71-0.71V16.677
		c0-0.568-0.213-1.137-0.639-1.492l-2.913-2.913c-0.426-0.426-0.924-0.639-1.492-0.639H22.29z"/>
	<path d="M33.656,30.104h-7.104c-0.426,0-0.71-0.284-0.71-0.71c0-0.426,0.284-0.71,0.71-0.71h7.104
		c0.426,0,0.71,0.284,0.71,0.71C34.367,29.82,34.083,30.104,33.656,30.104z"/>
	<path d="M35.077,33.656h-9.946c-0.426,0-0.71-0.284-0.71-0.71c0-0.426,0.284-0.71,0.71-0.71h9.946
		c0.426,0,0.71,0.284,0.71,0.71C35.788,33.372,35.503,33.656,35.077,33.656z"/>
</g>
</svg>
