<?xml version="1.0" encoding="utf-8"?>
<!-- Generator: Adobe Illustrator 17.0.0, SVG Export Plug-In . SVG Version: 6.00 Build 0)  -->
<!DOCTYPE svg PUBLIC "-//W3C//DTD SVG 1.1//EN" "http://www.w3.org/Graphics/SVG/1.1/DTD/svg11.dtd">
<svg version="1.1" id="Layer_1" xmlns="http://www.w3.org/2000/svg" xmlns:xlink="http://www.w3.org/1999/xlink" x="0px" y="0px"
	 width="48px" height="48px" viewBox="0 0 48 48" enable-background="new 0 0 48 48" xml:space="preserve">
<g>
	<path d="M40.801,16.074c-0.467,0-0.845,0.378-0.845,0.845v5.016h-1.719v-4.237c0-0.467-0.378-0.845-0.845-0.845H33.47l-0.73-2.435
		c-0.107-0.358-0.437-0.603-0.81-0.603h-5.971v-2.138h3.76c0.467,0,0.845-0.378,0.845-0.845V8.01c0-0.467-0.378-0.845-0.845-0.845
		H17.608c-0.467,0-0.846,0.378-0.846,0.845v2.822c0,0.467,0.378,0.845,0.846,0.845h3.76v2.138h-8.708
		c-0.31,0-0.594,0.169-0.743,0.441l-1.413,2.596H7.198c-0.467,0-0.845,0.379-0.845,0.846v4.237h-1.9v-6.043
		c0-0.467-0.378-0.846-0.845-0.846c-0.467,0-0.845,0.379-0.845,0.846v17.469c0,0.467,0.378,0.845,0.845,0.845
		c0.467,0,0.845-0.378,0.845-0.845v-6.043h1.9v4.474c0,0.467,0.378,0.845,0.845,0.845h7.038l3.218,4.152
		c0.062,0.079,0.136,0.146,0.219,0.198v-2.675l-2.354-3.037c-0.16-0.206-0.407-0.328-0.668-0.328h-4.316V18.544h0.673
		c0.309,0,0.594-0.169,0.742-0.442l1.413-2.596h18.139l0.73,2.435c0.107,0.358,0.436,0.603,0.809,0.603h1.517v16.884h-3.872
		c0.002,0.563,0.003,1.127,0.001,1.69h6.905c0.467,0,0.845-0.378,0.845-0.845v-8.953h1.719v5.016c0,0.467,0.378,0.845,0.845,0.845
		c2.446,0,4.437-1.99,4.437-4.437v-8.232C45.238,18.064,43.247,16.074,40.801,16.074z M6.352,25.628h-1.9v-2.003h1.9V25.628z
		 M8.644,30.948H8.043V18.544h0.601V30.948z M18.453,9.987V8.855h10.421v1.132H18.453z M24.269,13.815h-1.212v-2.138h1.212V13.815z
		 M36.547,35.428h-0.498V18.544h0.498V35.428z M39.956,25.628h-1.719v-2.003h1.719V25.628z M43.547,28.743
		c0,1.22-0.799,2.256-1.901,2.614V17.898c1.102,0.357,1.901,1.394,1.901,2.614V28.743z"/>
	<path d="M43.547,28.743"/>
</g>
<g>
	<path d="M30.228,25.254v0.86h-3.332v-0.86H30.228z M28.831,27.128h-1.934v0.86h1.934V27.128z M26.897,29.861h3.332v-0.86h-3.332
		V29.861z M28.831,30.876h-1.934v0.86h1.934V30.876z M26.897,33.609h3.332v-0.86h-3.332V33.609z M27.416,38.508
		c0,2.4-1.952,4.353-4.352,4.353c-2.4,0-4.353-1.953-4.353-4.353c0-1.555,0.817-2.969,2.149-3.751V24.89
		c0-1.215,0.988-2.203,2.203-2.203c1.215,0,2.203,0.988,2.203,2.203v9.867C26.599,35.539,27.416,36.953,27.416,38.508L27.416,38.508
		z M26.556,38.508c0-1.32-0.733-2.513-1.914-3.112l-0.235-0.12V24.891c0-0.741-0.603-1.343-1.343-1.343
		c-0.741,0-1.343,0.602-1.343,1.343v10.386l-0.235,0.12c-1.181,0.6-1.915,1.793-1.915,3.112c0,1.926,1.567,3.493,3.493,3.493
		C24.989,42.001,26.556,40.434,26.556,38.508L26.556,38.508z M25.84,38.508c0,1.531-1.245,2.776-2.776,2.776
		c-1.531,0-2.776-1.245-2.776-2.776c0-1.255,0.848-2.357,2.062-2.679l0.159-0.042v-5.303h1.11v5.302l0.159,0.043
		C24.993,36.151,25.84,37.254,25.84,38.508L25.84,38.508z M23.201,36.658c-0.066-0.294-0.362-0.488-0.663-0.419
		c-1.052,0.238-1.787,1.158-1.787,2.238c0,0.306,0.249,0.555,0.554,0.555c0.306,0,0.555-0.249,0.555-0.555
		c0-0.549,0.388-1.035,0.923-1.156C23.08,37.252,23.268,36.955,23.201,36.658L23.201,36.658z M23.201,36.658"/>
</g>
</svg>
