<?xml version="1.0" encoding="utf-8"?>
<!-- Generator: Adobe Illustrator 17.0.0, SVG Export Plug-In . SVG Version: 6.00 Build 0)  -->
<!DOCTYPE svg PUBLIC "-//W3C//DTD SVG 1.1//EN" "http://www.w3.org/Graphics/SVG/1.1/DTD/svg11.dtd">
<svg version="1.1" id="Layer_1" xmlns="http://www.w3.org/2000/svg" xmlns:xlink="http://www.w3.org/1999/xlink" x="0px" y="0px"
	 width="48px" height="48px" viewBox="0 0 48 48" enable-background="new 0 0 48 48" xml:space="preserve">
<g>
	<path d="M24.108,17.283c-0.757,0-1.262,0.505-1.262,1.263v9.09c0,0.757,0.505,1.263,1.262,1.263c0.757,0,1.263-0.505,1.263-1.263
		v-9.09C25.371,17.788,24.866,17.283,24.108,17.283L24.108,17.283z M24.108,17.283"/>
	<g>
		<path d="M24.866,33.191c-0.505-0.505-1.263-0.505-1.768,0c-0.252,0.252-0.252,0.757-0.252,1.01c0,0.504,0,0.757,0.252,1.01
			c0.253,0.252,0.757,0.252,1.01,0.252c0.252,0,0.757,0,0.505-0.252c0.252-0.252,0.504-0.757,0.504-1.01
			C25.119,33.696,25.119,33.443,24.866,33.191L24.866,33.191z M24.866,33.191"/>
		<path d="M44.562,33.443L29.663,7.435c-1.01-2.02-3.282-3.283-5.555-3.283c-2.272,0-4.292,1.263-5.555,3.283L3.655,33.443
			c-1.262,2.021-1.262,4.545,0,6.565c1.01,2.02,3.283,3.283,5.556,3.283h29.795c2.525,0,4.545-1.263,5.556-3.283
			C45.824,37.988,45.824,35.464,44.562,33.443L44.562,33.443z M42.542,38.999c-0.505,1.263-1.768,2.02-3.283,2.02H9.211
			c-1.263,0-2.525-0.757-3.283-2.02c-0.757-1.263-0.757-2.778,0-4.04L20.826,8.95c0.505-1.263,1.768-2.02,3.283-2.02
			c1.515,0,2.778,0.757,3.535,2.02l14.898,26.008C43.299,36.221,43.299,37.736,42.542,38.999L42.542,38.999z M42.542,38.999"/>
	</g>
</g>
</svg>
