<?xml version="1.0" encoding="utf-8"?>
<!-- Generator: Adobe Illustrator 19.0.0, SVG Export Plug-In . SVG Version: 6.00 Build 0)  -->
<svg version="1.1" id="Layer_1" xmlns="http://www.w3.org/2000/svg" xmlns:xlink="http://www.w3.org/1999/xlink" x="0px" y="0px"
	 width="47px" height="77px" viewBox="0 0 47 77" style="enable-background:new 0 0 47 77;" xml:space="preserve">
<g id="New_Pin">
	
		<line id="Leg" style="fill:none;stroke:#555555;stroke-width:1.5;stroke-linecap:round;stroke-miterlimit:10;" x1="23.6" y1="44.5" x2="23.6" y2="76.2"/>
	<g id="Circle">
		<path id="XMLID_16_" style="opacity:0.8;fill:#FFFFFF;" d="M23.5,45C11.6,45,2,35.4,2,23.5S11.6,2,23.5,2C35.4,2,45,11.7,45,23.5
			S35.4,45,23.5,45z"/>
		<path id="XMLID_13_" style="fill:#FF9E80;" d="M23.5,4C34.3,4,43,12.7,43,23.5S34.3,43,23.5,43S4,34.3,4,23.5S12.7,4,23.5,4
			 M23.5,0C10.5,0,0,10.6,0,23.5S10.5,47,23.5,47S47,36.5,47,23.5S36.5,0,23.5,0L23.5,0z"/>
	</g>
</g>
<path id="Boat_1_" style="fill:#FF9E80;" d="M30.5,31.4c-1.2,0-2.4-0.4-3.5-1.2c-2.1,1.5-4.9,1.5-7,0c-1.1,0.7-2.3,1.2-3.5,1.2h-1.7
	v1.7h1.7c1.2,0,2.4-0.3,3.5-0.9c2.2,1.1,4.8,1.1,7,0c1.1,0.6,2.3,0.9,3.5,0.9h1.7v-1.7H30.5z M16.5,29.6L16.5,29.6
	c1.4,0,2.7-0.8,3.5-1.7c0.9,1,2.1,1.7,3.5,1.7s2.6-0.8,3.5-1.7c0.9,1,2.1,1.7,3.5,1.7h0l1.6-5.8c0.1-0.2,0.1-0.5-0.1-0.7
	c-0.1-0.2-0.3-0.4-0.5-0.4l-1.1-0.4v-4c0-1-0.8-1.7-1.7-1.7h-2.6v-2.6h-5.2v2.6h-2.6c-1,0-1.7,0.8-1.7,1.7v4l-1.1,0.4
	c-0.2,0.1-0.4,0.2-0.5,0.4s-0.1,0.5-0.1,0.7L16.5,29.6z M18.3,18.3h10.5v3.5L23.5,20l-5.2,1.7V18.3z"/>
</svg>
