<?xml version="1.0" encoding="utf-8"?>
<!-- Generator: Adobe Illustrator 19.0.0, SVG Export Plug-In . SVG Version: 6.00 Build 0)  -->
<svg version="1.1" id="Layer_1" xmlns="http://www.w3.org/2000/svg" xmlns:xlink="http://www.w3.org/1999/xlink" x="0px" y="0px"
	 width="47px" height="47px" viewBox="0 0 47 47" style="enable-background:new 0 0 47 47;" xml:space="preserve">
<g id="Circle_22_">
	<path id="XMLID_16_" style="opacity:0.8;fill:#FFFFFF;" d="M23.5,45C11.6,45,2,35.4,2,23.5S11.6,2,23.5,2C35.4,2,45,11.6,45,23.5
		S35.4,45,23.5,45z"/>
	<path id="XMLID_13_" style="fill:#FF9E80;" d="M23.5,4C34.3,4,43,12.7,43,23.5S34.3,43,23.5,43S4,34.3,4,23.5S12.7,4,23.5,4
		 M23.5,0C10.5,0,0,10.5,0,23.5S10.5,47,23.5,47S47,36.5,47,23.5S36.5,0,23.5,0L23.5,0z"/>
</g>
<g id="Radiator_4_">
	<path id="XMLID_174_" style="fill:#FF9E80;" d="M13.1,25.7h-0.6c-0.1,0-0.2-0.1-0.2-0.2v-2.3c0-0.1,0.1-0.2,0.2-0.2h0.6
		c0.1,0,0.2,0.1,0.2,0.2v2.3C13.3,25.6,13.2,25.7,13.1,25.7z"/>
	<path id="XMLID_173_" style="fill:#FF9E80;" d="M14.7,25.7h-0.6c-0.1,0-0.2-0.1-0.2-0.2v-2.3c0-0.1,0.1-0.2,0.2-0.2h0.6
		c0.1,0,0.2,0.1,0.2,0.2v2.3C14.9,25.6,14.8,25.7,14.7,25.7z"/>
	<path id="XMLID_172_" style="fill:#FF9E80;" d="M16.2,25.7h-0.6c-0.1,0-0.2-0.1-0.2-0.2v-2.3c0-0.1,0.1-0.2,0.2-0.2h0.6
		c0.1,0,0.2,0.1,0.2,0.2v2.3C16.5,25.6,16.4,25.7,16.2,25.7z"/>
</g>
<path id="XMLID_32_" style="fill:#FF9E80;" d="M39.2,32L36,31.5l-2.9-3.7l-0.2-4.6c0-0.3-0.2-0.7-0.5-0.9l-1-0.7l1.1-6.3
	c0.1-0.4-0.3-0.8-0.7-0.8l-6.7,0c-0.3,0-0.5,0.2-0.5,0.5l0.3,4.9c0,0.1-0.1,0.2-0.2,0.2l-3,0.1c-0.1,0-0.4,0.1-0.4-0.1
	c-0.2-0.3-0.6-0.3-1-0.3h-9.4c-0.5,0-1.3,0-1.3,0.6v8.2c0,0.1-0.9-0.2-0.9,0.8c0,0.8,0.6,0.8,1.8,0.8l1.6,0c0.2,1.1,1.2,1.9,2.4,1.9
	c1.2,0,2.1-0.8,2.4-1.9l6.6,0.1c0.9,1.1,2.2,1.8,3.7,1.8c1.3,0,2.5-0.5,3.4-1.4v0h2.4c0.2,0,0.4-0.4,0.4-0.6l0-0.8l2.3,2.9l3.7,0
	c0.1,0,0.3-0.1,0.3-0.2v0C39.4,32.1,39.3,32,39.2,32z M25.9,15.6l5.1,0c0.3,0,0.6,0.3,0.6,0.6l-1.1,5.2l-4.8-1L25.5,16
	C25.5,15.8,25.7,15.6,25.9,15.6z M15.7,30.5c-0.2,0.5-0.8,0.9-1.4,0.9c-0.6,0-1.2-0.4-1.4-1c-0.1-0.2-0.1-0.3-0.1-0.5
	c0-0.2,0-0.4,0.1-0.5c0.2-0.6,0.8-1,1.4-1c0.7,0,1.2,0.4,1.4,1c0.1,0.2,0.1,0.3,0.1,0.5C15.8,30.1,15.7,30.3,15.7,30.5z M27,31.3
	c-2.1,0-3.8-1.7-3.8-3.8c0-2.1,1.7-3.8,3.8-3.8s3.8,1.7,3.8,3.8C30.8,29.6,29.1,31.3,27,31.3z M21,21.2l4,0c0.1,0,0.1,0,0.2,0
	l5.7,1.1l0.6,0.5c0.3,0.2,0.5,0.5,0.5,0.9l0.2,5.7c0,0.2-0.2,0.6-0.4,0.6h-0.6c0.4-0.7,0.7-1.6,0.7-2.5c0-2.8-2.3-4.9-5.1-4.9
	c-1.3,0-2.4,0.4-3.2,1.2c0,0-0.5,0.4-0.7,0.8c-0.5,0.8-0.7,1.8-0.7,2.7c0,0.7,0.2,1.5,0.4,2.1l-5.9-0.1c-0.2-1.1-1.2-2-2.4-2
	c-1.2,0-2.2,0.8-2.4,1.9l-1.4,0l0-8.4l9.1-0.1L21,21.2z"/>
<g id="Grinder_2_">
	<rect id="XMLID_169_" x="37.6" y="28" style="fill:#FF9E80;" width="3.3" height="0.3"/>
	
		<rect id="XMLID_168_" x="39.4" y="28" transform="matrix(0.848 0.5299 -0.5299 0.848 21.4956 -16.5402)" style="fill:#FF9E80;" width="0.3" height="2.4"/>
	
		<rect id="XMLID_167_" x="36.8" y="29.4" transform="matrix(0.5 0.866 -0.866 0.5 44.8365 -18.5347)" style="fill:#FF9E80;" width="3.3" height="0.3"/>
	
		<rect id="XMLID_166_" x="37.5" y="29.1" transform="matrix(-3.489950e-02 0.9994 -0.9994 -3.489950e-02 69.3116 -6.2293)" style="fill:#FF9E80;" width="0.3" height="2.4"/>
	
		<rect id="XMLID_165_" x="35.1" y="29.4" transform="matrix(-0.5 0.866 -0.866 -0.5 80.7846 12.4666)" style="fill:#FF9E80;" width="3.3" height="0.3"/>
	
		<rect id="XMLID_164_" x="35.6" y="28" transform="matrix(-0.8829 0.4695 -0.4695 -0.8829 80.9656 38.3141)" style="fill:#FF9E80;" width="0.3" height="2.4"/>
	<rect id="XMLID_154_" x="34.3" y="28" style="fill:#FF9E80;" width="3.3" height="0.3"/>
	
		<rect id="XMLID_153_" x="35.5" y="25.8" transform="matrix(-0.848 -0.5299 0.5299 -0.848 51.642 68.8259)" style="fill:#FF9E80;" width="0.3" height="2.4"/>
	
		<rect id="XMLID_109_" x="35.1" y="26.5" transform="matrix(-0.5 -0.866 0.866 -0.5 32.106 71.8594)" style="fill:#FF9E80;" width="3.3" height="0.3"/>
	
		<rect id="XMLID_108_" x="37.5" y="24.7" transform="matrix(3.489950e-02 -0.9994 0.9994 3.489950e-02 10.435 62.5491)" style="fill:#FF9E80;" width="0.3" height="2.4"/>
	
		<rect id="XMLID_105_" x="36.8" y="26.5" transform="matrix(0.5 -0.866 0.866 0.5 -3.8491 46.6347)" style="fill:#FF9E80;" width="3.3" height="0.3"/>
	
		<rect id="XMLID_104_" x="39.4" y="25.7" transform="matrix(0.8829 -0.4695 0.4695 0.8829 -8.0248 21.7223)" style="fill:#FF9E80;" width="0.3" height="2.4"/>
</g>
</svg>
