<?xml version="1.0" encoding="utf-8"?>
<!-- Generator: Adobe Illustrator 19.0.0, SVG Export Plug-In . SVG Version: 6.00 Build 0)  -->
<svg version="1.1" id="Layer_1" xmlns="http://www.w3.org/2000/svg" xmlns:xlink="http://www.w3.org/1999/xlink" x="0px" y="0px"
	 width="47px" height="47px" viewBox="0 0 47 47" style="enable-background:new 0 0 47 47;" xml:space="preserve">
<g id="Circle_28_">
	<path id="XMLID_16_" style="opacity:0.8;fill:#FFFFFF;" d="M23.5,45C11.6,45,2,35.4,2,23.5S11.6,2,23.5,2C35.4,2,45,11.6,45,23.5
		S35.4,45,23.5,45z"/>
	<path id="XMLID_13_" style="fill:#FF9E80;" d="M23.5,4C34.3,4,43,12.7,43,23.5S34.3,43,23.5,43S4,34.3,4,23.5S12.7,4,23.5,4
		 M23.5,0C10.5,0,0,10.5,0,23.5S10.5,47,23.5,47S47,36.5,47,23.5S36.5,0,23.5,0L23.5,0z"/>
</g>
<g id="forklift_1_">
	<path id="chassis_1_" style="fill:#FF9E80;" d="M31.1,28.4L31,24.6c-0.2-1.8-1.2-1.9-1.2-1.9l-1.4-3.6c-0.4-0.8-1.5-1-2.5-1h-1.9
		c-1.1,0-2,0.9-2,1.9v2.7h-7.6c-0.4,0-0.7,0.3-0.7,0.6v4.6c0,1,0.4,1.3,1.1,1.3h0.9c0.4,1,1.4,1.8,2.6,1.8c1.2,0,2.2-0.7,2.6-1.8
		h2.3c0.4,1,1.4,1.8,2.6,1.8c1.2,0,2.2-0.7,2.6-1.8l1.8,0c0.2,0,0.4-0.1,0.5-0.2C31,28.8,31.1,28.6,31.1,28.4z M19.9,28.3
		c0,0.8-0.6,1.4-1.4,1.4s-1.4-0.6-1.4-1.4c0-0.8,0.6-1.4,1.4-1.4C19.3,26.9,19.9,27.5,19.9,28.3z M27.4,28.3c0,0.8-0.6,1.4-1.4,1.4
		c-0.8,0-1.4-0.6-1.4-1.4c0-0.8,0.6-1.4,1.4-1.4C26.8,26.9,27.4,27.5,27.4,28.3z M22,27.9h-0.8c-0.2-1.3-1.4-2.3-2.7-2.3
		s-2.5,1-2.7,2.3h-0.6v-3.9l8.1,0l0-3.8c0-0.5,0.4-0.9,0.9-0.9h2c0,0,1.1,0,1.3,0.5c0.5,1.3,1.5,3.9,1.5,3.9c0.6,0,0.6,0.9,0.6,1.4
		l0.1,2.8l-0.9,0v0c-0.2-1.3-1.4-2.3-2.7-2.3c-1.4,0-2.5,1-2.7,2.3h-1.9L22,27.9z"/>
	<g id="fork_1_">
		<path id="XMLID_159_" style="fill:#FF9E80;" d="M31.1,29.2L31.1,29.2c-0.3,0-0.6-0.2-0.6-0.6l-0.6-11.9c0-0.3,0.2-0.6,0.6-0.6l0,0
			c0.3,0,0.6,0.2,0.6,0.6l0.6,11.9C31.7,28.9,31.4,29.2,31.1,29.2z"/>
		<path id="XMLID_158_" style="fill:#FF9E80;" d="M37.3,28.9l-6.2,0.3c-0.3,0-0.6-0.2-0.6-0.6v0c0-0.3,0.2-0.6,0.6-0.6l6.2-0.3
			c0.3,0,0.6,0.2,0.6,0.6v0C37.9,28.6,37.6,28.9,37.3,28.9z"/>
	</g>
</g>
</svg>
