<?xml version="1.0" encoding="utf-8"?>
<!-- Generator: Adobe Illustrator 19.0.0, SVG Export Plug-In . SVG Version: 6.00 Build 0)  -->
<svg version="1.1" id="Layer_1" xmlns="http://www.w3.org/2000/svg" xmlns:xlink="http://www.w3.org/1999/xlink" x="0px" y="0px"
	 width="47px" height="77px" viewBox="0 0 47 77" style="enable-background:new 0 0 47 77;" xml:space="preserve">
<line id="Leg" style="fill:none;stroke:#555555;stroke-width:1.5;stroke-linecap:round;stroke-miterlimit:10;" x1="23.6" y1="44.5" x2="23.6" y2="76.2"/>
<g id="Circle">
	<path id="XMLID_16_" style="opacity:0.8;fill:#FFFFFF;" d="M23.5,45C11.6,45,2,35.4,2,23.5S11.6,2,23.5,2C35.4,2,45,11.6,45,23.5
		S35.4,45,23.5,45z"/>
	<path id="XMLID_13_" style="fill:#FF9E80;" d="M23.5,4C34.3,4,43,12.7,43,23.5S34.3,43,23.5,43S4,34.3,4,23.5S12.7,4,23.5,4
		 M23.5,0C10.5,0,0,10.5,0,23.5S10.5,47,23.5,47S47,36.5,47,23.5S36.5,0,23.5,0L23.5,0z"/>
</g>
<g id="Chilled">
	
		<line style="fill:none;stroke:#61B7FF;stroke-width:0.5;stroke-linecap:round;stroke-miterlimit:10;" x1="20.8" y1="11.3" x2="23.8" y2="11.3"/>
	
		<line style="fill:none;stroke:#61B7FF;stroke-width:0.2;stroke-linecap:round;stroke-miterlimit:10;" x1="22.6" y1="11.3" x2="23.2" y2="10.2"/>
	
		<line style="fill:none;stroke:#61B7FF;stroke-width:0.2;stroke-linecap:round;stroke-miterlimit:10;" x1="21.4" y1="11.3" x2="21" y2="10.6"/>
	
		<line style="fill:none;stroke:#61B7FF;stroke-width:0.2;stroke-linecap:round;stroke-miterlimit:10;" x1="21.4" y1="11.2" x2="21" y2="11.9"/>
	
		<line style="fill:none;stroke:#61B7FF;stroke-width:0.5;stroke-linecap:round;stroke-miterlimit:10;" x1="22.3" y1="13.9" x2="23.8" y2="11.3"/>
	
		<line style="fill:none;stroke:#61B7FF;stroke-width:0.2;stroke-linecap:round;stroke-miterlimit:10;" x1="23.2" y1="12.3" x2="22.6" y2="11.3"/>
	
		<line style="fill:none;stroke:#61B7FF;stroke-width:0.2;stroke-linecap:round;stroke-miterlimit:10;" x1="22.6" y1="13.3" x2="21.8" y2="13.3"/>
	
		<line style="fill:none;stroke:#61B7FF;stroke-width:0.2;stroke-linecap:round;stroke-miterlimit:10;" x1="22.6" y1="13.3" x2="23" y2="14"/>
	
		<line style="fill:none;stroke:#61B7FF;stroke-width:0.5;stroke-linecap:round;stroke-miterlimit:10;" x1="25.3" y1="13.9" x2="23.8" y2="11.3"/>
	
		<line style="fill:none;stroke:#61B7FF;stroke-width:0.2;stroke-linecap:round;stroke-miterlimit:10;" x1="24.4" y1="12.3" x2="23.2" y2="12.3"/>
	
		<line style="fill:none;stroke:#61B7FF;stroke-width:0.2;stroke-linecap:round;stroke-miterlimit:10;" x1="25" y1="13.3" x2="24.6" y2="14"/>
	
		<line style="fill:none;stroke:#61B7FF;stroke-width:0.2;stroke-linecap:round;stroke-miterlimit:10;" x1="25" y1="13.3" x2="25.7" y2="13.3"/>
	
		<line style="fill:none;stroke:#61B7FF;stroke-width:0.5;stroke-linecap:round;stroke-miterlimit:10;" x1="26.8" y1="11.3" x2="23.8" y2="11.3"/>
	
		<line style="fill:none;stroke:#61B7FF;stroke-width:0.2;stroke-linecap:round;stroke-miterlimit:10;" x1="25" y1="11.3" x2="24.4" y2="12.3"/>
	
		<line style="fill:none;stroke:#61B7FF;stroke-width:0.2;stroke-linecap:round;stroke-miterlimit:10;" x1="26.2" y1="11.3" x2="26.5" y2="11.9"/>
	
		<line style="fill:none;stroke:#61B7FF;stroke-width:0.2;stroke-linecap:round;stroke-miterlimit:10;" x1="26.2" y1="11.3" x2="26.5" y2="10.6"/>
	
		<line style="fill:none;stroke:#61B7FF;stroke-width:0.5;stroke-linecap:round;stroke-miterlimit:10;" x1="25.3" y1="8.7" x2="23.8" y2="11.3"/>
	
		<line style="fill:none;stroke:#61B7FF;stroke-width:0.2;stroke-linecap:round;stroke-miterlimit:10;" x1="24.4" y1="10.2" x2="25" y2="11.3"/>
	
		<line style="fill:none;stroke:#61B7FF;stroke-width:0.2;stroke-linecap:round;stroke-miterlimit:10;" x1="25" y1="9.2" x2="25.7" y2="9.2"/>
	
		<line style="fill:none;stroke:#61B7FF;stroke-width:0.2;stroke-linecap:round;stroke-miterlimit:10;" x1="25" y1="9.2" x2="24.6" y2="8.5"/>
	
		<line style="fill:none;stroke:#61B7FF;stroke-width:0.5;stroke-linecap:round;stroke-miterlimit:10;" x1="22.3" y1="8.7" x2="23.8" y2="11.3"/>
	
		<line style="fill:none;stroke:#61B7FF;stroke-width:0.2;stroke-linecap:round;stroke-miterlimit:10;" x1="23.2" y1="10.2" x2="24.4" y2="10.2"/>
	
		<line style="fill:none;stroke:#61B7FF;stroke-width:0.2;stroke-linecap:round;stroke-miterlimit:10;" x1="22.6" y1="9.2" x2="23" y2="8.5"/>
	
		<line style="fill:none;stroke:#61B7FF;stroke-width:0.2;stroke-linecap:round;stroke-miterlimit:10;" x1="22.6" y1="9.2" x2="21.8" y2="9.2"/>
</g>
<path style="fill:#FF9E80;" d="M11.9,30.2c0.2,1,1.1,1.8,2.3,1.8c1.1,0,2.1-0.8,2.3-1.8h0.8c0.2,1,1.1,1.8,2.3,1.8
	c1.1,0,2.1-0.8,2.3-1.8h7.7h1.3c0.2,1,1.1,1.8,2.3,1.8s2.1-0.8,2.3-1.8l2,0c0.6,0,0.9-0.3,0.9-0.8v-5.8c0-1.5-0.7-2.6-1.6-3.4
	C36,19.3,34.6,19,33.3,19h-3.2v-1.5c0-0.3-0.3-0.6-0.7-0.6H10.3c-0.3,0-0.4,0.2-0.4,0.5v12.2c0,0.3,0.3,0.5,0.6,0.5 M14.2,31
	c-0.6,0-1.1-0.5-1.1-1.1c0-0.6,0.5-1.1,1.1-1.1s1.1,0.5,1.1,1.1C15.3,30.5,14.8,31,14.2,31z M19.5,31c-0.6,0-1.1-0.5-1.1-1.1
	c0-0.6,0.5-1.1,1.1-1.1s1.1,0.5,1.1,1.1C20.7,30.5,20.2,31,19.5,31z M29.2,19.3v9.8h-5.6h-1.9c-0.3-1-1.2-1.5-2.2-1.5
	c-1,0-1.9,0.4-2.2,1.5h-1c-0.3-1-1.2-1.5-2.2-1.5c-1,0-1.9,0.4-2.2,1.5h-1.1V18h18.3V19.3z M33.1,31c-0.6,0-1.1-0.5-1.1-1.1
	c0-0.6,0.5-1.1,1.1-1.1c0.6,0,1.1,0.5,1.1,1.1C34.3,30.5,33.7,31,33.1,31z M37.3,29.1h-0.7h-1.3c-0.3-1-1.2-1.5-2.2-1.5
	s-1.9,0.4-2.2,1.5h-0.7V20h3.2c2,0,4,1.3,4,3.6V29.1z"/>
</svg>
