<?xml version="1.0" encoding="utf-8"?>
<!-- Generator: Adobe Illustrator 19.0.0, SVG Export Plug-In . SVG Version: 6.00 Build 0)  -->
<svg version="1.1" id="Layer_1" xmlns="http://www.w3.org/2000/svg" xmlns:xlink="http://www.w3.org/1999/xlink" x="0px" y="0px"
	 width="47px" height="47px" viewBox="0 0 47 47" style="enable-background:new 0 0 47 47;" xml:space="preserve">
<g id="Circle_12_">
	<path id="XMLID_16_" style="opacity:0.8;fill:#FFFFFF;" d="M23.5,45C11.6,45,2,35.4,2,23.5S11.6,2,23.5,2C35.4,2,45,11.6,45,23.5
		S35.4,45,23.5,45z"/>
	<path id="XMLID_13_" style="fill:#FF9E80;" d="M23.5,4C34.3,4,43,12.7,43,23.5S34.3,43,23.5,43S4,34.3,4,23.5S12.7,4,23.5,4
		 M23.5,0C10.5,0,0,10.5,0,23.5S10.5,47,23.5,47S47,36.5,47,23.5S36.5,0,23.5,0L23.5,0z"/>
</g>
<g id="Frozen_2_">
	<g id="Snowflake_6_">
		
			<line style="fill:none;stroke:#61B7FF;stroke-width:0.5;stroke-linecap:round;stroke-miterlimit:10;" x1="25.3" y1="11.3" x2="28.3" y2="11.3"/>
		
			<line style="fill:none;stroke:#61B7FF;stroke-width:0.2;stroke-linecap:round;stroke-miterlimit:10;" x1="27.1" y1="11.3" x2="27.7" y2="10.2"/>
		
			<line style="fill:none;stroke:#61B7FF;stroke-width:0.2;stroke-linecap:round;stroke-miterlimit:10;" x1="25.9" y1="11.3" x2="25.5" y2="10.6"/>
		
			<line style="fill:none;stroke:#61B7FF;stroke-width:0.2;stroke-linecap:round;stroke-miterlimit:10;" x1="25.9" y1="11.2" x2="25.5" y2="11.9"/>
		
			<line style="fill:none;stroke:#61B7FF;stroke-width:0.5;stroke-linecap:round;stroke-miterlimit:10;" x1="26.8" y1="13.9" x2="28.3" y2="11.3"/>
		
			<line style="fill:none;stroke:#61B7FF;stroke-width:0.2;stroke-linecap:round;stroke-miterlimit:10;" x1="27.7" y1="12.3" x2="27.1" y2="11.3"/>
		
			<line style="fill:none;stroke:#61B7FF;stroke-width:0.2;stroke-linecap:round;stroke-miterlimit:10;" x1="27.1" y1="13.3" x2="26.3" y2="13.3"/>
		
			<line style="fill:none;stroke:#61B7FF;stroke-width:0.2;stroke-linecap:round;stroke-miterlimit:10;" x1="27.1" y1="13.3" x2="27.5" y2="14"/>
		
			<line style="fill:none;stroke:#61B7FF;stroke-width:0.5;stroke-linecap:round;stroke-miterlimit:10;" x1="29.8" y1="13.9" x2="28.3" y2="11.3"/>
		
			<line style="fill:none;stroke:#61B7FF;stroke-width:0.2;stroke-linecap:round;stroke-miterlimit:10;" x1="28.9" y1="12.3" x2="27.7" y2="12.3"/>
		
			<line style="fill:none;stroke:#61B7FF;stroke-width:0.2;stroke-linecap:round;stroke-miterlimit:10;" x1="29.5" y1="13.3" x2="29.1" y2="14"/>
		
			<line style="fill:none;stroke:#61B7FF;stroke-width:0.2;stroke-linecap:round;stroke-miterlimit:10;" x1="29.5" y1="13.3" x2="30.2" y2="13.3"/>
		
			<line style="fill:none;stroke:#61B7FF;stroke-width:0.5;stroke-linecap:round;stroke-miterlimit:10;" x1="31.3" y1="11.3" x2="28.3" y2="11.3"/>
		
			<line style="fill:none;stroke:#61B7FF;stroke-width:0.2;stroke-linecap:round;stroke-miterlimit:10;" x1="29.5" y1="11.3" x2="28.9" y2="12.3"/>
		
			<line style="fill:none;stroke:#61B7FF;stroke-width:0.2;stroke-linecap:round;stroke-miterlimit:10;" x1="30.7" y1="11.3" x2="31" y2="11.9"/>
		
			<line style="fill:none;stroke:#61B7FF;stroke-width:0.2;stroke-linecap:round;stroke-miterlimit:10;" x1="30.7" y1="11.3" x2="31" y2="10.6"/>
		
			<line style="fill:none;stroke:#61B7FF;stroke-width:0.5;stroke-linecap:round;stroke-miterlimit:10;" x1="29.8" y1="8.7" x2="28.3" y2="11.3"/>
		
			<line style="fill:none;stroke:#61B7FF;stroke-width:0.2;stroke-linecap:round;stroke-miterlimit:10;" x1="28.9" y1="10.2" x2="29.5" y2="11.3"/>
		
			<line style="fill:none;stroke:#61B7FF;stroke-width:0.2;stroke-linecap:round;stroke-miterlimit:10;" x1="29.5" y1="9.2" x2="30.2" y2="9.2"/>
		
			<line style="fill:none;stroke:#61B7FF;stroke-width:0.2;stroke-linecap:round;stroke-miterlimit:10;" x1="29.5" y1="9.2" x2="29.1" y2="8.5"/>
		
			<line style="fill:none;stroke:#61B7FF;stroke-width:0.5;stroke-linecap:round;stroke-miterlimit:10;" x1="26.8" y1="8.7" x2="28.3" y2="11.3"/>
		
			<line style="fill:none;stroke:#61B7FF;stroke-width:0.2;stroke-linecap:round;stroke-miterlimit:10;" x1="27.7" y1="10.2" x2="28.9" y2="10.2"/>
		
			<line style="fill:none;stroke:#61B7FF;stroke-width:0.2;stroke-linecap:round;stroke-miterlimit:10;" x1="27.1" y1="9.2" x2="27.5" y2="8.5"/>
		
			<line style="fill:none;stroke:#61B7FF;stroke-width:0.2;stroke-linecap:round;stroke-miterlimit:10;" x1="27.1" y1="9.2" x2="26.3" y2="9.2"/>
	</g>
	<g id="Snowflake_5_">
		
			<line style="fill:none;stroke:#61B7FF;stroke-width:0.5;stroke-linecap:round;stroke-miterlimit:10;" x1="16.3" y1="11.3" x2="19.3" y2="11.3"/>
		
			<line style="fill:none;stroke:#61B7FF;stroke-width:0.2;stroke-linecap:round;stroke-miterlimit:10;" x1="18.1" y1="11.3" x2="18.7" y2="10.2"/>
		
			<line style="fill:none;stroke:#61B7FF;stroke-width:0.2;stroke-linecap:round;stroke-miterlimit:10;" x1="16.9" y1="11.3" x2="16.5" y2="10.6"/>
		
			<line style="fill:none;stroke:#61B7FF;stroke-width:0.2;stroke-linecap:round;stroke-miterlimit:10;" x1="16.9" y1="11.2" x2="16.5" y2="11.9"/>
		
			<line style="fill:none;stroke:#61B7FF;stroke-width:0.5;stroke-linecap:round;stroke-miterlimit:10;" x1="17.8" y1="13.9" x2="19.3" y2="11.3"/>
		
			<line style="fill:none;stroke:#61B7FF;stroke-width:0.2;stroke-linecap:round;stroke-miterlimit:10;" x1="18.7" y1="12.3" x2="18.1" y2="11.3"/>
		
			<line style="fill:none;stroke:#61B7FF;stroke-width:0.2;stroke-linecap:round;stroke-miterlimit:10;" x1="18.1" y1="13.3" x2="17.3" y2="13.3"/>
		
			<line style="fill:none;stroke:#61B7FF;stroke-width:0.2;stroke-linecap:round;stroke-miterlimit:10;" x1="18.1" y1="13.3" x2="18.5" y2="14"/>
		
			<line style="fill:none;stroke:#61B7FF;stroke-width:0.5;stroke-linecap:round;stroke-miterlimit:10;" x1="20.8" y1="13.9" x2="19.3" y2="11.3"/>
		
			<line style="fill:none;stroke:#61B7FF;stroke-width:0.2;stroke-linecap:round;stroke-miterlimit:10;" x1="19.9" y1="12.3" x2="18.7" y2="12.3"/>
		
			<line style="fill:none;stroke:#61B7FF;stroke-width:0.2;stroke-linecap:round;stroke-miterlimit:10;" x1="20.5" y1="13.3" x2="20.1" y2="14"/>
		
			<line style="fill:none;stroke:#61B7FF;stroke-width:0.2;stroke-linecap:round;stroke-miterlimit:10;" x1="20.5" y1="13.3" x2="21.2" y2="13.3"/>
		
			<line style="fill:none;stroke:#61B7FF;stroke-width:0.5;stroke-linecap:round;stroke-miterlimit:10;" x1="22.3" y1="11.3" x2="19.3" y2="11.3"/>
		
			<line style="fill:none;stroke:#61B7FF;stroke-width:0.2;stroke-linecap:round;stroke-miterlimit:10;" x1="20.5" y1="11.3" x2="19.9" y2="12.3"/>
		
			<line style="fill:none;stroke:#61B7FF;stroke-width:0.2;stroke-linecap:round;stroke-miterlimit:10;" x1="21.7" y1="11.3" x2="22" y2="11.9"/>
		
			<line style="fill:none;stroke:#61B7FF;stroke-width:0.2;stroke-linecap:round;stroke-miterlimit:10;" x1="21.7" y1="11.3" x2="22" y2="10.6"/>
		
			<line style="fill:none;stroke:#61B7FF;stroke-width:0.5;stroke-linecap:round;stroke-miterlimit:10;" x1="20.8" y1="8.7" x2="19.3" y2="11.3"/>
		
			<line style="fill:none;stroke:#61B7FF;stroke-width:0.2;stroke-linecap:round;stroke-miterlimit:10;" x1="19.9" y1="10.2" x2="20.5" y2="11.3"/>
		
			<line style="fill:none;stroke:#61B7FF;stroke-width:0.2;stroke-linecap:round;stroke-miterlimit:10;" x1="20.5" y1="9.2" x2="21.2" y2="9.2"/>
		
			<line style="fill:none;stroke:#61B7FF;stroke-width:0.2;stroke-linecap:round;stroke-miterlimit:10;" x1="20.5" y1="9.2" x2="20.1" y2="8.5"/>
		
			<line style="fill:none;stroke:#61B7FF;stroke-width:0.5;stroke-linecap:round;stroke-miterlimit:10;" x1="17.8" y1="8.7" x2="19.3" y2="11.3"/>
		
			<line style="fill:none;stroke:#61B7FF;stroke-width:0.2;stroke-linecap:round;stroke-miterlimit:10;" x1="18.7" y1="10.2" x2="19.9" y2="10.2"/>
		
			<line style="fill:none;stroke:#61B7FF;stroke-width:0.2;stroke-linecap:round;stroke-miterlimit:10;" x1="18.1" y1="9.2" x2="18.5" y2="8.5"/>
		
			<line style="fill:none;stroke:#61B7FF;stroke-width:0.2;stroke-linecap:round;stroke-miterlimit:10;" x1="18.1" y1="9.2" x2="17.3" y2="9.2"/>
	</g>
</g>
<path id="MGV_3_" style="fill:#FF9E80;" d="M34.1,20.4c-0.8-0.8-1.9-1.2-3.1-1.2h-3.2v-1.7c0-0.3-0.3-0.6-0.6-0.6H12.9
	c-0.3,0-0.6,0.2-0.6,0.6v12.1c0,0.3,0.3,0.6,0.6,0.6h2.3c0.2,1,1.1,1.8,2.2,1.8c1.1,0,2.1-0.8,2.2-1.8h7.6h1.3
	c0.2,1,1.1,1.8,2.2,1.8c1.1,0,2.1-0.8,2.2-1.8h1.7c0.3,0,0.6-0.2,0.6-0.6v-5.7C35.4,22.4,35,21.2,34.1,20.4z M13.5,18h13.3v1.7V29
	h-7.1c-0.3-0.8-1.2-1.4-2.1-1.4s-1.8,0.6-2.1,1.4h-1.8V18z M17.5,30.8c-0.6,0-1.1-0.5-1.1-1.1s0.5-1.1,1.1-1.1s1.1,0.5,1.1,1.1
	C18.6,30.4,18.1,30.8,17.5,30.8z M30.8,30.8c-0.6,0-1.1-0.5-1.1-1.1s0.5-1.1,1.1-1.1c0.6,0,1.1,0.5,1.1,1.1
	C32,30.4,31.5,30.8,30.8,30.8z M34.2,29H33c-0.3-0.8-1.2-1.4-2.1-1.4S29,28.2,28.7,29h-0.8v-8.8h3.2c2,0,3.2,1.4,3.2,3.6L34.2,29
	L34.2,29z"/>
</svg>
