<?xml version="1.0" encoding="utf-8"?>
<!-- Generator: Adobe Illustrator 19.0.0, SVG Export Plug-In . SVG Version: 6.00 Build 0)  -->
<svg version="1.1" id="Layer_1" xmlns="http://www.w3.org/2000/svg" xmlns:xlink="http://www.w3.org/1999/xlink" x="0px" y="0px"
	 width="47px" height="47px" viewBox="0 0 47 47" style="enable-background:new 0 0 47 47;" xml:space="preserve">
<g id="Circle_38_">
	<path id="XMLID_16_" style="opacity:0.8;fill:#FFFFFF;" d="M23.5,45C11.6,45,2,35.4,2,23.5S11.6,2,23.5,2C35.4,2,45,11.6,45,23.5
		S35.4,45,23.5,45z"/>
	<path id="XMLID_13_" style="fill:#FF9E80;" d="M23.5,4C34.3,4,43,12.7,43,23.5S34.3,43,23.5,43S4,34.3,4,23.5S12.7,4,23.5,4
		 M23.5,0C10.5,0,0,10.5,0,23.5S10.5,47,23.5,47S47,36.5,47,23.5S36.5,0,23.5,0L23.5,0z"/>
</g>
<path id="Minibus2_1_" style="fill:#FF9E80;" d="M8.7,29.3c0,0.3,0.2,0.5,0.5,0.5h1.6c0.2,1,1.1,1.7,2.1,1.7s1.9-0.7,2.1-1.7h1.2
	l14.6,0c0.2,1,1.1,1.7,2.1,1.7c1.1,0,1.9-0.7,2.1-1.7h2.2c0.3,0,0.5-0.2,0.5-0.5V17.9c0-0.3-0.2-0.5-0.5-0.5c0,0-15.5,0-18.6,0
	c-2,0-6,1.3-9.7,7.8C8.5,26,8.7,28.3,8.7,29.3z M31.9,29.5c0-0.6,0.5-1,1.1-1c0.6,0,1.1,0.4,1.1,1s-0.5,1-1.1,1
	C32.4,30.5,31.9,30,31.9,29.5z M11.9,29.5c0-0.6,0.5-1,1.1-1c0.6,0,1.1,0.4,1.1,1s-0.5,1-1.1,1C12.4,30.5,11.9,30,11.9,29.5z
	 M15,28.8c-0.3-0.8-1.1-1.3-2-1.3s-1.7,0.6-2,1.3c0,0,0,0-1,0c-0.2,0-0.2-2.5,0.2-3.1c1.4-2.4,3.6-6.1,8-7.3c0.3-0.1,18.6,0,18.6,0
	v10.4H35c-0.3-0.8-1.1-1.3-2-1.3c-0.9,0-1.7,0.6-2,1.3L15,28.8z M27.7,24.6l-5.1-0.1c-1.6-0.3-2.4-0.8-2.4-2.2v-1
	c0-0.2,0.2-0.4,0.4-0.4h7V24.6z M34,20.9h-5.8v3.7l6.8,0.1c0.2,0,0.4-0.2,0.4-0.4v-2C35.4,21.3,34.4,20.9,34,20.9z"/>
</svg>
