<?xml version="1.0" encoding="utf-8"?>
<!-- Generator: Adobe Illustrator 19.0.0, SVG Export Plug-In . SVG Version: 6.00 Build 0)  -->
<svg version="1.1" id="Layer_1" xmlns="http://www.w3.org/2000/svg" xmlns:xlink="http://www.w3.org/1999/xlink" x="0px" y="0px"
	 width="47px" height="47px" viewBox="0 0 47 47" style="enable-background:new 0 0 47 47;" xml:space="preserve">
<g id="Circle_20_">
	<path id="XMLID_32_" style="opacity:0.8;fill:#FFFFFF;" d="M23.5,45C11.6,45,2,35.4,2,23.5S11.6,2,23.5,2C35.4,2,45,11.6,45,23.5
		S35.4,45,23.5,45z"/>
	<path id="XMLID_29_" style="fill:#FF9E80;" d="M23.5,4C34.3,4,43,12.7,43,23.5S34.3,43,23.5,43S4,34.3,4,23.5S12.7,4,23.5,4
		 M23.5,0C10.5,0,0,10.5,0,23.5S10.5,47,23.5,47S47,36.5,47,23.5S36.5,0,23.5,0L23.5,0z"/>
</g>
<path id="XMLID_147_" style="fill:#FF9E80;" d="M21.5,20.5c0,1-1.8,1.2-3.9,1.2s-3.9-0.2-3.9-1.2c0-1.1,1.8-1.2,3.9-1.2
	S21.5,19.5,21.5,20.5z"/>
<path id="XMLID_27_" style="fill:#FF9E80;" d="M36.7,24.9c-0.6-1.8-2.3-3-4.3-3c-0.2,0-0.5,0-0.7,0.1l-1.8-6.1
	c-0.1-0.5-0.6-0.8-1.1-0.8l-1.8,0c-0.3,0-0.5,0.2-0.5,0.5l0,0.6c0,0.3,0.2,0.5,0.5,0.5l0.8,0c0.5,0,1,0.3,1.1,0.8l0.9,3.1l-4.9,4.9
	c-0.4,0.4-0.8,0.6-1.3,0.6H20c0,0-0.1-0.7-0.2-1.1c0-0.1,0-0.1-0.1-0.2l3.4-3c0.7,0.2,1.5,0.3,2.4,0.3c2.2,0,3.9-0.5,3.9-2.3
	c0-1.9-1.8-2.3-3.9-2.3c-2.2,0-3.9,0.4-3.9,2.3c0,0.5,0.1,0.9,0.3,1.2l-3,2.5c-0.8-1-2.1-1.6-3.5-1.6c-1.9,0-3.6,1.2-4.2,2.9
	c-0.2,0.5-0.3,1-0.3,1.6c0,0.6,0.1,1.1,0.3,1.6c0.7,1.7,2.3,2.9,4.2,2.9c1.9,0,3.5-1.3,4.2-3c0.1-0.3,0.2,0,0.3-1h4.2
	c0.5,0,1,0,1.3-0.4l4.8-4.7l0.1,0.5c-1,0.5-1.8,1.4-2.2,2.4c-0.2,0.5-0.3,1-0.3,1.6c0,0.6,0.1,1.1,0.3,1.6c0.7,1.7,2.3,2.9,4.2,2.9
	c1.9,0,3.5-1.2,4.2-2.8c0.2-0.5,0.3-1.1,0.3-1.7C37,25.9,36.9,25.4,36.7,24.9z M18.4,27.6c-0.5,1.1-1.6,2-2.9,2
	c-1.3,0-2.5-0.8-2.9-2c-0.1-0.3-0.2-0.7-0.2-1.1c0-0.4,0.1-0.8,0.2-1.1c0.5-1.2,1.6-2,2.9-2c1.4,0,2.5,0.9,3,2.1
	c0.1,0.3,0.2,0.7,0.2,1.1C18.7,26.8,18.6,27.2,18.4,27.6z M35.4,27.6c-0.5,1.1-1.6,2-2.9,2c-1.3,0-2.5-0.8-2.9-2
	c-0.1-0.3-0.2-0.7-0.2-1.1c0-0.4,0.1-0.8,0.2-1.1c0.3-0.7,0.7-1.2,1.3-1.6l0.8,2.9c0.1,0.2,0.3,0.4,0.6,0.3l0.4-0.1
	c0.2-0.1,0.4-0.3,0.3-0.6l-0.9-2.9c0.1,0,0.2,0,0.3,0c1.4,0,2.5,0.9,3,2.1c0.1,0.3,0.2,0.7,0.2,1.1C35.6,26.8,35.5,27.2,35.4,27.6z"
	/>
<ellipse id="XMLID_14_" style="fill:#FF9E80;" cx="15.6" cy="26.6" rx="0.7" ry="0.7"/>
</svg>
