<?xml version="1.0" encoding="utf-8"?>
<!-- Generator: Adobe Illustrator 19.0.0, SVG Export Plug-In . SVG Version: 6.00 Build 0)  -->
<svg version="1.1" id="Layer_1" xmlns="http://www.w3.org/2000/svg" xmlns:xlink="http://www.w3.org/1999/xlink" x="0px" y="0px"
	 width="47px" height="47px" viewBox="0 0 47 47" style="enable-background:new 0 0 47 47;" xml:space="preserve">
<g id="Circle_30_">
	<path id="XMLID_16_" style="opacity:0.8;fill:#FFFFFF;" d="M23.5,45C11.6,45,2,35.4,2,23.5S11.6,2,23.5,2C35.4,2,45,11.6,45,23.5
		S35.4,45,23.5,45z"/>
	<path id="XMLID_13_" style="fill:#FF9E80;" d="M23.5,4C34.3,4,43,12.7,43,23.5S34.3,43,23.5,43S4,34.3,4,23.5S12.7,4,23.5,4
		 M23.5,0C10.5,0,0,10.5,0,23.5S10.5,47,23.5,47S47,36.5,47,23.5S36.5,0,23.5,0L23.5,0z"/>
</g>
<path id="pickup_4_" style="fill:#FF9E80;" d="M38.1,27.3l-0.4-3.7c-0.2-1.4-1.4-2.5-2.9-2.5H32l-3.7-3.8c-0.7-0.7-1.6-1.1-2.6-1.1
	h-3.9c-1.2,0-2.1,0.9-2.1,2.1v2.8h-9.2c-0.4,0-0.7,0.3-0.7,0.7v4.9c-0.3,0.1-0.5,0.4-0.5,0.7c0,0.4,0.3,0.7,0.7,0.7h1.9
	c0.4,1.1,1.5,1.9,2.8,1.9s2.4-0.8,2.8-1.9h13c0.4,1.1,1.5,1.9,2.8,1.9c1.3,0,2.4-0.8,2.8-1.9h1.5c0.2,0,0.4-0.1,0.5-0.2
	C38.1,27.7,38.2,27.5,38.1,27.3z M27.2,18.3l2.8,2.9h-5.9v-3.5h1.5C26.2,17.6,26.8,17.8,27.2,18.3z M21,18.3c0-0.4,0.3-0.7,0.7-0.7
	h1v3.5H21V18.3L21,18.3z M16.1,27.1c0,0.8-0.7,1.5-1.5,1.5s-1.5-0.7-1.5-1.5c0-0.8,0.7-1.5,1.5-1.5C15.4,25.7,16.1,26.3,16.1,27.1z
	 M14.6,24.3c-1.5,0-2.7,1.1-2.9,2.4h-0.6v-4.2h7.3v4.2h-0.8C17.3,25.3,16.1,24.3,14.6,24.3z M34.7,27.1c0,0.8-0.7,1.5-1.5,1.5
	c-0.8,0-1.5-0.7-1.5-1.5c0-0.8,0.7-1.5,1.5-1.5C34,25.7,34.7,26.3,34.7,27.1z M36.1,26.7c-0.2-1.4-1.4-2.4-2.9-2.4s-2.7,1.1-2.9,2.4
	H19.8v-4.2h15c0.8,0,1.4,0.6,1.5,1.3l0.3,2.9L36.1,26.7L36.1,26.7z"/>
</svg>
