<?xml version="1.0" encoding="utf-8"?>
<!-- Generator: Adobe Illustrator 19.0.0, SVG Export Plug-In . SVG Version: 6.00 Build 0)  -->
<svg version="1.1" id="Layer_1" xmlns="http://www.w3.org/2000/svg" xmlns:xlink="http://www.w3.org/1999/xlink" x="0px" y="0px"
	 width="47px" height="77px" viewBox="0 0 47 77" style="enable-background:new 0 0 47 77;" xml:space="preserve">
<line id="Leg_16_" style="fill:none;stroke:#555555;stroke-width:1.5;stroke-linecap:round;stroke-miterlimit:10;" x1="23.6" y1="44.5" x2="23.6" y2="76.2"/>
<g id="Circle_32_">
	<path id="XMLID_16_" style="opacity:0.8;fill:#FFFFFF;" d="M23.5,45C11.6,45,2,35.4,2,23.5S11.6,2,23.5,2C35.4,2,45,11.6,45,23.5
		S35.4,45,23.5,45z"/>
	<path id="XMLID_13_" style="fill:#FF9E80;" d="M23.5,4C34.3,4,43,12.7,43,23.5S34.3,43,23.5,43S4,34.3,4,23.5S12.7,4,23.5,4
		 M23.5,0C10.5,0,0,10.5,0,23.5S10.5,47,23.5,47S47,36.5,47,23.5S36.5,0,23.5,0L23.5,0z"/>
</g>
<path id="sedan_4_" style="fill:#FF9E80;" d="M11.1,27.3c0.3,0.4,0.8,0.6,1.3,0.6h0.2c0.3,1.2,1.4,2,2.7,2s2.4-0.9,2.7-2H30
	c0.3,1.2,1.4,2,2.7,2c1.3,0,2.4-0.9,2.7-2h2.4c0.3,0,0.6-0.2,0.7-0.5c0-0.1,0.8-2.4-0.4-4.3c-0.7-1.1-1.9-1.8-3.7-2
	c-0.8-0.1-1.6-0.3-2.4-0.7c-7.7-3.8-13.4-3.1-16.7-1.9l-1.6-0.3c-0.4-0.1-0.7,0.2-0.8,0.6c0,0.3,0.1,0.5,0.3,0.7
	c-1.2,0.8-2,2.1-2.1,3.5l-0.3,3C10.6,26.5,10.8,27,11.1,27.3z M15.2,25.8c0.7,0,1.3,0.6,1.3,1.3s-0.6,1.3-1.3,1.3s-1.3-0.6-1.3-1.3
	S14.5,25.8,15.2,25.8z M32.7,25.8c0.7,0,1.3,0.6,1.3,1.3s-0.6,1.3-1.3,1.3s-1.3-0.6-1.3-1.3S32,25.8,32.7,25.8z M12.5,26.5h-0.2
	c-0.1,0-0.2-0.1-0.2-0.1c0,0-0.1-0.1-0.1-0.2l0.3-3c0.1-1.1,0.8-2.1,1.8-2.6c0.4-0.2,0.8-0.4,1.4-0.6c0.1,0,0.2,0,0.2-0.1
	c3.1-1.1,8.3-1.8,15.6,1.8c0.9,0.4,1.8,0.7,2.8,0.8c1.3,0.2,2.2,0.6,2.7,1.4c0.5,0.9,0.5,2,0.4,2.6h-1.8c-0.3-1.2-1.4-2-2.7-2
	c-1.3,0-2.4,0.9-2.7,2H17.9c-0.3-1.2-1.4-2-2.7-2S12.8,25.3,12.5,26.5L12.5,26.5z"/>
</svg>
