<?xml version="1.0" encoding="utf-8"?>
<!-- Generator: Adobe Illustrator 19.0.0, SVG Export Plug-In . SVG Version: 6.00 Build 0)  -->
<svg version="1.1" id="Layer_1" xmlns="http://www.w3.org/2000/svg" xmlns:xlink="http://www.w3.org/1999/xlink" x="0px" y="0px"
	 width="47px" height="47px" viewBox="0 0 47 47" style="enable-background:new 0 0 47 47;" xml:space="preserve">
<g id="Circle_18_">
	<path id="XMLID_16_" style="opacity:0.8;fill:#FFFFFF;" d="M23.5,45C11.6,45,2,35.4,2,23.5S11.6,2,23.5,2C35.4,2,45,11.6,45,23.5
		S35.4,45,23.5,45z"/>
	<path id="XMLID_13_" style="fill:#FF9E80;" d="M23.5,4C34.3,4,43,12.7,43,23.5S34.3,43,23.5,43S4,34.3,4,23.5S12.7,4,23.5,4
		 M23.5,0C10.5,0,0,10.5,0,23.5S10.5,47,23.5,47S47,36.5,47,23.5S36.5,0,23.5,0L23.5,0z"/>
</g>
<g id="Frozen_3_">
	<g id="Snowflake_8_">
		
			<line style="fill:none;stroke:#61B7FF;stroke-width:0.5;stroke-linecap:round;stroke-miterlimit:10;" x1="25.3" y1="11.3" x2="28.3" y2="11.3"/>
		
			<line style="fill:none;stroke:#61B7FF;stroke-width:0.2;stroke-linecap:round;stroke-miterlimit:10;" x1="27.1" y1="11.3" x2="27.7" y2="10.2"/>
		
			<line style="fill:none;stroke:#61B7FF;stroke-width:0.2;stroke-linecap:round;stroke-miterlimit:10;" x1="25.9" y1="11.3" x2="25.5" y2="10.6"/>
		
			<line style="fill:none;stroke:#61B7FF;stroke-width:0.2;stroke-linecap:round;stroke-miterlimit:10;" x1="25.9" y1="11.2" x2="25.5" y2="11.9"/>
		
			<line style="fill:none;stroke:#61B7FF;stroke-width:0.5;stroke-linecap:round;stroke-miterlimit:10;" x1="26.8" y1="13.9" x2="28.3" y2="11.3"/>
		
			<line style="fill:none;stroke:#61B7FF;stroke-width:0.2;stroke-linecap:round;stroke-miterlimit:10;" x1="27.7" y1="12.3" x2="27.1" y2="11.3"/>
		
			<line style="fill:none;stroke:#61B7FF;stroke-width:0.2;stroke-linecap:round;stroke-miterlimit:10;" x1="27.1" y1="13.3" x2="26.3" y2="13.3"/>
		
			<line style="fill:none;stroke:#61B7FF;stroke-width:0.2;stroke-linecap:round;stroke-miterlimit:10;" x1="27.1" y1="13.3" x2="27.5" y2="14"/>
		
			<line style="fill:none;stroke:#61B7FF;stroke-width:0.5;stroke-linecap:round;stroke-miterlimit:10;" x1="29.8" y1="13.9" x2="28.3" y2="11.3"/>
		
			<line style="fill:none;stroke:#61B7FF;stroke-width:0.2;stroke-linecap:round;stroke-miterlimit:10;" x1="28.9" y1="12.3" x2="27.7" y2="12.3"/>
		
			<line style="fill:none;stroke:#61B7FF;stroke-width:0.2;stroke-linecap:round;stroke-miterlimit:10;" x1="29.5" y1="13.3" x2="29.1" y2="14"/>
		
			<line style="fill:none;stroke:#61B7FF;stroke-width:0.2;stroke-linecap:round;stroke-miterlimit:10;" x1="29.5" y1="13.3" x2="30.2" y2="13.3"/>
		
			<line style="fill:none;stroke:#61B7FF;stroke-width:0.5;stroke-linecap:round;stroke-miterlimit:10;" x1="31.3" y1="11.3" x2="28.3" y2="11.3"/>
		
			<line style="fill:none;stroke:#61B7FF;stroke-width:0.2;stroke-linecap:round;stroke-miterlimit:10;" x1="29.5" y1="11.3" x2="28.9" y2="12.3"/>
		
			<line style="fill:none;stroke:#61B7FF;stroke-width:0.2;stroke-linecap:round;stroke-miterlimit:10;" x1="30.7" y1="11.3" x2="31" y2="11.9"/>
		
			<line style="fill:none;stroke:#61B7FF;stroke-width:0.2;stroke-linecap:round;stroke-miterlimit:10;" x1="30.7" y1="11.3" x2="31" y2="10.6"/>
		
			<line style="fill:none;stroke:#61B7FF;stroke-width:0.5;stroke-linecap:round;stroke-miterlimit:10;" x1="29.8" y1="8.7" x2="28.3" y2="11.3"/>
		
			<line style="fill:none;stroke:#61B7FF;stroke-width:0.2;stroke-linecap:round;stroke-miterlimit:10;" x1="28.9" y1="10.2" x2="29.5" y2="11.3"/>
		
			<line style="fill:none;stroke:#61B7FF;stroke-width:0.2;stroke-linecap:round;stroke-miterlimit:10;" x1="29.5" y1="9.2" x2="30.2" y2="9.2"/>
		
			<line style="fill:none;stroke:#61B7FF;stroke-width:0.2;stroke-linecap:round;stroke-miterlimit:10;" x1="29.5" y1="9.2" x2="29.1" y2="8.5"/>
		
			<line style="fill:none;stroke:#61B7FF;stroke-width:0.5;stroke-linecap:round;stroke-miterlimit:10;" x1="26.8" y1="8.7" x2="28.3" y2="11.3"/>
		
			<line style="fill:none;stroke:#61B7FF;stroke-width:0.2;stroke-linecap:round;stroke-miterlimit:10;" x1="27.7" y1="10.2" x2="28.9" y2="10.2"/>
		
			<line style="fill:none;stroke:#61B7FF;stroke-width:0.2;stroke-linecap:round;stroke-miterlimit:10;" x1="27.1" y1="9.2" x2="27.5" y2="8.5"/>
		
			<line style="fill:none;stroke:#61B7FF;stroke-width:0.2;stroke-linecap:round;stroke-miterlimit:10;" x1="27.1" y1="9.2" x2="26.3" y2="9.2"/>
	</g>
	<g id="Snowflake_7_">
		
			<line style="fill:none;stroke:#61B7FF;stroke-width:0.5;stroke-linecap:round;stroke-miterlimit:10;" x1="16.3" y1="11.3" x2="19.3" y2="11.3"/>
		
			<line style="fill:none;stroke:#61B7FF;stroke-width:0.2;stroke-linecap:round;stroke-miterlimit:10;" x1="18.1" y1="11.3" x2="18.7" y2="10.2"/>
		
			<line style="fill:none;stroke:#61B7FF;stroke-width:0.2;stroke-linecap:round;stroke-miterlimit:10;" x1="16.9" y1="11.3" x2="16.5" y2="10.6"/>
		
			<line style="fill:none;stroke:#61B7FF;stroke-width:0.2;stroke-linecap:round;stroke-miterlimit:10;" x1="16.9" y1="11.2" x2="16.5" y2="11.9"/>
		
			<line style="fill:none;stroke:#61B7FF;stroke-width:0.5;stroke-linecap:round;stroke-miterlimit:10;" x1="17.8" y1="13.9" x2="19.3" y2="11.3"/>
		
			<line style="fill:none;stroke:#61B7FF;stroke-width:0.2;stroke-linecap:round;stroke-miterlimit:10;" x1="18.7" y1="12.3" x2="18.1" y2="11.3"/>
		
			<line style="fill:none;stroke:#61B7FF;stroke-width:0.2;stroke-linecap:round;stroke-miterlimit:10;" x1="18.1" y1="13.3" x2="17.3" y2="13.3"/>
		
			<line style="fill:none;stroke:#61B7FF;stroke-width:0.2;stroke-linecap:round;stroke-miterlimit:10;" x1="18.1" y1="13.3" x2="18.5" y2="14"/>
		
			<line style="fill:none;stroke:#61B7FF;stroke-width:0.5;stroke-linecap:round;stroke-miterlimit:10;" x1="20.8" y1="13.9" x2="19.3" y2="11.3"/>
		
			<line style="fill:none;stroke:#61B7FF;stroke-width:0.2;stroke-linecap:round;stroke-miterlimit:10;" x1="19.9" y1="12.3" x2="18.7" y2="12.3"/>
		
			<line style="fill:none;stroke:#61B7FF;stroke-width:0.2;stroke-linecap:round;stroke-miterlimit:10;" x1="20.5" y1="13.3" x2="20.1" y2="14"/>
		
			<line style="fill:none;stroke:#61B7FF;stroke-width:0.2;stroke-linecap:round;stroke-miterlimit:10;" x1="20.5" y1="13.3" x2="21.2" y2="13.3"/>
		
			<line style="fill:none;stroke:#61B7FF;stroke-width:0.5;stroke-linecap:round;stroke-miterlimit:10;" x1="22.3" y1="11.3" x2="19.3" y2="11.3"/>
		
			<line style="fill:none;stroke:#61B7FF;stroke-width:0.2;stroke-linecap:round;stroke-miterlimit:10;" x1="20.5" y1="11.3" x2="19.9" y2="12.3"/>
		
			<line style="fill:none;stroke:#61B7FF;stroke-width:0.2;stroke-linecap:round;stroke-miterlimit:10;" x1="21.7" y1="11.3" x2="22" y2="11.9"/>
		
			<line style="fill:none;stroke:#61B7FF;stroke-width:0.2;stroke-linecap:round;stroke-miterlimit:10;" x1="21.7" y1="11.3" x2="22" y2="10.6"/>
		
			<line style="fill:none;stroke:#61B7FF;stroke-width:0.5;stroke-linecap:round;stroke-miterlimit:10;" x1="20.8" y1="8.7" x2="19.3" y2="11.3"/>
		
			<line style="fill:none;stroke:#61B7FF;stroke-width:0.2;stroke-linecap:round;stroke-miterlimit:10;" x1="19.9" y1="10.2" x2="20.5" y2="11.3"/>
		
			<line style="fill:none;stroke:#61B7FF;stroke-width:0.2;stroke-linecap:round;stroke-miterlimit:10;" x1="20.5" y1="9.2" x2="21.2" y2="9.2"/>
		
			<line style="fill:none;stroke:#61B7FF;stroke-width:0.2;stroke-linecap:round;stroke-miterlimit:10;" x1="20.5" y1="9.2" x2="20.1" y2="8.5"/>
		
			<line style="fill:none;stroke:#61B7FF;stroke-width:0.5;stroke-linecap:round;stroke-miterlimit:10;" x1="17.8" y1="8.7" x2="19.3" y2="11.3"/>
		
			<line style="fill:none;stroke:#61B7FF;stroke-width:0.2;stroke-linecap:round;stroke-miterlimit:10;" x1="18.7" y1="10.2" x2="19.9" y2="10.2"/>
		
			<line style="fill:none;stroke:#61B7FF;stroke-width:0.2;stroke-linecap:round;stroke-miterlimit:10;" x1="18.1" y1="9.2" x2="18.5" y2="8.5"/>
		
			<line style="fill:none;stroke:#61B7FF;stroke-width:0.2;stroke-linecap:round;stroke-miterlimit:10;" x1="18.1" y1="9.2" x2="17.3" y2="9.2"/>
	</g>
</g>
<path id="SGV_3_" style="fill:#FF9E80;" d="M30,21.3h-3.5v-2.8c0-0.3-0.3-0.6-0.6-0.6H11.5c-0.3,0-0.6,0.2-0.6,0.6v11
	c0,0.3,0.3,0.6,0.6,0.6h2.3c0.2,1,1.1,1.8,2.2,1.8s2.1-0.8,2.2-1.8h7.6h4.1c0.2,1,1.1,1.8,2.2,1.8c1.1,0,2.1-0.8,2.2-1.8l1.7,0
	c0.3,0,0.6-0.2,0.6-0.6c0,0,0-3.1,0-4.3c0-0.4-0.2-0.6-0.6-0.6l-3.1,0c-0.2,0-0.3-0.1-0.4-0.2l-2.4-3.1C30.2,21.4,30.1,21.3,30,21.3
	z M12.1,19.1h13.3v0.6V29h-7.1c-0.3-0.8-1.2-1.4-2.1-1.4s-1.8,0.6-2.1,1.4h-1.8V19.1z M16.1,30.8c-0.6,0-1.1-0.5-1.1-1.1
	s0.5-1.1,1.1-1.1s1.1,0.5,1.1,1.1C17.2,30.3,16.7,30.8,16.1,30.8z M32.4,30.8c-0.6,0-1.1-0.5-1.1-1.1c0-0.6,0.5-1.1,1.1-1.1
	c0.6,0,1.1,0.5,1.1,1.1C33.5,30.3,33,30.8,32.4,30.8z M35.8,25.8V29h-1.4c-0.3-0.8-1.2-1.4-2.1-1.4c-1,0-1.8,0.6-2.1,1.4h-3.7v-6.6
	h3.2c0.2,0.3,1.6,1.7,2.5,3.3H35.8z"/>
</svg>
