<?xml version="1.0" encoding="utf-8"?>
<!-- Generator: Adobe Illustrator 19.0.0, SVG Export Plug-In . SVG Version: 6.00 Build 0)  -->
<svg version="1.1" id="Layer_1" xmlns="http://www.w3.org/2000/svg" xmlns:xlink="http://www.w3.org/1999/xlink" x="0px" y="0px"
	 width="47px" height="77px" viewBox="0 0 47 77" style="enable-background:new 0 0 47 77;" xml:space="preserve">
<line id="Leg_17_" style="fill:none;stroke:#555555;stroke-width:1.5;stroke-linecap:round;stroke-miterlimit:10;" x1="23.6" y1="44.5" x2="23.6" y2="76.2"/>
<g id="Circle_34_">
	<path id="XMLID_16_" style="opacity:0.8;fill:#FFFFFF;" d="M23.5,45C11.6,45,2,35.4,2,23.5S11.6,2,23.5,2C35.4,2,45,11.6,45,23.5
		S35.4,45,23.5,45z"/>
	<path id="XMLID_13_" style="fill:#FF9E80;" d="M23.5,4C34.3,4,43,12.7,43,23.5S34.3,43,23.5,43S4,34.3,4,23.5S12.7,4,23.5,4
		 M23.5,0C10.5,0,0,10.5,0,23.5S10.5,47,23.5,47S47,36.5,47,23.5S36.5,0,23.5,0L23.5,0z"/>
</g>
<path id="SUV_1_" style="fill:#FF9E80;" d="M13.8,16.8c-3,0.3-3.9,7.2-3.9,8.7c0,1.9,0.3,2.4,1.3,2.9c0.6,0.3,1.9,0.5,1.9,0.5
	c0.3,1.4,1.8,2.5,3.4,2.5s3.1-1.1,3.4-2.5h9.2h0.3c0.3,1.4,1.8,2.5,3.4,2.5c1.6,0,3.1-1.1,3.4-2.5l2.1,0.1c0.4,0,0.8-0.4,0.8-0.8
	c0.2-1.3,0.2-3.6-0.1-5.2c-0.1-0.6-0.1-1.1-2.9-1.3c-4.4-0.3,0,0-4.4-0.3c-0.2,0-0.4-0.1-0.6-0.3l-3.3-4.2c-0.3-0.3-0.7-0.3-0.9-0.3
	C26.9,16.5,15.1,16.7,13.8,16.8z M16.6,30c-0.9,0-1.7-0.7-1.7-1.6c0-0.9,0.8-1.6,1.7-1.6c0.9,0,1.7,0.7,1.7,1.6
	C18.3,29.3,17.5,30,16.6,30z M32.8,30c-0.9,0-1.7-0.7-1.7-1.6s0.8-1.6,1.7-1.6c0.9,0,1.7,0.7,1.7,1.6C34.5,29.3,33.8,30,32.8,30z
	 M19.8,27.4c-0.4-1.2-1.8-2.2-3.2-2.2c-1.4,0-2.8,1.1-3.2,2.2c0,0,0,0-1.1-0.2c-0.7-0.1-0.7-0.4-0.7-1.5c0-3.7,1.4-7.3,2.9-7.3
	l12.5-0.3c0.3,0.5,1.8,2.5,3.5,4.7c0,0,2.3,0.1,6.1,0.4c1.4,0.1,1.2,0.2,1.3,1.2c0.1,1.4,0,3,0,3H36c-0.6-1.6-1.8-2.2-3.2-2.2
	s-2.7,0.6-3.2,2.2H19.8z"/>
</svg>
