<?xml version="1.0" encoding="utf-8"?>
<!-- Generator: Adobe Illustrator 19.0.0, SVG Export Plug-In . SVG Version: 6.00 Build 0)  -->
<svg version="1.1" id="Layer_1" xmlns="http://www.w3.org/2000/svg" xmlns:xlink="http://www.w3.org/1999/xlink" x="0px" y="0px"
	 width="47px" height="47px" viewBox="0 0 47 47" style="enable-background:new 0 0 47 47;" xml:space="preserve">
<g id="Circle_26_">
	<path id="XMLID_16_" style="opacity:0.8;fill:#FFFFFF;" d="M23.5,45C11.6,45,2,35.4,2,23.5S11.6,2,23.5,2C35.4,2,45,11.6,45,23.5
		S35.4,45,23.5,45z"/>
	<path id="XMLID_13_" style="fill:#FF9E80;" d="M23.5,4C34.3,4,43,12.7,43,23.5S34.3,43,23.5,43S4,34.3,4,23.5S12.7,4,23.5,4
		 M23.5,0C10.5,0,0,10.5,0,23.5S10.5,47,23.5,47S47,36.5,47,23.5S36.5,0,23.5,0L23.5,0z"/>
</g>
<g id="Taxi_1_">
	<rect id="XMLID_141_" x="11.4" y="20.2" style="fill:#FF9E80;" width="5" height="5"/>
	<rect id="XMLID_140_" x="16.4" y="25.2" style="fill:#FF9E80;" width="5" height="5"/>
	<rect id="XMLID_139_" x="21.4" y="20.2" style="fill:#FF9E80;" width="5" height="5"/>
	<rect id="XMLID_138_" x="26.4" y="25.2" style="fill:#FF9E80;" width="5" height="5"/>
	<rect id="XMLID_107_" x="31.4" y="20.2" style="fill:#FF9E80;" width="5" height="5"/>
</g>
</svg>
