<?xml version="1.0" encoding="utf-8"?>
<!-- Generator: Adobe Illustrator 19.0.0, SVG Export Plug-In . SVG Version: 6.00 Build 0)  -->
<svg version="1.1" id="Layer_1" xmlns="http://www.w3.org/2000/svg" xmlns:xlink="http://www.w3.org/1999/xlink" x="0px" y="0px"
	 width="47px" height="77px" viewBox="0 0 47 77" style="enable-background:new 0 0 47 77;" xml:space="preserve">
<line id="Leg_12_" style="fill:none;stroke:#555555;stroke-width:1.5;stroke-linecap:round;stroke-miterlimit:10;" x1="23.6" y1="44.5" x2="23.6" y2="76.2"/>
<g id="Circle_24_">
	<path id="XMLID_16_" style="opacity:0.8;fill:#FFFFFF;" d="M23.5,45C11.6,45,2,35.4,2,23.5S11.6,2,23.5,2C35.4,2,45,11.6,45,23.5
		S35.4,45,23.5,45z"/>
	<path id="XMLID_13_" style="fill:#FF9E80;" d="M23.5,4C34.3,4,43,12.7,43,23.5S34.3,43,23.5,43S4,34.3,4,23.5S12.7,4,23.5,4
		 M23.5,0C10.5,0,0,10.5,0,23.5S10.5,47,23.5,47S47,36.5,47,23.5S36.5,0,23.5,0L23.5,0z"/>
</g>
<path id="XMLID_18_" style="fill:#FF9E80;" d="M32.5,21.3c-1.6,0-3,0.4-4,1.4L27.6,21l2-2.4l0.9,0.8c0.1,0.1,0.3,0.1,0.4,0l0.4-0.5
	c0.1-0.1,0.1-0.3,0-0.4L28.5,16c-0.1-0.1-0.3,0-0.4,0.1l-0.4,0.5c-0.1,0.1-0.1,0.3,0.1,0.4l1.1,0.9l-1.7,2L26.6,19H13.4
	c-0.6,0-0.9,0.4-0.9,1v8.3c0,0.1-1.1,0.1-1.1,1.1c0,0.7,0.5,0.9,1.5,0.9l2,0c0.3,1.3,1.4,2.3,2.8,2.3c1.4,0,2.5-0.9,2.8-2.2l7.8,0.1
	c1.1,1.3,2.6,2.1,4.4,2.1c3.2,0,5.7-2.6,5.7-5.7C38.2,23.8,35.7,21.3,32.5,21.3z M19.2,30.5c-0.3,0.6-0.9,1.1-1.6,1.1
	c-0.8,0-1.4-0.5-1.6-1.1c-0.1-0.2-0.1-0.4-0.1-0.6c0-0.2,0-0.4,0.1-0.6c0.3-0.7,0.9-1.1,1.6-1.1c0.8,0,1.4,0.5,1.7,1.2
	c0.1,0.2,0.1,0.4,0.1,0.6C19.3,30.1,19.3,30.3,19.2,30.5z M27.3,29.3l-6.9-0.1c-0.3-1.3-1.4-2.3-2.8-2.3c-1.4,0-2.5,1-2.8,2.2
	l-1.3,0l0-9.1H26l1.6,3.6c-0.5,0.9-0.9,2.1-0.9,3.2C26.8,27.7,27,28.6,27.3,29.3z M32.5,31.4c-2.5,0-4.5-2-4.5-4.5
	c0-2.5,2-4.5,4.5-4.5c2.5,0,4.5,2,4.5,4.5C37,29.4,35,31.4,32.5,31.4z"/>
<g id="Radiator_3_">
	<path id="XMLID_129_" style="fill:#FF9E80;" d="M15.8,24.9L15.8,24.9c-0.3,0-0.6-0.3-0.6-0.6v-2c0-0.3,0.3-0.6,0.6-0.6h0
		c0.3,0,0.6,0.3,0.6,0.6v2C16.4,24.6,16.1,24.9,15.8,24.9z"/>
	<path id="XMLID_128_" style="fill:#FF9E80;" d="M17.7,24.9L17.7,24.9c-0.3,0-0.6-0.3-0.6-0.6v-2c0-0.3,0.3-0.6,0.6-0.6l0,0
		c0.3,0,0.6,0.3,0.6,0.6v2C18.3,24.6,18,24.9,17.7,24.9z"/>
	<path id="XMLID_127_" style="fill:#FF9E80;" d="M19.5,24.9L19.5,24.9c-0.3,0-0.6-0.3-0.6-0.6v-2c0-0.3,0.3-0.6,0.6-0.6h0
		c0.3,0,0.6,0.3,0.6,0.6v2C20.1,24.6,19.9,24.9,19.5,24.9z"/>
</g>
</svg>
